<svg width="233" height="314" viewBox="0 0 233 314" fill="none" xmlns="http://www.w3.org/2000/svg">
<path d="M210.389 61C210.083 61 209.93 60.8574 209.778 60.5723L205.041 43.7507C204.888 43.4656 205.194 43.1805 205.499 43.0379C205.805 42.8954 206.11 43.1805 206.263 43.4656L211 60.2872C211 60.5723 210.847 60.8574 210.389 61Z" fill="#26192A"/>
<path d="M198.607 55C198.322 55 198.18 54.851 198.038 54.553C197.896 54.255 198.18 53.9569 198.464 53.8079L214.251 49.0396C214.536 48.8906 214.82 49.1886 214.962 49.4867C215.104 49.7847 214.82 50.0827 214.536 50.2317L198.749 55C198.749 55 198.749 55 198.607 55Z" fill="#26192A"/>
<path d="M214.495 56C214.357 56 214.356 56 214.218 55.8564L201.229 46.9557C200.953 46.8121 200.953 46.525 201.091 46.2379C201.229 45.9507 201.505 45.9507 201.782 46.0943L214.771 54.9951C215.047 55.1386 215.047 55.4258 214.909 55.7129C214.909 55.8564 214.633 56 214.495 56Z" fill="#26192A"/>
<path d="M203.52 59C203.378 59 203.378 59 203.236 59C202.951 58.8594 202.951 58.5781 203.093 58.2968L211.054 44.233C211.196 43.9517 211.48 43.9517 211.765 44.0924C212.049 44.233 212.049 44.5143 211.907 44.7956L203.946 58.8594C203.804 58.8594 203.662 59 203.52 59Z" fill="#26192A"/>
<path d="M180.389 292C180.083 292 179.93 291.857 179.778 291.572L175.041 274.751C174.888 274.466 175.193 274.18 175.499 274.038C175.805 273.895 176.11 274.18 176.263 274.466L181 291.287C181 291.572 180.847 291.857 180.389 292Z" fill="#26192A"/>
<path d="M168.607 286C168.322 286 168.18 285.851 168.038 285.553C167.896 285.255 168.18 284.957 168.464 284.808L184.251 280.04C184.536 279.891 184.82 280.189 184.962 280.487C185.104 280.785 184.82 281.083 184.535 281.232L168.749 286C168.749 286 168.749 286 168.607 286Z" fill="#26192A"/>
<path d="M184.495 287C184.356 287 184.356 287 184.218 286.856L171.229 277.956C170.953 277.812 170.953 277.525 171.091 277.238C171.229 276.951 171.505 276.951 171.782 277.094L184.771 285.995C185.047 286.139 185.047 286.426 184.909 286.713C184.771 287 184.633 287 184.495 287Z" fill="#26192A"/>
<path d="M173.52 290C173.378 290 173.378 290 173.236 290C172.951 289.859 172.951 289.578 173.093 289.297L181.054 275.233C181.196 274.952 181.48 274.952 181.765 275.092C182.049 275.233 182.049 275.514 181.907 275.796L173.946 289.859C173.804 289.859 173.662 290 173.52 290Z" fill="#26192A"/>
<path d="M4.63631 15.0784L4.09091 10L8.18182 12.6078L12.4091 10.6863L11.1818 15.3529L15 19.4706L9.40904 18.3725L8.18182 24L5.31813 18.2353L0 18.5098L4.63631 15.0784Z" fill="#6AB0A0"/>
<path d="M212.863 130.858C212.72 130.858 212.578 130.858 212.435 130.716L202.596 121.213C202.454 121.071 202.454 120.787 202.454 120.645L212.435 96.1064L195.752 119.227C195.609 119.369 195.467 119.369 195.324 119.511L184.629 120.645C184.344 120.645 184.202 120.504 184.059 120.362C183.916 120.22 184.059 119.936 184.202 119.794L214.146 91.9929L215.144 91.1419C215.287 91 215.572 91 215.715 91C215.857 91.1418 216 91.2837 216 91.5674L213.291 130.574C213.291 130.716 213.148 131 213.005 131C212.863 130.858 212.863 130.858 212.863 130.858ZM203.594 120.645L212.293 129.156L214.859 92.844L203.594 120.645ZM211.009 96.2482L186.198 119.369L195.039 118.376L211.009 96.2482Z" fill="#26192A"/>
<path d="M202.99 133C202.846 133 202.558 132.855 202.558 132.71L195.057 118.782C194.912 118.492 195.057 118.202 195.345 118.057C195.634 117.912 195.922 118.057 196.066 118.347L202.558 130.534L202.846 120.668C202.846 120.378 203.135 120.088 203.423 120.088C203.712 120.088 204 120.378 204 120.668L203.711 132.71C203.567 132.71 203.423 132.855 202.99 133C203.134 133 202.99 133 202.99 133Z" fill="#26192A"/>
<path d="M202.502 133H202.354C202.058 132.864 201.91 132.593 202.058 132.322L205.906 124.324C206.054 124.053 206.35 123.918 206.646 124.053C206.942 124.189 207.09 124.46 206.942 124.731L203.094 132.729C202.946 132.864 202.798 133 202.502 133Z" fill="#26192A"/>
<path d="M69.0754 139.451C69.0754 139.451 42.3043 147.036 35.8567 145.21C29.2691 143.384 28.2879 110.655 11.4683 118.1C-5.35127 125.685 1.93726 162.628 20.0183 173.163C38.0994 183.698 73 161.504 73 161.504L69.0754 139.451Z" fill="#FCB82E"/>
<path d="M112.519 114.907C112.519 114.907 140.969 97.2674 173.081 128.877C205.334 160.487 178.715 195.767 155.053 200C155.053 199.859 101.392 154.137 112.519 114.907Z" fill="#F58A28"/>
<path d="M112.738 115C112.738 115 190.412 143.463 142.254 246.886L67.4045 249C67.4045 249 36.6173 186.157 80.9622 118.1L112.738 115Z" fill="#FCB82E"/>
<path d="M71.742 220C71.742 220 47.5724 257.005 71.742 302H93.3675C93.3675 302 92.9435 263.593 101 237.802L71.742 220Z" fill="#FCB82E"/>
<path d="M116.742 220C116.742 220 92.5724 257.005 116.742 302H138.367C138.367 302 137.943 263.593 146 237.802L116.742 220Z" fill="#FCB82E"/>
<path d="M145.114 216.083C145.114 216.083 146.793 257.215 169.88 257.073C192.967 256.932 165.962 208.026 187.51 206.047C196.885 205.199 199.823 216.083 189.469 218.91C184.991 220.182 199.263 255.377 176.316 264.706C153.37 274.035 135.32 253.54 136.02 227.956C136.719 202.372 145.114 216.083 145.114 216.083Z" fill="#FCB82E"/>
<path d="M120.436 219.049C120.436 219.049 129.981 157.68 101.908 151.458C73.8353 145.236 61.2025 204.06 79.7306 225.836C98.1183 247.471 117.629 233.472 120.436 219.049Z" fill="#FFFAF0"/>
<path d="M64.5458 261C64.2729 261 64 260.719 64 260.437C64 260.015 64.2729 256.358 65.0916 255.233C65.2281 254.952 65.6374 254.952 65.7739 255.092C66.0468 255.233 66.0468 255.655 65.9104 255.796C65.3646 256.499 65.0916 259.031 64.9552 260.437C65.0916 260.719 64.8188 261 64.5458 261Z" fill="#26192A"/>
<path d="M68.5458 265C68.2729 265 68 264.719 68 264.437C68 264.015 68.2729 260.358 69.0916 259.233C69.2281 258.952 69.6374 258.952 69.7739 259.092C70.0468 259.233 70.0468 259.655 69.9104 259.796C69.3646 260.499 69.0916 263.031 68.9552 264.437C69.0916 264.719 68.8188 265 68.5458 265Z" fill="#26192A"/>
<path d="M66.381 271C66.0141 271 65.8307 270.862 65.6472 270.585C65.4638 270.17 64.5467 266.575 65.2804 265.331C65.4638 265.054 65.8306 264.916 66.1975 265.054C66.5643 265.193 66.7478 265.469 66.5643 265.746C66.1975 266.437 66.5644 269.064 66.9312 270.447C67.1146 270.723 66.9312 271 66.381 271C66.5644 271 66.381 271 66.381 271Z" fill="#26192A"/>
<path d="M71.3809 275C71.0141 275 70.8307 274.862 70.6473 274.585C70.4638 274.17 69.5467 270.575 70.2804 269.331C70.4638 269.054 70.8307 268.916 71.1976 269.054C71.5644 269.193 71.7479 269.469 71.5644 269.746C71.1976 270.437 71.5643 273.064 71.9312 274.447C72.1146 274.723 71.9312 275 71.3809 275Z" fill="#26192A"/>
<path d="M66.3949 280C66.0244 280 65.8391 279.862 65.6538 279.585C65.4685 279.17 64.5421 275.575 65.2832 274.331C65.4685 274.054 65.839 273.916 66.2096 274.054C66.5801 274.193 66.7654 274.469 66.5801 274.746C66.2096 275.437 66.5802 278.064 66.9507 279.447C67.136 279.723 66.7655 280 66.3949 280Z" fill="#26192A"/>
<path d="M71.3809 284C71.0141 284 70.8307 283.862 70.6473 283.585C70.4638 283.17 69.5467 279.575 70.2804 278.331C70.4638 278.054 70.8307 277.916 71.1976 278.054C71.5644 278.193 71.7479 278.469 71.5644 278.746C71.1976 279.437 71.5643 282.064 71.9312 283.447C72.1146 283.723 71.9312 284 71.3809 284Z" fill="#26192A"/>
<path d="M69.5921 290C69.4719 290 69.2314 289.857 69.2314 289.714C69.1112 289.286 67.7887 285.857 68.0292 284.429C68.0292 284.143 68.2696 284 68.5101 284C68.7505 284 68.8708 284.286 68.8708 284.571C68.7505 285.429 69.4719 287.857 69.9528 289.143C70.0731 289.429 69.9528 289.714 69.7124 289.857C69.8326 290 69.7123 290 69.5921 290Z" fill="#26192A"/>
<path d="M110.546 260C110.273 260 110 259.719 110 259.437C110 259.015 110.273 255.358 111.092 254.233C111.228 253.952 111.637 253.952 111.774 254.092C112.047 254.233 112.047 254.655 111.91 254.796C111.365 255.499 111.092 258.031 110.955 259.437C111.092 259.719 110.819 260 110.546 260Z" fill="#26192A"/>
<path d="M113.546 264C113.273 264 113 263.719 113 263.437C113 263.015 113.273 259.358 114.092 258.233C114.228 257.952 114.637 257.952 114.774 258.092C115.047 258.233 115.047 258.655 114.91 258.796C114.365 259.499 114.092 262.031 113.955 263.437C114.092 263.859 113.819 264 113.546 264Z" fill="#26192A"/>
<path d="M111.381 270C111.014 270 110.831 269.862 110.647 269.585C110.464 269.17 109.547 265.575 110.28 264.331C110.464 264.054 110.831 263.916 111.197 264.054C111.564 264.193 111.748 264.469 111.564 264.746C111.198 265.437 111.564 268.064 111.931 269.447C112.115 269.585 111.931 269.862 111.381 270C111.564 270 111.381 270 111.381 270Z" fill="#26192A"/>
<path d="M116.381 274C116.014 274 115.831 273.862 115.647 273.585C115.464 273.17 114.547 269.575 115.28 268.331C115.464 268.054 115.831 267.916 116.198 268.054C116.564 268.193 116.748 268.469 116.564 268.746C116.197 269.437 116.564 272.064 116.931 273.447C117.115 273.585 116.931 273.862 116.381 274Z" fill="#26192A"/>
<path d="M112.329 279C111.976 279 111.799 278.862 111.623 278.585C111.446 278.17 110.564 274.575 111.27 273.331C111.446 273.054 111.799 272.916 112.152 273.054C112.505 273.193 112.681 273.469 112.505 273.746C112.152 274.437 112.505 277.064 112.858 278.447C113.211 278.585 112.858 278.862 112.329 279C112.505 279 112.505 279 112.329 279Z" fill="#26192A"/>
<path d="M116.381 282C116.014 282 115.831 281.862 115.647 281.585C115.464 281.17 114.547 277.575 115.28 276.331C115.464 276.054 115.831 275.916 116.198 276.054C116.564 276.193 116.748 276.469 116.564 276.746C116.197 277.437 116.564 280.064 116.931 281.447C117.115 281.723 116.931 282 116.381 282Z" fill="#26192A"/>
<path d="M114.592 289C114.472 289 114.231 288.857 114.231 288.714C114.111 288.286 112.789 284.857 113.029 283.429C113.029 283.143 113.27 283 113.51 283C113.751 283 113.871 283.286 113.871 283.571C113.751 284.429 114.472 286.857 114.953 288.143C115.073 288.429 114.953 288.714 114.712 288.857C114.712 288.857 114.712 289 114.592 289Z" fill="#26192A"/>
<path d="M138.708 137.004C138.708 137.004 133.598 182.203 160 192.09L156.877 200C156.877 200 134.733 192.231 130.758 168.502C128.345 154.519 132.462 137.004 132.462 137.004C132.462 137.004 136.72 134.744 138.708 137.004Z" fill="#F58A28"/>
<path d="M137.281 131.494C137.281 131.494 183.863 124.641 185.961 161.984C187.64 189.817 134.623 184.362 128.468 171.215C122.313 158.068 128.888 150.096 134.903 149.117C140.918 148.138 169.874 159.047 168.056 151.634C166.377 144.222 141.617 148.278 141.617 148.278L137.281 131.494Z" fill="#FCB82E"/>
<path d="M131.237 173C130.669 172.862 119.449 170.515 120.585 165.407C120.727 164.441 121.295 163.751 122.147 163.336C122.715 163.06 123.284 162.922 123.994 162.922C121.153 161.266 118.739 159.195 119.023 156.71C119.165 155.882 119.591 155.33 120.301 154.915C122.147 153.949 125.556 154.777 128.681 155.744C126.55 154.225 124.704 152.569 124.42 151.188C124.278 150.636 124.562 150.084 124.988 149.67C127.97 146.909 137.77 153.535 138.765 154.225C139.049 154.363 139.049 154.777 138.907 154.915C138.765 155.192 138.339 155.192 138.197 155.053C134.362 152.431 127.544 148.703 125.698 150.36C125.556 150.498 125.414 150.774 125.414 151.05C125.698 152.983 131.237 156.434 134.646 158.229C134.93 158.367 135.072 158.643 134.93 158.919C134.788 159.195 134.504 159.333 134.22 159.195C131.379 157.814 123.426 154.639 120.869 155.882C120.443 156.158 120.159 156.434 120.159 156.848C119.733 159.333 123.852 161.818 127.402 163.475C129.533 164.027 131.237 164.993 131.379 164.993C131.663 165.131 131.663 165.407 131.663 165.683C131.521 165.959 131.237 166.097 130.953 165.959C130.811 165.959 129.107 165.407 126.976 164.441C125.272 164.027 123.568 163.751 122.573 164.165C122.005 164.441 121.721 164.855 121.579 165.545C120.869 168.859 128.397 171.205 131.379 171.896C131.663 171.896 131.805 172.172 131.805 172.448C131.805 172.724 131.521 173 131.237 173Z" fill="#26192A"/>
<path d="M71 135C71 135 43.2115 157.696 56.6889 199C56.6889 199 57.3836 159.67 71 135Z" fill="#F58A28"/>
<path d="M6.1886 127C5.90359 127 5.76106 126.858 5.61855 126.575C5.33354 125.157 2.62597 112.827 4.90603 110.417C5.33354 109.992 5.76106 109.85 6.33107 109.992C8.18362 110.276 9.6087 112.685 10.4637 115.236C10.4637 112.685 10.7487 110.276 11.8888 109.425C12.1738 109.142 12.7438 108.858 13.5988 109.283C15.8789 110.134 17.4464 113.819 18.3014 116.937C18.444 113.677 18.7289 109.992 20.154 109.142C20.439 109 21.009 108.858 21.7215 109.283C25.1416 111.409 24.9992 124.165 24.9992 125.583C24.9992 125.866 24.7141 126.15 24.4291 126.15C24.1441 126.15 23.8591 125.866 23.8591 125.583C23.8591 121.756 23.4315 111.693 21.009 110.134C20.724 109.992 20.5815 109.992 20.5815 109.992C19.2989 110.701 19.1565 117.22 19.299 121.614C19.299 121.898 19.1564 122.181 18.8714 122.181C18.5864 122.181 18.3014 122.039 18.3014 121.756C17.8739 118.921 15.8788 111.409 13.1713 110.276C12.7437 110.134 12.6012 110.276 12.4587 110.276C11.0337 111.409 11.3187 117.929 11.8888 121.756C11.8888 122.039 11.7463 122.323 11.4613 122.323C11.1763 122.323 10.8912 122.181 10.8912 121.898C10.4637 119.063 8.89618 111.551 6.1886 111.126C6.0461 111.126 5.90361 111.126 5.76111 111.268C4.33607 112.827 5.61853 121.331 6.75857 126.433C6.75857 126.717 6.61611 127 6.1886 127C6.33111 127 6.1886 127 6.1886 127Z" fill="#26192A"/>
<path d="M82.6184 310C82.0598 310 81.5013 309.857 80.9427 309.713C79.9651 309.283 79.5461 308.709 79.4065 308.135C77.4514 309.283 75.3566 310 73.4015 309.57C72.2843 309.283 71.8653 308.709 71.7257 308.135C71.586 307.274 72.1446 306.126 72.9826 304.978C70.6085 306.269 68.2344 307.13 66.9776 306.126C66.1397 305.552 66 304.834 66 304.26C66.1397 301.964 69.9102 299.381 70.3292 299.094C70.6085 298.951 70.8878 298.951 71.0274 299.238C71.1671 299.525 71.1671 299.812 70.8878 299.955C69.9102 300.673 67.1172 302.825 67.1172 304.26C67.1172 304.547 67.1172 304.834 67.6758 305.265C69.0723 306.413 73.2618 303.83 76.6135 301.247C77.7307 300.242 78.8479 299.381 79.2669 299.094C79.5462 298.951 79.8255 298.951 79.9651 299.238C80.1048 299.525 80.1048 299.812 79.9651 299.955C79.6858 300.242 78.7083 301.103 77.4514 301.964C74.9377 304.117 72.7032 306.7 72.8429 307.848C72.8429 308.135 73.1222 308.278 73.6808 308.422C75.4963 308.852 77.7307 307.848 79.6858 306.556C80.6634 304.26 84.7132 302.108 85.2718 301.821C85.5511 301.677 85.8304 301.821 85.9701 301.964C86.1097 302.108 86.1097 302.395 85.9701 302.682C85.8304 302.825 83.4563 305.408 80.5237 307.417C80.5237 307.561 80.5237 307.561 80.5237 307.704C80.5237 307.848 80.5237 308.278 81.5012 308.709C84.7132 310.287 90.9975 304.404 93.0923 302.108C93.2319 301.821 93.6509 301.821 93.7905 302.108C94.0698 302.251 94.0698 302.682 93.7905 302.825C93.5112 303.112 87.2269 310 82.6184 310Z" fill="#26192A"/>
<path d="M128.618 310C128.06 310 127.501 309.857 126.943 309.713C125.965 309.283 125.546 308.709 125.406 308.135C123.451 309.283 121.357 310 119.401 309.57C118.284 309.283 117.865 308.709 117.726 308.135C117.586 307.274 118.145 306.126 118.983 304.978C116.608 306.269 114.234 307.13 112.978 306.126C112.14 305.552 112 304.834 112 304.26C112.14 301.964 115.91 299.381 116.329 299.094C116.608 298.951 116.888 298.951 117.027 299.238C117.167 299.525 117.167 299.812 116.888 299.955C115.91 300.673 113.117 302.825 113.117 304.26C113.117 304.547 113.117 304.834 113.676 305.265C115.072 306.413 119.262 303.83 122.613 301.247C123.731 300.242 124.848 299.381 125.267 299.094C125.546 298.951 125.825 298.951 125.965 299.238C126.105 299.525 126.105 299.812 125.965 299.955C125.686 300.242 124.708 301.103 123.451 301.964C120.938 304.117 118.703 306.7 118.843 307.848C118.843 308.135 119.122 308.278 119.681 308.422C121.496 308.852 123.731 307.848 125.686 306.556C126.663 304.26 130.713 302.108 131.272 301.821C131.551 301.677 131.83 301.821 131.97 301.964C132.11 302.108 132.11 302.395 131.97 302.682C131.83 302.825 129.456 305.408 126.524 307.417C126.524 307.561 126.524 307.561 126.524 307.704C126.524 307.848 126.524 308.278 127.501 308.709C130.853 310.287 136.998 304.404 139.092 302.108C139.232 301.821 139.651 301.821 139.791 302.108C140.07 302.251 140.07 302.682 139.791 302.825C139.372 303.112 133.227 310 128.618 310Z" fill="#26192A"/>
<path d="M177.973 213.039C177.973 213.039 173.917 199.411 183.008 199.842C192.099 200.272 193.497 209.166 187.623 206.727C181.749 204.432 190.7 195.251 196.434 200.702C202.308 206.154 204.126 213.756 197.133 213.469C190.14 213.182 193.917 208.592 198.952 211.605C203.987 214.617 202.728 220.929 195.595 223.511C188.462 226.093 186.504 218.777 190.42 219.638C194.336 220.642 197.833 227.24 189.861 227.958C181.889 228.675 178.113 220.068 182.728 219.781C187.343 219.638 186.364 225.949 180.211 226.523C174.057 227.097 170.141 209.596 175.595 208.162C181.19 207.014 182.588 215.047 177.973 213.039Z" fill="#FFFAF0"/>
<path d="M189.392 228C187.151 228 185.049 227.286 183.368 226C182.528 226.286 181.687 226.571 180.847 226.714C176.924 227.143 173.843 221.143 173.142 215.429C172.582 211 173.702 208 176.084 207.429C176.364 207.286 176.784 207.286 177.065 207.286C176.924 204.286 177.485 202 178.745 200.571C179.866 199.286 181.407 198.714 183.508 198.857C185.189 199 186.73 199.286 187.991 199.857C189.392 198.714 191.213 198 192.894 198C194.575 198 196.116 198.571 197.377 199.857C200.879 203 202.98 207 202.7 209.857C202.7 210.857 202.28 211.714 201.719 212.429C202.84 213.857 203.26 215.571 202.84 217.286C202.28 220 199.758 222.286 196.116 223.571C195.836 223.714 195.696 223.714 195.556 223.714C195.696 224.571 195.416 225.286 194.995 226C194.155 227.143 192.614 227.857 190.373 228C190.092 228 189.812 228 189.392 228ZM184.489 225.429C186.17 226.571 188.131 227.143 190.373 227C192.334 226.857 193.735 226.286 194.295 225.429C194.575 225 194.715 224.571 194.715 224C192.194 224.429 189.952 223.571 188.972 221.857C188.552 221 188.411 220.143 188.832 219.429C189.252 218.714 190.092 218.429 191.213 218.714C193.034 219.143 194.855 220.857 195.556 222.714C195.696 222.714 195.976 222.571 196.116 222.571C199.338 221.429 201.579 219.429 202.14 217C202.42 215.571 202.14 214.143 201.159 213C200.459 213.429 199.478 213.571 198.357 213.571H197.937C193.875 213.429 193.595 211.857 193.595 211.429C193.595 210.429 194.855 209.571 196.536 209.571C197.377 209.571 198.638 209.714 200.038 210.571C200.459 210.857 200.879 211.143 201.299 211.429C201.719 211 202 210.429 202 209.571C202.14 207 200.179 203.429 196.957 200.429C195.836 199.429 194.575 198.857 193.174 198.857C191.914 198.857 190.513 199.286 189.392 200.143C191.773 201.714 192.754 203.857 192.474 205.286C192.194 206.857 190.513 207.286 188.271 206.429C186.73 205.857 186.17 204.714 186.03 204C185.89 202.857 186.31 201.429 187.431 200.286C186.31 199.857 185.049 199.571 183.789 199.571C182.108 199.429 180.707 200 179.866 200.857C178.465 202.286 178.325 204.857 178.465 206.857C180.847 207.143 182.108 209.429 182.108 211C182.108 212.714 180.567 213.571 178.605 212.714C178.465 212.714 178.325 212.571 178.325 212.429C178.325 212.286 177.765 210.429 177.485 208C177.205 208 176.924 208 176.644 208.143C174.543 208.714 174.123 212 174.543 215C175.103 220.143 177.905 225.714 180.987 225.286C181.687 225.286 182.248 225.143 182.808 224.857C181.407 223.286 180.707 221.429 181.127 220.143C181.267 219.571 181.827 218.571 183.508 218.571H183.789C185.47 218.571 186.59 219.429 187.011 220.714C187.011 222.571 186.03 224.286 184.489 225.429ZM183.508 219.857H183.368C182.528 219.857 182.108 220.143 181.968 220.714C181.687 221.571 182.248 223.286 183.648 224.714C185.329 223.714 185.89 222.286 185.75 221.286C185.47 220.429 184.629 219.857 183.508 219.857ZM190.232 219.571C189.952 219.571 189.672 219.714 189.532 219.857C189.392 220.143 189.392 220.714 189.672 221.143C189.952 221.571 190.793 222.857 193.174 222.857C193.595 222.857 193.875 222.857 194.295 222.714C193.735 221.286 192.194 220 190.793 219.571C190.513 219.571 190.373 219.571 190.232 219.571ZM196.116 210.714C194.855 210.714 194.295 211.143 194.295 211.429C194.295 211.714 195.135 212.429 197.657 212.429H197.937C198.778 212.429 199.478 212.286 200.038 212.143C199.758 212 199.478 211.714 199.198 211.571C197.937 210.857 196.816 210.714 196.116 210.714ZM178.886 212.143C179.166 212.286 179.586 212.286 179.726 212.286C180.427 212.286 180.707 211.714 180.707 211.286C180.707 210.143 179.866 208.714 178.185 208.286C178.465 210.143 178.746 211.571 178.886 212.143ZM188.131 201.143C187.151 202.143 186.59 203.286 186.73 204.143C186.87 204.857 187.431 205.429 188.271 205.714C189.812 206.286 190.793 206.143 191.073 205.286C191.353 204.143 190.232 202.286 188.131 201.143Z" fill="#26192A"/>
<path d="M45.1424 28.1998C45.1424 28.1998 48.1031 7.53717 67.4183 8.24479C79.1201 8.66936 75.3135 26.2184 70.097 21.6896C64.8805 17.1608 79.9661 -8.03055 96.6025 4.42362C111.97 15.8871 103.652 23.2464 99.8452 21.8312C96.0385 20.4159 102.806 -0.529741 116.623 2.15923C136.22 6.12192 134.81 26.2184 126.21 28.0582C117.609 29.8981 131.144 5.69735 145.666 12.6321C160.187 19.5668 158.918 34.8514 151.305 36.1252C143.692 37.3989 156.099 12.2075 170.902 23.954C185.706 35.7006 184.296 59.1937 170.902 61.0335C157.509 62.8733 160.469 49.57 174.85 56.7878C189.231 64.0055 183.168 88.0647 167.66 88.3478C152.151 88.6308 158.918 75.8936 167.942 83.5359C176.965 91.1783 181.053 112.832 162.443 115.804C143.833 118.776 146.512 100.943 156.522 109.293C166.532 117.643 162.443 135.475 140.026 139.721C117.609 143.825 130.016 118.776 133.823 125.993C137.63 133.211 125.787 143.967 110.983 143.118C96.1795 142.269 99.5632 123.304 104.357 125.993C109.291 128.682 112.957 148.354 91.8089 143.118C70.6609 137.881 66.1494 121.04 73.3397 123.163C80.671 125.286 83.9137 143.401 64.7395 139.721C45.5653 136.042 40.2078 107.312 50.6408 107.737C61.0738 108.161 54.4475 129.956 42.3227 125.427C30.1979 120.898 23.9944 101.227 36.6832 94.9994C49.372 88.7723 34.2865 113.539 23.5715 100.802C12.8565 88.0647 25.2633 64.7131 33.2995 71.2233C41.1948 77.8749 21.8796 81.5546 19.4829 69.808C17.0861 58.0615 23.8534 39.6633 34.4274 42.4938C45.0014 45.3243 43.3096 49.9946 38.3751 51.6929C30.4798 54.6649 28.224 31.0303 35.9783 23.8125C45.1424 15.4626 57.1262 19.5668 54.8704 27.9167C52.6147 36.2667 43.1686 32.304 45.1424 28.1998Z" fill="#FFFAF0"/>
<path d="M98.515 144C96.5437 144 94.4316 143.717 92.038 143.152C86.6874 141.88 82.1816 139.761 78.3799 136.934C77.1127 138.489 74.5782 140.326 69.9317 140.326C68.5236 140.326 66.834 140.184 65.1444 139.902C57.9634 138.489 51.9088 133.543 48.2479 126.053C46.4174 126.477 44.5869 126.336 42.7565 125.629C34.8715 122.661 28.9577 112.911 29.9433 104.573C27.6905 104.149 25.7192 102.877 23.8888 100.758C17.6934 93.4092 18.8198 82.528 23.0439 75.3209C21.2134 73.9077 20.087 71.9293 19.5238 69.527C17.9749 62.0373 19.9462 52.4279 24.3112 46.4926C26.4232 43.6663 28.8169 41.8292 31.4921 41.4053C30.9289 35.1874 32.1962 26.9912 36.4203 23.1757C39.7996 20.0667 43.7421 18.371 47.5439 18.371C47.8255 18.371 47.9663 18.371 48.2479 18.371C51.2048 13.001 56.9777 6.92444 67.8196 7.20707C69.7909 7.20707 71.3397 7.77233 72.7478 8.76153C76.6903 3.25025 82.1817 0 87.6731 0C91.0524 0 94.2908 1.13052 97.3885 3.53288C99.5006 5.08734 101.19 6.6418 102.598 8.19627C104.57 5.22865 108.653 0.989205 114.567 0.989205C115.411 0.989205 116.256 1.13052 117.101 1.27184C124.845 2.8263 130.337 7.06575 132.308 13.1423C136.814 10.1747 141.742 9.60942 146.248 11.7291C151.176 14.1315 154.837 17.6644 156.667 21.9038C161.454 18.9362 166.805 19.3602 171.592 23.1757C177.929 28.263 182.012 36.0353 182.434 43.949C182.716 49.4603 181.167 54.4063 178.21 57.5152C182.716 61.0481 184.828 66.9833 183.702 73.3425C182.575 79.9843 178.351 85.4956 172.719 87.474C175.957 92.844 177.929 100.899 175.112 107.258C173 111.921 168.917 114.748 163.003 115.737C162.722 115.737 162.581 115.878 162.299 115.878C163.285 119.835 162.722 124.075 160.328 127.749C156.808 133.684 149.768 137.782 140.615 139.478C138.926 139.761 137.377 139.902 135.969 139.902C133.012 139.902 130.759 139.195 129.21 137.923C124.845 141.032 119.072 142.869 113.159 142.869C112.595 142.869 112.032 142.869 111.469 142.869C109.498 142.728 107.667 142.304 106.118 141.456C104.147 143.293 101.613 144 98.515 144ZM78.9432 136.086C82.6041 138.771 87.1098 140.891 92.3196 142.163C97.9518 143.576 102.317 143.293 104.992 141.315C100.205 138.206 99.6414 132.13 100.486 128.597C101.049 126.194 102.317 124.781 103.866 124.781C104.288 124.781 104.71 124.922 105.133 125.064C107.104 126.053 108.653 129.303 109.075 132.695C109.357 134.673 109.357 138.206 106.822 140.891C108.09 141.456 109.638 141.88 111.469 142.022C112.032 142.022 112.595 142.022 113.159 142.022C118.65 142.022 124.141 140.326 128.365 137.358C126.253 134.815 126.676 130.999 127.802 128.314C128.788 125.912 130.618 123.651 132.449 123.651C133.153 123.651 133.998 123.933 134.702 125.205C136.673 128.879 134.842 133.684 130.055 137.499C131.463 138.63 133.434 139.054 135.969 139.054C137.377 139.054 138.785 138.913 140.475 138.63C149.345 136.934 156.104 132.977 159.483 127.325C161.595 123.792 162.299 119.694 161.173 116.02C160.328 116.161 159.624 116.161 158.92 116.161C152.443 116.161 150.049 113.193 149.345 112.063C148.5 110.65 148.36 108.954 149.064 107.682C149.627 106.693 150.753 105.986 152.021 105.986C153.569 105.986 155.4 106.834 157.23 108.389C159.342 110.226 160.891 112.345 161.877 114.889C162.159 114.889 162.44 114.748 162.722 114.748C168.213 113.9 172.156 111.215 174.127 106.834C176.802 100.758 174.972 92.9853 171.733 87.7566C170.607 88.0392 169.339 88.3219 168.072 88.3219H167.509C161.454 88.3219 159.483 86.3435 158.779 85.2129C158.216 84.2237 158.216 83.0932 158.779 82.104C159.483 80.8322 161.032 80.1256 162.722 80.1256C164.13 80.1256 166.242 80.5496 168.635 82.6693C169.903 83.7998 171.029 85.0716 172.156 86.6261C177.506 84.789 181.589 79.5603 182.575 73.2012C183.561 67.1246 181.589 61.6133 177.365 58.2218C175.676 59.7762 173.564 60.7654 171.311 61.0481C166.946 61.6133 163.707 60.7655 162.44 58.6457C161.877 57.6565 161.877 56.6673 162.44 55.8194C163.285 54.4063 165.115 53.5584 167.509 53.5584C169.762 53.5584 172.578 54.265 175.535 55.8194C176.239 56.1021 176.802 56.526 177.365 56.9499C180.181 53.9823 181.589 49.3189 181.308 44.0903C180.885 36.318 177.084 28.8283 170.888 24.0236C166.383 20.3494 161.454 20.0667 156.949 22.893C158.075 26.4259 157.934 30.1001 156.385 32.6438C155.259 34.4809 153.71 35.7527 151.739 36.1766C151.457 36.1766 151.317 36.1766 151.035 36.1766C149.909 36.1766 149.204 35.6114 148.923 34.6222C148.078 31.9372 151.035 25.8606 155.681 22.4691C154.133 18.371 150.613 14.8381 145.825 12.577C141.601 10.5986 136.955 11.1639 132.73 14.1315C133.716 17.8057 133.294 21.6212 131.604 24.4475C130.478 26.4259 128.788 27.6977 126.817 28.1217C125.127 28.5456 124.001 27.9804 123.578 26.7085C122.733 24.0236 125.972 17.6644 131.463 13.7076C129.633 7.91364 124.423 3.67419 116.96 2.26104C116.115 2.11972 115.411 1.97841 114.567 1.97841C108.934 1.97841 105.133 6.21786 103.302 8.90285C107.245 13.7076 106.682 17.0991 105.837 18.7949C104.992 20.632 103.021 22.0451 101.19 22.0451C100.768 22.0451 100.345 22.0451 100.064 21.9038C99.6414 21.7625 99.219 21.4799 98.9374 20.632C98.0926 18.2296 99.5006 13.2836 102.035 9.18547C100.627 7.63101 98.9373 6.07655 96.6845 4.38076C93.7276 2.11972 90.6299 1.13052 87.5322 1.13052C82.4633 1.13052 77.2535 4.23945 73.4518 9.60942C76.1271 12.2944 76.4087 16.6752 75.2823 19.6428C74.5783 21.4799 73.4518 22.6104 72.0437 22.6104C71.3397 22.6104 70.6357 22.3278 70.0725 21.7625C67.8197 19.7841 68.6644 14.8381 72.0437 9.75074C70.9173 8.90285 69.5093 8.4789 67.6788 8.33759C57.6817 7.91364 52.1904 13.5662 49.2335 18.5123C51.768 18.9362 53.88 20.0667 55.1472 21.7625C56.2737 23.4583 56.5553 25.4367 55.9921 27.6977C54.7249 32.3611 51.3456 32.9264 49.9376 32.9264C47.9663 32.9264 45.995 31.9372 45.1502 30.524C44.587 29.5348 44.4462 28.5456 45.0094 27.5564C45.1502 26.9912 45.7134 23.4583 47.6846 19.3602H47.5439C43.883 19.3602 40.222 20.9146 37.1243 23.8822C33.1818 27.5564 32.0553 35.3288 32.6186 41.264C33.4634 41.264 34.4491 41.264 35.2939 41.5466C41.9117 43.2424 43.4605 45.6447 43.4605 47.3405C43.6013 49.1776 41.9117 50.8734 39.2364 51.8626C38.6732 52.0039 38.2508 52.1452 37.6876 52.1452C34.5899 52.1452 32.337 48.471 31.4921 42.5358C29.0985 42.9598 26.9864 44.5142 25.0152 47.1992C21.0727 52.7105 19.1014 62.3199 20.5094 69.3857C20.9319 71.5054 21.9174 73.2012 23.4663 74.473C25.5784 71.2228 28.2537 69.2444 30.7881 69.2444C31.9146 69.2444 33.041 69.6683 34.1675 70.5162C36.4203 72.3533 36.4203 73.9077 36.1387 74.7556C35.5755 76.4514 33.041 77.5819 30.0841 77.5819C27.8312 77.5819 25.7192 77.0167 23.8888 75.8862C19.8055 82.8106 18.8198 93.1266 24.5928 100.051C26.1416 102.029 27.9721 103.16 29.9433 103.443C30.6474 99.2031 33.1818 96.0942 36.9835 94.1158C38.3916 93.4092 39.6588 92.9853 40.5037 92.9853C41.7709 92.9853 42.6157 93.6918 42.6157 94.9637C42.6157 98.0726 37.4059 104.573 31.2105 104.573C31.0697 104.573 30.9289 104.573 30.7881 104.573C29.9433 112.487 35.4347 121.814 42.8973 124.499C44.4462 125.064 46.1358 125.205 47.6846 124.922C45.0094 118.846 44.5869 112.345 46.699 109.095C47.6846 107.541 49.0927 106.834 50.7823 106.834H51.064C54.1617 106.975 56.1329 108.954 56.5553 112.204C57.1185 117.009 54.1616 123.651 49.0927 125.629C52.6128 132.695 58.3858 137.499 65.1444 138.771C70.9174 139.902 75.2823 139.054 77.3944 136.369C71.6214 131.847 69.2277 126.477 70.0725 123.792C70.4949 122.379 71.903 121.814 73.7334 122.237C75.9863 122.944 78.0983 125.064 79.084 128.031C80.3512 130.858 80.2104 133.825 78.9432 136.086ZM103.866 125.77C102.88 125.77 102.035 126.901 101.472 128.879C100.627 132.13 101.19 137.782 105.837 140.608C108.23 138.206 108.23 134.815 107.949 132.977C107.526 129.868 106.118 126.901 104.57 126.053C104.288 125.912 104.006 125.77 103.866 125.77ZM132.308 124.781C131.182 124.781 129.633 126.477 128.647 128.879C127.661 131.423 127.239 134.673 129.069 136.934C133.575 133.401 135.265 129.162 133.575 125.912C133.294 125.205 132.871 124.781 132.308 124.781ZM72.607 123.085C71.903 123.085 71.3398 123.368 71.199 124.075C70.4949 126.053 72.3254 130.858 78.0984 135.521C79.2248 133.543 79.2248 130.999 78.3799 128.455C77.3943 125.912 75.7047 123.933 73.7334 123.368C73.311 123.085 72.8886 123.085 72.607 123.085ZM50.7823 107.965C49.3743 107.965 48.2479 108.53 47.5439 109.802C45.5726 112.911 46.1358 118.987 48.6703 124.781C53.3168 122.944 56.1329 117.009 55.5697 112.487C55.4289 110.932 54.4433 108.106 51.064 107.965H50.7823ZM152.021 107.258C151.035 107.258 150.331 107.682 149.909 108.389C149.345 109.236 149.486 110.508 150.19 111.639C150.753 112.769 152.865 115.313 158.779 115.313C159.342 115.313 160.046 115.313 160.75 115.172C159.906 112.911 158.498 110.932 156.526 109.378C154.414 107.682 152.865 107.258 152.021 107.258ZM30.929 103.584C31.0698 103.584 31.0697 103.584 31.2105 103.584C36.5611 103.584 41.4893 97.79 41.4893 95.105C41.4893 94.5397 41.2077 94.2571 40.5037 94.2571C39.9404 94.2571 39.0956 94.3984 37.4059 95.2463C33.8858 96.9421 31.633 99.7684 30.929 103.584ZM162.581 81.3974C161.173 81.3974 160.046 81.9627 159.483 82.9519C159.061 83.6585 159.061 84.3651 159.483 85.0716C159.906 85.9195 161.595 87.6153 167.368 87.6153H167.931C168.917 87.6153 170.044 87.474 171.029 87.1914C170.044 85.7782 169.058 84.6477 167.931 83.6585C165.679 81.8214 163.848 81.3974 162.581 81.3974ZM24.4519 75.0383C26.0008 76.0275 27.972 76.5927 30.0841 76.5927C32.6186 76.5927 34.7307 75.7448 35.1531 74.473C35.5755 73.3425 34.449 72.212 33.6042 71.3641C32.7594 70.6575 31.9146 70.3749 30.929 70.3749C28.8169 70.2336 26.4232 72.0706 24.4519 75.0383ZM167.368 54.9715C165.397 54.9715 163.848 55.5368 163.285 56.6673C163.003 57.2326 163.003 57.9391 163.285 58.5044C164.271 60.2002 167.227 60.9068 171.029 60.3415C173 60.0589 174.831 59.211 176.38 57.9392C175.957 57.6565 175.394 57.3739 174.831 57.0913C172.156 55.6781 169.48 54.9715 167.368 54.9715ZM32.6186 42.3945C33.3226 47.7645 35.2939 51.156 37.6876 51.156C38.11 51.156 38.3916 51.0147 38.814 50.8734C41.0669 50.0255 42.3341 48.7537 42.3341 47.3405C42.1933 45.5034 39.518 43.8077 34.8715 42.5358C34.1675 42.5358 33.3226 42.3945 32.6186 42.3945ZM155.963 23.7409C151.598 27.1325 149.205 32.5025 149.909 34.6222C150.049 35.1874 150.472 35.4701 151.035 35.4701C151.176 35.4701 151.317 35.4701 151.457 35.4701C153.147 35.1874 154.555 34.1982 155.4 32.5025C156.667 30.1001 156.949 26.8499 155.963 23.7409ZM48.811 19.6428C46.5582 23.8822 45.995 27.9804 45.995 27.9804V28.1217C45.5726 28.9696 45.8542 29.6762 46.1358 30.1001C46.8398 31.2306 48.3887 32.0785 50.0783 32.0785C52.472 32.0785 54.3024 30.524 55.1472 27.6977C55.7105 25.8606 55.4288 24.1649 54.4432 22.7517C53.176 20.9146 51.2047 19.9254 48.811 19.6428ZM131.604 14.9794C126.535 18.7949 123.86 24.5888 124.423 26.5672C124.564 26.8499 124.705 27.2738 125.549 27.2738C125.831 27.2738 125.972 27.2738 126.253 27.1325C127.943 26.7085 129.351 25.7193 130.337 24.0236C132.026 21.6212 132.449 18.371 131.604 14.9794ZM72.7478 10.4573C69.9317 14.8381 68.946 19.5015 70.6357 20.9146C71.0581 21.3386 71.4806 21.4799 71.903 21.4799C72.7478 21.4799 73.5926 20.632 74.1558 19.2188C75.2822 16.6752 75.0006 12.8597 72.7478 10.4573ZM102.598 10.1747C100.064 14.2728 99.219 18.6536 99.7822 20.3494C99.923 20.7733 100.064 20.9146 100.345 21.0559C101.613 21.4799 103.866 20.7733 104.851 18.6536C105.414 17.2404 105.978 14.4141 102.598 10.1747Z" fill="#26192A"/>
<path d="M93.9383 122.731C132.405 127.684 153.336 62.8686 148.245 38.1028C143.154 13.337 128.87 58.9061 128.87 58.9061L78.099 48.7167C78.099 48.7167 80.3618 21.1205 71.8764 23.1018C63.391 25.0831 33.5507 114.806 93.9383 122.731Z" fill="#FCB82E"/>
<path d="M103.714 92C103.571 92 103.571 92 103.714 92L85.4286 88.4443C85.1428 88.4443 85 88.1598 85 87.8753L89.1428 51.4645C89.1428 51.1801 89.4286 50.8956 89.7143 51.0378C90 51.0378 90.2857 51.3223 90.1428 51.6068L86.1428 87.5909L103.286 90.8622L111.857 55.0203C111.857 54.7358 112.143 54.5936 112.571 54.5936C112.857 54.5936 113 55.0203 113 55.3047L104.286 91.7155C104.143 91.8578 103.857 92 103.714 92Z" fill="#26192A"/>
<path d="M83 87L107 90.9338C107 90.9338 102.422 101.424 93.1272 100.987C85.0809 100.55 83 87 83 87Z" fill="#26192A"/>
<path d="M75.2679 80C75.1259 80 74.8417 80 74.5575 79.7091C72.7104 78.1094 72.1421 69.3836 72 67.6384C72 67.3476 72.1421 67.0567 72.5684 67.0567C72.8525 67.0567 73.1367 67.2021 73.1367 67.6384C73.5629 73.6011 74.5576 78.8366 75.4101 78.982C76.2626 78.8366 77.3993 73.0193 77.9676 66.475C77.9676 66.1841 78.2517 65.8933 78.5359 66.0387C78.8201 66.0387 79.1043 66.3295 78.9622 66.6204C78.678 70.4016 77.6834 79.7091 75.2679 80C75.41 80 75.2679 80 75.2679 80Z" fill="#26192A"/>
<path d="M116.613 88C116.331 88 116.049 87.856 115.908 87.712C114.357 86.1278 115.203 77.1986 115.485 75.4704C115.485 75.1823 115.766 74.8943 116.049 75.0383C116.331 75.0383 116.612 75.3263 116.471 75.6144C115.907 81.3751 115.908 86.5598 116.613 86.9919C117.6 86.8479 120.702 81.2311 122.958 75.9024C123.099 75.6144 123.381 75.4704 123.663 75.6144C123.945 75.7584 124.086 76.0464 123.945 76.3345C122.817 79.0708 118.869 87.856 116.613 88C116.754 88 116.613 88 116.613 88Z" fill="#26192A"/>
<path d="M91.7945 113C91.6475 113 91.6474 113 91.5004 113C89.2942 112.577 89 105.526 89 102.564C89 102.282 89.2942 102.141 89.5884 102C89.8825 102 90.1766 102.282 90.1766 102.564C90.1766 107.359 90.912 111.872 91.6474 112.013C91.7945 112.013 92.9712 112.013 95.9127 103.974C96.0598 103.692 96.354 103.551 96.6481 103.692C96.9423 103.833 97.0894 104.115 96.9423 104.397C94.2949 111.731 92.8241 113 91.7945 113Z" fill="#26192A"/>
<path d="M75.4509 90C75.4509 90 75.3137 89.84 75.4509 90L62.4117 87.12C62.1372 87.12 62 86.8 62 86.48C62 86.16 62.2745 86 62.549 86L75.5882 88.88C75.8627 88.88 76 89.2 76 89.52C75.8627 89.68 75.7255 90 75.4509 90Z" fill="#26192A"/>
<path d="M75.4545 93L61.4091 90.0769C61.1363 90.0769 61 89.7692 61 89.4615C61 89.1538 61.2728 89 61.5455 89L75.5909 91.7692C75.8637 91.7692 76 92.0769 76 92.3846C76 92.8462 75.7272 93 75.4545 93Z" fill="#26192A"/>
<path d="M76.4174 97C76.4174 97 76.2718 97 76.4174 97L62.437 94.0323C62.1457 94.0323 62 93.6452 62 93.3871C62 93.129 62.2913 93 62.7282 93L76.563 95.9677C76.8543 95.9677 77 96.3548 77 96.6129C76.8544 96.871 76.7087 97 76.4174 97Z" fill="#26192A"/>
<path d="M122.451 98C122.314 98 122.314 98 122.451 98L109.412 95.12C109.137 95.12 109 94.8 109 94.48C109 94.16 109.275 94 109.549 94L122.588 96.88C122.863 96.88 123 97.2 123 97.52C122.863 97.84 122.588 98 122.451 98Z" fill="#26192A"/>
<path d="M122.455 102L108.409 99.0769C108.136 99.0769 108 98.7692 108 98.4615C108 98.1539 108.273 98 108.545 98L122.591 100.923C122.864 100.923 123 101.231 123 101.538C123 101.846 122.727 102 122.455 102Z" fill="#26192A"/>
<path d="M123.417 106C123.417 106 123.272 106 123.417 106L109.437 103.032C109.146 103.032 109 102.645 109 102.387C109 102.129 109.291 102 109.728 102L123.563 104.968C123.854 104.968 124 105.355 124 105.613C123.854 105.871 123.563 106 123.417 106Z" fill="#26192A"/>
<path d="M71.8008 47C71.6663 47 71.6663 47 71.8008 47C71.3974 46.8588 71.2629 46.5764 71.2629 46.294C73.2799 37.5393 70.0528 30.9026 70.0528 30.7614C69.9183 30.479 70.0527 30.1966 70.3216 30.0554C70.5906 29.9142 70.8595 30.0554 70.994 30.3378C71.1284 30.6202 74.3556 37.3981 72.3386 46.5764C72.2042 46.8588 71.9353 47 71.8008 47Z" fill="#26192A"/>
<path d="M135.574 60C135.574 60 135.43 60 135.574 60C135.287 60 135 59.7241 135 59.4483C136.004 51.0345 142.888 45.3793 143.175 45.1034C143.462 44.9655 143.749 44.9655 143.892 45.1034C144.036 45.3793 144.036 45.6552 143.892 45.7931C143.892 45.7931 137.008 51.4483 136.147 59.4483C136.004 59.8621 135.861 60 135.574 60Z" fill="#26192A"/>
<path d="M150.563 177C150.563 177 150.417 177 150.563 177C149.979 176.835 146.189 176.174 145.168 175.017C145.023 174.852 144.877 174.356 145.168 174.191C145.314 174.026 145.752 173.86 145.897 174.191C146.48 174.852 149.105 175.513 150.563 175.843C150.854 175.843 151 176.174 151 176.504C151 176.835 150.854 177 150.563 177Z" fill="#26192A"/>
<path d="M154.527 174C153.948 173.835 150.181 173.174 149.167 172.017C149.022 171.852 148.878 171.356 149.167 171.191C149.457 171.026 149.747 170.86 149.892 171.191C150.471 171.852 153.078 172.513 154.527 172.843C154.817 172.843 154.961 173.174 154.961 173.504C155.106 173.835 154.817 174 154.527 174Z" fill="#26192A"/>
<path d="M156.958 177C155.99 177 154.884 176.9 154.331 176.7C154.054 176.6 153.916 176.4 154.054 176.2C154.193 176 154.469 176 154.746 176C155.437 176.3 157.926 176.2 159.447 176.1C159.724 176.1 160 176.2 160 176.4C160 176.6 159.862 176.8 159.585 176.8C159.447 176.9 158.203 177 156.958 177Z" fill="#26192A"/>
<path d="M161.958 173C160.99 173 159.884 172.9 159.331 172.7C159.054 172.6 158.916 172.4 159.054 172.2C159.193 172 159.469 172 159.746 172C160.437 172.3 162.926 172.2 164.447 172.1C164.723 172.1 165 172.2 165 172.4C165 172.6 164.862 172.8 164.585 172.8C164.309 172.9 163.202 173 161.958 173Z" fill="#26192A"/>
<path d="M166.958 177C165.99 177 164.884 176.9 164.331 176.7C164.054 176.6 163.916 176.4 164.054 176.2C164.193 176 164.469 176 164.746 176C165.437 176.3 167.926 176.2 169.447 176.1C169.723 176.1 170 176.2 170 176.4C170 176.6 169.862 176.8 169.585 176.8C169.309 176.9 168.064 177 166.958 177Z" fill="#26192A"/>
<path d="M169.958 173C168.99 173 167.884 172.9 167.331 172.7C167.054 172.6 166.916 172.4 167.054 172.2C167.193 172 167.469 172 167.746 172C168.437 172.3 170.926 172.2 172.447 172.1C172.723 172.1 173 172.2 173 172.4C173 172.6 172.862 172.8 172.585 172.8C172.309 172.9 171.202 173 169.958 173Z" fill="#26192A"/>
<path d="M174.106 176C173.83 176 173.553 176 173.415 175.87C173.138 175.74 173 175.48 173 175.22C173.138 174.961 173.415 174.831 173.691 174.831C174.521 175.09 176.872 174.441 178.254 174.051C178.531 173.921 178.807 174.051 178.946 174.311C179.084 174.571 178.946 174.831 178.669 174.961C178.254 175.22 175.627 176 174.106 176Z" fill="#26192A"/>
<path d="M74.5858 188C74.2929 188 74 187.725 74 187.45C74 187.038 74.1465 183.465 75.0251 182.228C75.1716 181.953 75.6109 181.953 75.7574 182.09C76.0503 182.228 76.0502 182.64 75.9038 182.777C75.318 183.465 75.1716 185.938 75.0251 187.313C75.0251 187.725 74.8787 188 74.5858 188Z" fill="#26192A"/>
<path d="M80.5857 190C80.2928 190 80 189.725 80 189.45C80 189.038 80.1465 185.465 81.0251 184.228C81.1716 183.953 81.6109 183.953 81.7574 184.09C82.0503 184.228 82.0502 184.64 81.9038 184.777C81.318 185.465 81.1716 187.938 81.0251 189.313C81.0251 189.863 80.8786 190 80.5857 190Z" fill="#26192A"/>
<path d="M77.5858 180C77.2929 180 77 179.725 77 179.45C77 179.038 77.1465 175.465 78.0251 174.228C78.1716 173.953 78.6109 173.953 78.7573 174.09C79.0502 174.228 79.0503 174.64 78.9038 174.777C78.3181 175.465 78.1716 177.938 78.0251 179.313C78.1716 179.725 77.8787 180 77.5858 180Z" fill="#26192A"/>
<path d="M26.4928 173C26.3541 173 26.3541 173 26.2154 173C25.7993 172.864 22.6092 171.095 22.0544 169.734C21.9157 169.462 22.0544 169.189 22.3318 169.053C22.6092 168.917 22.8866 169.053 23.0253 169.326C23.4414 170.006 25.5219 171.367 26.7702 172.047C27.0476 172.183 27.0476 172.456 26.9089 172.728C26.9089 172.864 26.6315 173 26.4928 173Z" fill="#26192A"/>
<path d="M17.4299 167C17.274 167 17.1181 167 16.9622 166.868C16.6504 166.605 14.1559 163.842 14 162.526C14 162.263 14.156 162 14.4678 162C14.7796 162 15.0913 162.132 15.0913 162.395C15.0913 163.184 16.8063 165.158 17.8976 166.211C18.0535 166.474 18.0535 166.737 17.7417 166.868C17.7417 167 17.5858 167 17.4299 167Z" fill="#26192A"/>
<path d="M24.4783 167C24.3357 167 24.3357 167 24.193 166.873C23.765 166.618 20.6266 164.834 20.056 163.687C19.9133 163.432 20.056 163.177 20.3413 163.05C20.6266 162.923 20.9119 163.05 21.0546 163.305C21.3399 163.942 23.4798 165.344 24.7637 166.108C25.049 166.235 25.0489 166.49 24.9063 166.745C24.9063 166.873 24.7636 167 24.4783 167Z" fill="#26192A"/>
<path d="M32.5434 169C32.124 169 28.4896 168.727 27.2316 167.908C26.952 167.772 26.952 167.363 27.0918 167.226C27.2316 166.953 27.651 166.953 27.7908 167.09C28.4897 167.635 31.0058 167.908 32.4037 167.908C32.6832 167.908 32.9628 168.181 32.9628 168.454C33.1026 168.727 32.823 169 32.5434 169Z" fill="#26192A"/>
<path d="M42.5435 170C42.1241 170 38.4897 169.727 37.2316 168.908C36.952 168.772 36.952 168.363 37.0918 168.226C37.2316 167.953 37.651 167.953 37.7908 168.09C38.4897 168.635 41.0059 168.908 42.4037 168.908C42.6833 168.908 42.9628 169.181 42.9628 169.454C43.1026 169.727 42.823 170 42.5435 170Z" fill="#26192A"/>
<path d="M16.2954 160C16.1442 160 15.9929 160 15.9929 159.855C15.6903 159.564 12.5132 157.238 12.0593 155.784C11.9081 155.493 12.0594 155.202 12.3619 155.057C12.6645 154.912 12.9671 155.057 13.1184 155.348C13.421 156.22 15.539 157.965 16.7493 158.837C17.0519 158.982 17.0519 159.418 16.9006 159.564C16.5981 160 16.4467 160 16.2954 160Z" fill="#26192A"/>
<path d="M33.4049 172C32.5752 172 31.7456 171.894 31.3308 171.787C31.0543 171.681 30.916 171.468 31.0542 171.255C31.1925 171.042 31.4691 170.935 31.7456 171.042C32.437 171.361 35.0642 171.148 36.4469 171.042C36.7234 171.042 37 171.148 37 171.361C37 171.574 36.8617 171.787 36.5851 171.787C36.4468 171.787 34.9259 172 33.4049 172Z" fill="#26192A"/>
<path d="M77.3527 197C77.0291 197 76.8673 196.862 76.7055 196.585C76.5437 196.17 75.5728 192.714 76.22 191.331C76.3818 191.054 76.7055 190.916 77.0291 191.054C77.3527 191.193 77.5145 191.469 77.3527 191.746C77.0291 192.575 77.5146 195.064 78 196.447C78 196.585 77.8382 196.862 77.3527 197C77.5145 197 77.3527 197 77.3527 197Z" fill="#26192A"/>
<path d="M81.3527 200C81.0291 200 80.8673 199.862 80.7055 199.585C80.5437 199.17 79.5728 195.714 80.22 194.331C80.3819 194.054 80.7055 193.916 81.0291 194.054C81.3528 194.193 81.5145 194.469 81.3527 194.746C81.0291 195.575 81.5145 198.064 82 199.447C82 199.585 81.8381 199.862 81.3527 200C81.5145 200 81.3527 200 81.3527 200Z" fill="#26192A"/>
<path d="M85.3528 214C85.0292 214 84.8673 213.862 84.7055 213.585C84.5437 213.17 83.5728 209.714 84.22 208.331C84.3819 208.054 84.7055 207.916 85.0291 208.054C85.3528 208.193 85.5146 208.469 85.3528 208.746C85.0292 209.575 85.5145 212.064 86 213.447C86 213.723 85.8382 214 85.3528 214Z" fill="#26192A"/>
<path d="M85.4468 229C85.2955 229 85.1442 229 85.1442 228.85C84.8416 228.551 81.5132 226.305 81.0593 224.807C80.9081 224.508 81.0594 224.208 81.3619 224.059C81.6645 223.909 81.9671 224.059 82.1184 224.358C82.421 225.257 84.539 226.904 85.7493 227.802C86.0519 227.952 86.0519 228.401 85.9006 228.551C85.7494 228.85 85.5981 229 85.4468 229Z" fill="#26192A"/>
<path d="M90.2928 226C90.1409 226 89.9891 226 89.9891 225.854C89.6853 225.562 86.496 223.228 86.0404 221.768C85.8885 221.477 86.1923 221.185 86.4961 221.039C86.7998 220.893 87.1035 221.185 87.2554 221.477C87.5592 222.352 89.5334 224.103 90.7484 225.124C91.0521 225.27 91.0521 225.708 90.9002 225.854C90.5965 225.854 90.4447 226 90.2928 226Z" fill="#26192A"/>
<path d="M77.3528 207C77.0292 207 76.8673 206.862 76.7055 206.585C76.5437 206.17 75.5728 202.714 76.22 201.331C76.3819 201.054 76.7055 200.916 77.0291 201.054C77.3528 201.193 77.5146 201.469 77.3528 201.746C77.0292 202.575 77.5145 205.064 78 206.447C78 206.723 77.6764 207 77.3528 207Z" fill="#26192A"/>
<path d="M82.3527 208C82.0291 208 81.8673 207.862 81.7055 207.585C81.5437 207.17 80.5728 203.714 81.22 202.331C81.3818 202.054 81.7055 201.916 82.0291 202.054C82.3527 202.193 82.5145 202.469 82.3527 202.746C82.0291 203.575 82.5146 206.064 83 207.447C83 207.723 82.8382 208 82.3527 208C82.5145 208 82.3527 208 82.3527 208Z" fill="#26192A"/>
<path d="M82.4493 221C82.324 221 82.0732 220.857 82.0732 220.714C81.9478 220.286 80.694 216.857 81.0701 215.429C81.0701 215.143 81.3209 215 81.5717 215C81.8224 215 81.9478 215.286 81.9478 215.571C81.8224 216.429 82.4493 218.857 82.9508 220.286C83.0762 220.571 82.9509 220.857 82.7001 221C82.5747 221 82.4493 221 82.4493 221Z" fill="#26192A"/>
<path d="M77.6149 217C77.5013 217 77.2743 216.857 77.2743 216.714C77.1608 216.286 75.7984 213 76.0255 211.429C76.0255 211.143 76.2525 211 76.4796 211C76.7066 211 76.8201 211.286 76.8201 211.571C76.7066 212.429 77.5013 214.857 77.9555 216.143C78.069 216.429 77.9555 216.714 77.7284 216.857C77.7284 216.857 77.7284 217 77.6149 217Z" fill="#26192A"/>
<path d="M192.6 313.859C190.629 313.859 188.517 313.718 186.406 313.294C186.124 313.294 185.984 313.012 185.984 312.73C185.984 312.448 186.265 312.307 186.547 312.307C188.517 312.73 190.629 312.871 192.459 312.871C192.74 312.871 193.163 312.871 193.444 312.871C193.726 312.871 194.007 313.153 194.007 313.436C194.007 313.718 193.726 314 193.444 314C193.303 313.859 192.881 313.859 192.6 313.859ZM200.483 312.73C200.201 312.73 200.06 312.589 199.92 312.307C199.779 312.024 200.06 311.742 200.342 311.601C202.453 310.895 204.565 310.049 206.676 308.92C206.958 308.779 207.239 308.92 207.38 309.061C207.521 309.343 207.38 309.625 207.24 309.766C205.128 311.036 202.876 311.883 200.623 312.589C200.623 312.73 200.623 312.73 200.483 312.73ZM179.79 311.319H179.649C177.537 310.472 175.426 309.484 173.174 308.214C172.892 308.073 172.892 307.791 173.033 307.509C173.174 307.226 173.455 307.226 173.737 307.367C175.848 308.496 177.96 309.625 180.071 310.331C180.353 310.472 180.494 310.754 180.353 311.036C180.212 311.178 180.071 311.319 179.79 311.319ZM212.729 305.674C212.589 305.674 212.448 305.674 212.307 305.533C212.166 305.251 212.026 304.968 212.307 304.827L212.448 304.686C213.996 303.275 215.545 301.44 216.671 299.465C216.812 299.182 217.093 299.182 217.375 299.324C217.656 299.465 217.656 299.747 217.516 300.029C216.249 302.146 214.7 303.981 213.011 305.533C213.011 305.674 212.87 305.674 212.729 305.674ZM167.543 304.404C167.402 304.404 167.261 304.404 167.261 304.263C165.431 302.852 163.461 301.44 161.771 299.888C161.49 299.747 161.49 299.324 161.771 299.182C161.912 298.9 162.335 298.9 162.475 299.182C164.305 300.735 166.135 302.146 167.965 303.557C168.247 303.698 168.247 304.122 168.106 304.263C167.824 304.404 167.684 304.404 167.543 304.404ZM156.985 295.09C156.845 295.09 156.704 295.09 156.563 294.949L156.141 294.384C156 294.243 156 294.102 156 293.961C156 293.679 156.282 293.397 156.563 293.397C156.704 293.397 156.845 293.538 156.985 293.679L157.408 294.102C157.548 294.384 157.548 294.667 157.408 294.808C157.126 295.09 157.126 295.09 156.985 295.09ZM220.049 293.961H219.909C219.627 293.82 219.486 293.538 219.627 293.255C220.331 291.28 220.894 288.881 221.316 286.482C221.316 286.2 221.598 286.058 221.879 286.058C222.161 286.058 222.302 286.341 222.302 286.623C221.879 289.163 221.175 291.421 220.472 293.538C220.472 293.82 220.19 293.961 220.049 293.961ZM222.724 280.131C222.442 280.131 222.161 279.849 222.161 279.567C222.442 277.309 222.583 275.051 222.583 272.511C222.583 272.229 222.865 271.946 223.146 271.946C223.428 271.946 223.709 272.229 223.709 272.511C223.569 275.051 223.428 277.309 223.287 279.567C223.287 279.849 223.006 280.131 222.724 280.131ZM223.287 266.019C223.005 266.019 222.724 265.737 222.724 265.455C222.724 263.197 222.583 260.798 222.442 258.399C222.442 258.117 222.583 257.835 223.005 257.835C223.287 257.835 223.569 257.976 223.569 258.399C223.709 260.798 223.709 263.197 223.85 265.455C223.85 265.737 223.569 266.019 223.287 266.019ZM222.583 251.908C222.302 251.908 222.02 251.766 222.02 251.484C221.879 249.085 221.598 246.827 221.457 244.428C221.457 244.146 221.598 243.864 221.879 243.864C222.161 243.864 222.442 244.005 222.442 244.287C222.724 246.686 222.865 248.944 223.005 251.343C223.146 251.625 222.865 251.908 222.583 251.908ZM221.175 237.796C220.894 237.796 220.612 237.654 220.612 237.372C220.331 234.973 220.049 232.715 219.768 230.316C219.768 230.034 219.909 229.752 220.19 229.752C220.472 229.752 220.753 229.893 220.753 230.175C221.035 232.433 221.316 234.832 221.598 237.231C221.739 237.513 221.457 237.796 221.175 237.796ZM219.486 223.825C219.205 223.825 219.064 223.684 218.923 223.401L218.782 222.696C218.501 220.579 218.219 218.462 217.938 216.346C217.938 216.063 218.079 215.781 218.36 215.781C218.642 215.781 218.923 215.922 218.923 216.204C219.205 218.321 219.486 220.297 219.768 222.555L219.909 223.26C220.049 223.543 219.909 223.825 219.486 223.825ZM217.797 209.854C217.516 209.854 217.234 209.713 217.234 209.431C216.952 207.032 216.671 204.633 216.53 202.375C216.53 202.092 216.671 201.81 216.952 201.81C217.234 201.81 217.516 201.951 217.516 202.234C217.656 204.491 217.938 206.749 218.219 209.29C218.36 209.572 218.079 209.854 217.797 209.854ZM218.36 197.153C218.219 197.153 218.219 197.153 218.36 197.153H218.079C215.686 197.012 213.433 196.165 211.463 194.613C211.181 194.472 211.181 194.049 211.322 193.908C211.462 193.625 211.885 193.625 212.026 193.766C213.856 195.178 215.826 195.883 218.079 196.024H218.219C218.501 196.024 218.782 196.307 218.642 196.589C218.782 196.871 218.501 197.153 218.36 197.153ZM225.258 196.307C224.976 196.307 224.835 196.165 224.695 196.024C224.554 195.742 224.695 195.46 224.976 195.319C227.229 194.472 228.918 193.202 230.185 191.226C230.325 190.944 230.607 190.944 230.888 191.085C231.17 191.226 231.17 191.509 231.029 191.791C229.762 193.766 227.792 195.319 225.258 196.165C225.399 196.307 225.258 196.307 225.258 196.307ZM216.671 195.742C216.389 195.742 216.108 195.46 216.108 195.178C216.108 193.908 215.967 192.637 215.967 191.509C215.967 190.238 215.967 189.109 216.108 188.122C216.108 187.839 216.389 187.557 216.671 187.557C216.952 187.557 217.234 187.839 217.234 188.122C217.234 189.109 217.093 190.238 217.093 191.509C217.093 192.637 217.093 193.908 217.234 195.178C217.093 195.46 216.952 195.742 216.671 195.742ZM207.24 189.392C207.099 189.392 206.817 189.251 206.817 189.109C205.691 187.275 204.706 185.017 203.861 182.618C203.72 182.336 203.861 182.054 204.143 181.912C204.424 181.771 204.706 181.912 204.846 182.195C205.691 184.594 206.676 186.71 207.662 188.545C207.803 188.827 207.662 189.109 207.521 189.251C207.521 189.392 207.38 189.392 207.24 189.392ZM232.437 185.299C232.155 185.299 231.874 185.017 231.874 184.735C231.733 182.336 230.748 180.219 229.34 178.808C229.058 178.667 229.058 178.243 229.34 178.102C229.481 177.82 229.903 177.82 230.044 178.102C231.733 179.654 232.718 182.054 233 184.735C233 185.017 232.718 185.299 232.437 185.299ZM217.938 181.771H217.797C217.516 181.63 217.375 181.348 217.516 181.066C218.079 179.513 219.064 178.384 220.049 177.82C221.035 177.255 222.02 176.832 223.005 176.55C223.287 176.409 223.569 176.691 223.709 176.973C223.85 177.255 223.569 177.538 223.287 177.679C222.442 177.961 221.457 178.243 220.472 178.808C219.627 179.372 218.923 180.219 218.36 181.63C218.36 181.63 218.079 181.771 217.938 181.771ZM202.453 176.127C202.172 176.127 202.031 175.985 201.89 175.703C201.468 173.586 201.046 171.187 200.623 168.647C200.623 168.365 200.764 168.083 201.046 168.083C201.327 168.083 201.609 168.224 201.609 168.506C201.89 170.905 202.313 173.304 202.876 175.421C203.016 175.844 202.876 176.127 202.453 176.127C202.594 176.127 202.453 176.127 202.453 176.127ZM200.483 162.156C200.201 162.156 199.92 162.015 199.92 161.732C199.779 159.474 199.638 157.075 199.497 154.676C199.497 154.394 199.779 154.112 200.06 154.112C200.342 154.112 200.623 154.394 200.623 154.676C200.764 157.075 200.905 159.474 201.046 161.732C201.046 161.873 200.764 162.156 200.483 162.156ZM199.779 148.044C199.497 148.044 199.216 147.903 199.216 147.62C199.216 143.246 199.356 140.564 199.356 140.564C199.356 140.282 199.638 140 199.92 140C200.201 140 200.483 140.282 200.483 140.564C200.483 140.564 200.342 143.387 200.342 147.479C200.342 147.762 200.201 148.044 199.779 148.044Z" fill="#26192A"/>
<path d="M191.516 301C191.387 301 191.387 301 191.516 301C191.129 300.863 191 300.588 191 300.314L193.968 287.412C193.968 287.137 194.226 287 194.613 287C194.871 287 195 287.412 195 287.686L192.032 300.588C191.903 300.863 191.645 301 191.516 301Z" fill="#26192A"/>
<path d="M198.525 296L185.436 293.077C185.145 293.077 185 292.769 185 292.462C185 292.154 185.291 292 185.582 292L198.525 294.923C198.816 294.923 198.961 295.231 198.961 295.538C199.107 295.846 198.816 296 198.525 296Z" fill="#26192A"/>
<path d="M196.382 300C196.242 300 195.961 299.859 195.961 299.719L190.055 288.758C189.915 288.477 190.055 288.196 190.336 288.055C190.618 287.915 190.899 288.055 191.039 288.336L196.945 299.297C197.085 299.578 196.945 299.859 196.664 300C196.523 300 196.523 300 196.382 300Z" fill="#26192A"/>
<path d="M187.52 298C187.378 298 187.236 297.859 187.093 297.718C186.951 297.435 186.951 297.153 187.236 297.012L198.195 290.093C198.48 289.952 198.764 289.952 198.906 290.234C199.049 290.516 199.049 290.799 198.764 290.94L187.805 297.859C187.663 298 187.52 298 187.52 298Z" fill="#26192A"/>
</svg>
