<svg width="322" height="416" viewBox="0 0 322 416" fill="none" xmlns="http://www.w3.org/2000/svg">
<path d="M257.76 333.104C262.074 333.104 266.161 332.012 270.021 330.048C286.368 321.32 290.682 297.098 290.909 296.225C290.909 295.788 290.682 295.352 290.228 295.352C289.774 295.352 289.32 295.57 289.32 296.006C289.32 296.225 284.779 320.447 269.339 328.739C262.528 332.449 254.354 332.449 245.499 328.957C245.045 328.739 244.591 328.957 244.364 329.394C244.137 329.83 244.364 330.267 244.818 330.485C249.132 332.231 253.673 333.104 257.76 333.104Z" fill="#26192A"/>
<path d="M289.544 299.793C289.776 299.793 289.776 299.793 290.007 299.562C290.238 299.562 290.238 299.331 290.238 299.1C290.469 299.1 290.7 299.1 290.931 299.1C291.625 298.638 309.655 290.323 305.957 281.085C305.494 279.93 304.801 279.699 304.107 279.468C302.72 279.237 300.64 280.854 298.791 282.701C299.715 280.161 300.409 277.62 299.715 276.003C299.484 275.31 299.022 274.848 298.328 274.617C297.635 274.386 296.941 274.386 296.248 274.617C294.861 275.31 293.705 277.389 292.781 279.699C292.781 277.158 292.549 275.079 291.394 273.924C290.931 273.232 290.007 273.001 289.313 273.232C288.389 273.462 287.695 273.924 287.233 274.617C286.077 276.234 285.846 278.775 285.846 281.315C284.921 279.468 283.765 278.082 282.61 277.851C282.147 277.62 281.223 277.851 280.529 278.544C277.293 282.008 285.846 295.174 288.389 299.331C289.082 299.562 289.313 299.793 289.544 299.793ZM304.107 281.546C304.338 281.546 304.338 281.546 304.57 282.008C307.575 289.63 290.469 297.714 290.238 297.714C290.007 297.714 290.007 297.945 290.007 297.945C285.152 290.323 280.76 281.546 282.147 279.93C282.378 279.699 282.61 279.699 282.61 279.699C283.765 279.93 285.846 284.318 286.77 288.245C287.002 288.707 287.464 288.938 287.695 288.938C288.157 288.938 288.389 288.476 288.389 288.014C287.926 285.473 287.233 278.544 288.851 276.003C289.082 275.541 289.313 275.541 289.776 275.31C290.007 275.31 290.238 275.31 290.469 275.541C291.856 276.927 291.394 283.856 290.7 287.552C290.7 288.014 290.931 288.476 291.394 288.476C291.856 288.476 292.318 288.245 292.318 287.783C293.243 283.856 295.554 277.389 297.404 276.465C297.635 276.234 297.866 276.465 297.866 276.465C298.097 276.465 298.097 276.696 298.328 276.927C299.022 279.006 296.248 285.242 294.399 288.707C294.168 289.169 294.399 289.63 294.63 289.861C295.092 290.092 295.554 290.092 295.786 289.63C298.791 285.704 302.489 281.546 304.107 281.546Z" fill="#26192A"/>
<path d="M68.9106 244.578C68.9106 244.578 39.5473 274.177 76.029 415.269H116.96L115.18 357.63C115.18 357.63 156.778 371.873 210.388 356.74C210.388 356.74 236.192 392.57 269.56 388.119L288.69 357.63C288.69 357.63 256.88 350.731 248.872 340.049C248.872 340.049 258.66 331.815 259.327 323.359C259.327 323.581 86.2616 216.315 68.9106 244.578Z" fill="#ACDBCF"/>
<path d="M59.3518 327.545C59.3518 327.545 28.9878 188.399 139.14 163.844C290.074 129.998 272.343 324.448 262.369 327.545C238.654 334.846 62.4547 340.597 59.3518 327.545Z" fill="#008EA7"/>
<path d="M237.31 194.234C237.31 194.234 200.157 243.815 270.924 287.862L267.828 306.455C267.828 306.455 203.474 287.862 200.157 247.135C196.397 200.653 229.791 170.993 229.791 170.993L237.31 194.234Z" fill="#FAB217"/>
<path d="M75.9819 193.935C75.9819 193.935 107.785 255.923 53.2972 285.925L55.5212 304.234C55.5212 304.234 110.454 277.101 113.123 236.511C115.569 195.921 83.5435 170.993 83.5435 170.993L75.9819 193.935Z" fill="#FAB217"/>
<path d="M227.166 48.1414C227.166 48.1414 215.391 13.3599 145.184 18.2337C93.6394 21.7784 85.1968 148.498 53.4258 144.511C24.3209 140.745 30.3196 113.052 30.3196 113.052C30.3196 113.052 54.7588 102.861 52.9814 95.9937C48.9822 80.2645 28.32 93.9999 28.32 93.9999C28.32 93.9999 27.2091 64.5353 14.9895 73.1753C6.32465 79.1568 14.9895 99.3168 14.9895 99.3168C14.9895 99.3168 -36.7773 166.443 52.0927 205.877C147.85 248.412 196.062 161.791 196.062 161.791C196.062 161.791 196.062 191.698 266.491 203.218C323.59 212.523 344.253 72.7322 291.819 49.6922C254.938 33.5199 227.166 48.1414 227.166 48.1414Z" fill="#ACDBCF"/>
<path d="M159.891 29.73C159.891 29.73 118.817 -15.263 82.4318 5.45161C46.0462 26.1662 52.5197 94.5468 56.3146 100.783C69.0383 122.389 114.799 112.589 128.862 96.5514C142.926 80.2915 159.891 29.73 159.891 29.73Z" fill="#ACDBCF"/>
<path d="M156.857 95.4897C157.088 95.4897 157.319 95.4897 157.55 95.4897C164.474 94.1326 166.32 76.0381 166.551 74.0025C166.551 73.5501 166.32 73.0978 165.858 73.0978C165.397 73.0978 164.935 73.3239 164.935 73.7763C164.474 78.9785 162.166 92.7755 157.319 93.6803C156.857 93.6803 156.395 93.6803 155.934 93.2279C152.703 90.5137 152.703 76.9429 152.933 71.9669C152.933 71.5145 152.703 71.0621 152.01 71.0621C151.549 71.0621 151.087 71.2883 151.087 71.9669C151.087 74.0025 150.164 90.9661 154.549 94.585C155.472 95.2635 156.165 95.4897 156.857 95.4897Z" fill="#26192A"/>
<path d="M130.21 91.0483C130.44 91.0483 130.671 91.0483 130.902 91.0483C137.826 89.6912 139.673 71.5967 139.903 69.5611C139.903 69.1087 139.673 68.6564 139.211 68.6564C138.749 68.6564 138.288 68.8825 138.288 69.3349C137.826 74.5371 135.518 88.3341 130.671 89.2389C130.21 89.2389 129.748 89.2389 129.286 88.7865C126.055 86.0723 126.055 72.5014 126.286 67.5254C126.286 67.0731 126.055 66.6207 125.363 66.6207C124.901 66.6207 124.44 66.8469 124.44 67.5254C124.44 69.5611 123.516 86.5247 127.902 90.1436C128.825 90.8221 129.517 91.0483 130.21 91.0483Z" fill="#26192A"/>
<path d="M132.465 135.462C132.692 135.462 133.147 135.235 133.147 135.007C133.374 134.553 133.147 134.098 132.92 133.871C132.465 133.643 97.0059 113.182 87.9137 104.543C87.6864 104.315 87.0045 104.315 86.7772 104.543C86.5499 104.77 86.5499 105.452 86.7772 105.68C95.8693 114.773 130.647 134.553 132.011 135.462C132.011 135.462 132.238 135.462 132.465 135.462Z" fill="#26192A"/>
<path d="M82.9256 108.814C83.3737 108.814 83.5978 108.59 83.8219 108.143C111.16 22.4633 145.221 19.5552 145.669 19.5552C146.117 19.5552 146.565 19.1077 146.565 18.6603C146.565 18.2129 146.117 17.7655 145.669 17.7655C144.325 17.7655 110.04 20.45 82.2533 107.472C82.0293 107.919 82.2533 108.366 82.7015 108.59C82.9256 108.814 82.9256 108.814 82.9256 108.814Z" fill="#26192A"/>
<path d="M266.518 166.552C266.963 166.552 267.185 166.332 267.407 165.893C276.523 127.927 274.745 100.715 262.293 85.353C252.288 73.0635 238.948 73.283 238.503 73.283C238.058 73.283 237.613 73.7219 237.613 74.1608C237.613 74.5997 238.058 75.0386 238.503 75.0386C238.725 75.0386 251.399 74.8192 260.959 86.4503C272.966 101.154 274.745 128.586 265.851 165.454C265.629 166.113 265.851 166.552 266.518 166.552C266.296 166.552 266.518 166.552 266.518 166.552Z" fill="#26192A"/>
<path d="M63.0847 86.6068C63.5376 86.6068 63.7641 86.3888 63.9905 85.9527C70.1039 60.007 84.8214 45.6169 95.9161 38.2039C108.143 30.1367 119.238 28.1744 119.238 28.1744C119.691 28.1744 119.917 27.7383 119.917 27.3023C119.917 26.8662 119.464 26.6482 119.011 26.6482C118.558 26.6482 73.9531 34.7154 62.1791 85.5167C62.1791 85.9527 62.4055 86.3888 63.0847 86.6068C62.8583 86.6068 63.0847 86.6068 63.0847 86.6068Z" fill="#26192A"/>
<path d="M119.015 155.448C119.466 155.448 119.691 155.231 119.917 154.797C119.917 154.362 119.692 153.928 119.241 153.928C118.79 153.928 83.6122 146.323 72.5629 129.16C72.3374 128.725 71.8864 128.725 71.4354 128.943C70.9845 129.16 70.9844 129.595 71.2099 130.029C82.7102 147.627 117.437 155.231 119.015 155.448Z" fill="#26192A"/>
<path d="M182.097 142.904C182.097 142.904 173.658 179.831 142.124 182.096C142.124 182.096 157.891 159.669 162.11 137.694C162.11 137.467 174.546 119.797 182.097 142.904Z" fill="white"/>
<path d="M254.28 230.267L223.1 214.94L208.744 256.324C208.744 256.324 223.324 283.037 271.327 273.184C337.5 259.827 245.98 197.641 245.98 197.641L254.28 230.267Z" fill="#ACDBCF"/>
<path d="M66.2549 220.143L92.3303 207.221L106.594 249.329C106.594 249.329 92.1074 276.509 44.414 266.483C-21.3316 252.893 79.8498 197.641 79.8498 197.641L66.2549 220.143Z" fill="#ACDBCF"/>
<path d="M225.623 262.041C228.422 262.041 231.006 261.599 232.728 260.27C233.589 259.606 234.235 258.499 234.02 257.393C234.02 253.186 226.915 246.988 222.394 243.446C226.054 243.889 231.436 243.889 237.249 240.125C238.972 239.018 239.833 237.469 239.833 235.698C240.048 227.949 224.331 215.995 223.685 215.552C223.255 215.331 222.824 215.331 222.609 215.774C222.394 216.217 222.394 216.659 222.824 216.881C227.13 220.201 238.541 229.942 238.326 235.698C238.326 237.026 237.68 237.911 236.388 238.797C227.345 244.553 218.949 240.789 218.734 240.789C218.303 240.568 217.872 240.789 217.657 241.232C217.442 241.675 217.657 242.118 217.872 242.339C221.963 245.217 232.297 253.408 232.513 257.614C232.513 258.278 232.297 258.721 231.867 259.164C227.345 262.484 214.428 259.164 209.906 257.393C209.476 257.171 209.045 257.393 208.83 257.835C208.614 258.278 208.83 258.721 209.26 258.942C209.691 258.942 218.518 262.041 225.623 262.041Z" fill="#26192A"/>
<path d="M91.8859 250.938C98.4316 250.938 106.783 248.761 108.137 248.543C108.589 248.325 108.814 247.89 108.814 247.454C108.589 247.019 108.137 246.801 107.686 246.801C102.946 248.108 89.4031 250.72 85.7917 247.89C85.1145 247.454 84.8888 246.801 84.8888 245.93C85.3402 238.31 96.1745 232.867 96.1745 232.867C96.6259 232.649 96.6259 232.214 96.6259 231.996C96.6259 231.778 96.1745 231.343 95.7231 231.343C90.7574 231.561 76.9888 231.778 73.6031 228.512C73.1517 228.077 72.9259 227.424 72.9259 226.771C73.3774 221.545 86.6945 216.32 91.6602 214.796C92.1117 214.578 92.3373 214.143 92.1116 213.707C91.8859 213.272 91.4345 213.054 90.9831 213.272C90.3059 213.489 71.7974 219.368 71.1203 226.771C70.8945 227.859 71.346 228.948 72.2488 229.819C75.6345 233.302 86.6945 233.52 92.3374 233.302C88.7259 235.697 83.3088 240.052 82.8573 245.93C82.8573 247.237 83.3088 248.543 84.4374 249.196C86.2431 250.503 88.9516 250.938 91.8859 250.938Z" fill="#26192A"/>
<path d="M116.729 415.269C116.949 415.269 116.949 415.269 117.17 415.269C117.611 415.042 117.831 414.587 117.611 414.132C116.729 412.085 109.234 394.803 103.722 393.212C102.84 392.984 101.959 392.984 101.297 393.439C97.3291 395.94 94.0223 405.491 92.2586 410.721C91.3768 405.264 89.3928 395.94 86.086 393.894C85.2042 393.439 84.3223 393.211 83.4405 393.439C77.4883 395.485 75.7246 412.54 75.5042 414.359C75.5042 414.814 75.7247 415.269 76.1656 415.269C76.6065 415.269 77.0474 415.042 77.0474 414.587C77.4883 409.584 79.6928 396.395 83.8814 395.031C84.3223 394.803 84.5428 395.031 84.9837 395.258C88.2905 397.305 90.495 410.039 90.9359 414.587C90.9359 415.042 91.3768 415.269 91.5973 415.269C92.0382 415.269 92.2586 415.042 92.4791 414.587C92.4791 414.359 97.1086 397.987 101.959 394.803C102.399 394.576 102.62 394.576 103.061 394.576C107.249 395.94 113.863 409.584 116.068 414.587C116.288 415.042 116.509 415.269 116.729 415.269Z" fill="#26192A"/>
<path d="M268.47 388.621C268.694 388.621 268.919 388.398 269.144 388.175C269.368 387.729 269.368 387.283 268.919 387.06C266.447 385.499 260.156 380.816 259.482 377.471C259.482 376.802 259.482 376.356 259.707 376.133C261.729 373.457 270.716 374.795 275.884 376.356C276.333 376.579 276.783 376.356 277.007 375.91C277.232 375.464 277.007 375.018 276.558 374.795C276.558 374.795 267.571 369.666 266.672 364.537C266.447 363.199 266.897 362.084 267.795 360.969C273.188 354.726 287.567 358.071 287.567 358.071C288.016 358.071 288.466 357.848 288.69 357.402C288.69 356.956 288.466 356.51 288.016 356.287C287.342 356.064 272.738 352.719 266.447 359.854C265.099 361.415 264.65 362.976 264.875 364.76C265.549 368.105 268.919 371.45 271.615 373.68C267.121 372.788 260.606 372.119 258.359 375.018C257.685 375.687 257.46 376.802 257.685 377.694C258.584 382.154 266.897 387.729 267.795 388.398C268.245 388.621 268.47 388.621 268.47 388.621Z" fill="#26192A"/>
<path d="M90.2196 177.655C90.4461 177.655 90.6726 177.436 90.8991 177.216C91.1256 176.777 91.1256 176.337 90.6726 176.118C71.4208 164.258 65.985 138.561 65.985 138.342C65.985 137.902 65.532 137.683 65.079 137.683C64.626 137.683 64.3996 138.122 64.3996 138.561C64.3996 138.781 69.8353 165.136 89.7666 177.436C89.7666 177.436 89.9931 177.655 90.2196 177.655Z" fill="#26192A"/>
<path d="M52.6139 186.538C52.6139 186.538 52.7847 186.538 52.6139 186.538C53.1261 186.322 53.2969 185.889 53.2969 185.456C51.0773 173.339 53.2969 145.643 53.2969 145.21C53.2969 144.778 53.1262 144.345 52.7847 144.345C52.4432 144.345 52.1017 144.561 52.1017 144.994C51.931 146.076 49.8821 173.339 52.1017 185.672C52.1017 186.322 52.2725 186.538 52.6139 186.538Z" fill="#26192A"/>
<path d="M294.224 144.345C294.674 144.345 294.899 144.123 295.124 143.679C295.124 143.234 301.42 88.8276 247.679 75.5034C247.23 75.5034 246.78 75.7255 246.555 76.1696C246.33 76.6138 246.78 77.0579 247.23 77.28C299.396 90.382 293.55 143.012 293.55 143.679C293.325 143.901 293.775 144.345 294.224 144.345Z" fill="#26192A"/>
<path d="M29.6519 170.993C30.1157 170.993 30.3476 170.775 30.5795 170.339C34.058 155.956 44.2617 141.354 44.2617 141.136C44.4936 140.7 44.4936 140.264 44.0298 140.046C43.566 139.829 43.1022 139.829 42.8703 140.264C42.8703 140.482 32.4347 155.302 28.9562 170.121C28.7243 170.557 28.9562 170.993 29.6519 170.993Z" fill="#26192A"/>
<path d="M11.8731 153.228C12.1002 153.228 12.5544 153.004 12.5544 152.78C18.0048 142.496 32.5392 134.894 32.7663 134.894C33.2205 134.671 33.4476 134.223 33.2205 133.776C32.9934 133.329 32.5392 133.106 32.085 133.329C31.4037 133.553 16.8693 141.154 11.1918 151.886C10.9647 152.333 11.1918 152.78 11.646 153.004C11.646 153.228 11.646 153.228 11.8731 153.228Z" fill="#26192A"/>
<path d="M16.3149 131.021C16.5252 131.021 16.5253 131.021 16.7355 130.785C21.7824 127.014 30.4041 126.071 30.4041 126.071C30.8246 126.071 31.2452 125.6 31.0349 125.128C31.0349 124.657 30.6143 124.186 30.1938 124.421C29.7732 124.421 21.1515 125.364 15.8944 129.371C15.4738 129.606 15.4738 130.078 15.6841 130.549C15.6841 130.785 15.8944 131.021 16.3149 131.021Z" fill="#26192A"/>
</svg>
