<svg width="382" height="271" viewBox="0 0 382 271" fill="none" xmlns="http://www.w3.org/2000/svg">
<path d="M248.381 45.6372C232.896 45.6372 224.985 43.1388 223.638 37.6423C222.46 33.1453 223.302 28.9813 225.827 25.6501C228.015 22.8186 231.381 20.9864 234.579 20.9864C235.421 20.9864 236.431 21.153 237.104 21.4861C239.629 16.8225 243.668 11.6591 248.886 11.6591C249.559 11.6591 250.064 11.6591 250.738 11.8257C253.094 4.33054 258.312 1.99873 265.718 5.32991C268.411 6.49582 270.599 7.6617 272.451 8.82761C274.302 4.33051 278.342 0 284.401 0C286.084 0 287.767 0.333128 289.619 0.999364C293.995 2.66495 297.362 5.16332 299.213 8.16138C301.401 8.16138 303.589 9.16073 305.609 11.326C309.817 15.6565 313.015 20.4867 314.53 24.8173C315.708 24.3176 316.886 23.9845 318.065 23.9845C320.253 23.9845 322.104 24.8173 323.787 26.6494C326.649 29.4809 326.481 31.8128 325.807 33.3118C323.787 38.3086 312.847 41.8063 296.52 42.4726C291.639 42.6391 285.411 43.1388 279.015 43.805C269.253 44.6378 257.975 45.6372 248.381 45.6372ZM234.579 22.1523C231.718 22.1523 228.856 23.8179 226.836 26.3163C224.48 29.3144 223.807 33.1452 224.817 37.3092C225.995 42.1394 233.737 44.4713 248.381 44.4713C257.975 44.4713 269.253 43.4719 279.015 42.6391C285.411 42.1394 291.639 41.4732 296.52 41.3066C312.005 40.6404 322.778 37.4758 324.629 32.8121C325.302 31.1466 324.629 29.3144 322.778 27.4822C320.421 25.1504 317.56 24.6507 314.698 25.9832C315.372 28.6482 315.372 30.6469 314.53 31.8128C313.857 32.6456 313.015 32.9787 311.669 32.9787C309.985 32.8121 309.649 31.8128 309.48 31.3131C309.144 29.6475 310.827 26.9826 313.352 25.317C312.005 21.153 308.807 16.3228 304.768 11.9923C303.084 10.3267 301.57 9.32731 299.886 9.16075C301.233 12.3254 301.233 15.8231 299.55 18.4881C298.203 20.6533 296.352 21.6527 294.164 21.3195C292.312 20.9864 291.302 19.3209 291.47 16.989C291.639 13.3247 294.164 9.16074 297.867 8.16138C296.183 5.49644 293.154 3.3312 289.282 1.99873C287.599 1.33249 286.084 1.16593 284.569 1.16593C279.015 1.16593 275.312 5.32991 273.629 9.49389C278.342 12.6585 279.015 14.8238 278.678 15.9897C278.342 17.4887 276.658 18.3215 274.302 18.6546H274.134C273.292 18.6546 272.619 18.3215 272.114 17.6553C271.104 16.1562 271.104 13.1582 272.114 9.99354C270.262 8.82763 267.906 7.66171 265.213 6.49579C258.48 3.49773 253.936 5.32987 251.916 12.1588C252.757 12.4919 253.599 12.9916 254.441 13.6579C259.153 17.1556 259.322 19.9871 258.817 21.9858C257.975 24.6508 254.609 26.4829 252.252 26.4829C250.569 26.4829 249.559 25.6501 249.391 24.3176C249.391 22.8186 249.223 17.8218 250.401 13.1582C249.896 12.9916 249.391 12.9916 248.886 12.9916C244.341 12.9916 240.638 17.8218 238.282 22.1523C239.292 22.8186 240.134 23.6514 240.807 24.6507C241.985 26.816 242.153 28.8147 241.143 30.4803C240.302 31.9793 238.282 33.1452 236.599 33.1452C235.421 33.1452 234.579 32.6456 234.074 31.9794C233.569 31.3131 233.401 30.1472 234.242 28.1485C234.242 28.1485 235.084 25.6501 236.599 22.8186C235.926 22.3189 235.252 22.1523 234.579 22.1523ZM237.609 22.9851C236.094 25.8166 235.252 28.315 235.252 28.315C234.747 29.4809 234.579 30.4803 234.916 31.1466C235.252 31.6462 235.926 31.8128 236.262 31.8128C237.44 31.8128 238.955 31.1465 239.797 29.8141C240.638 28.4816 240.47 26.9826 239.46 25.1504C239.124 24.1511 238.45 23.4848 237.609 22.9851ZM313.857 26.6494C311.837 27.9819 310.659 29.9806 310.827 30.98C310.827 31.1465 310.995 31.6462 311.837 31.6462C312.678 31.6462 313.183 31.4797 313.52 30.98C314.362 30.3138 314.362 28.6482 313.857 26.6494ZM251.579 13.3247C250.401 17.8218 250.569 22.652 250.738 23.9845C250.738 24.8173 251.579 24.9839 252.252 24.9839C254.272 24.9839 256.965 23.4848 257.639 21.3195C258.312 19.1543 256.965 16.8225 253.767 14.4907C252.926 13.991 252.252 13.6578 251.579 13.3247ZM298.54 9.32732C295.173 9.99355 292.985 14.1575 292.817 17.1556C292.817 18.1549 292.985 19.9871 294.5 20.3202C296.015 20.6533 297.53 19.8205 298.54 18.1549C299.718 16.1562 300.391 12.8251 298.54 9.32732ZM273.124 10.6598C272.282 13.4913 272.282 15.9897 272.955 16.8225C273.124 17.1556 273.46 17.3221 273.797 17.3221C275.817 17.1556 276.995 16.4893 277.332 15.6565C277.668 14.4906 276.154 12.6585 273.124 10.6598Z" fill="#26192A"/>
<path d="M19.9903 234.947C19.9903 234.947 19.8194 234.947 19.9903 234.947C19.6486 234.947 19.4777 234.616 19.3069 234.45L16.2314 215.394L0.512572 211.583C0.170857 211.583 0 211.251 0 211.086C0 210.754 0.170857 210.589 0.341714 210.423L14.1811 203.629L11.96 190.041C11.96 189.71 12.1309 189.544 12.3017 189.378C12.4726 189.213 12.8143 189.378 12.9851 189.544L23.2366 199.155L40.664 190.704C40.8349 190.538 41.1766 190.704 41.3474 190.87C41.5183 191.035 41.5183 191.367 41.5183 191.533L33.1463 208.6L47.1566 221.856C47.3274 222.022 47.3274 222.354 47.3274 222.685C47.1566 222.851 46.8149 223.016 46.644 223.016L28.3623 218.542L20.5029 234.616C20.332 234.781 20.1611 234.947 19.9903 234.947ZM17.5983 215.725L20.332 232.296L27.1663 218.211L17.5983 215.725ZM29.0457 217.217L44.7646 221.028L32.8046 209.594L29.0457 217.217ZM17.2566 214.4L27.6789 217.051L31.6086 208.932L22.8949 200.812L15.548 204.458L17.2566 214.4ZM2.392 210.754L15.8897 214.068L14.352 204.955L2.392 210.754ZM24.2617 199.983L32.292 207.606L39.6389 192.527L24.2617 199.983ZM13.4977 191.698L15.3771 202.966L22.0406 199.652L13.4977 191.698Z" fill="#26192A"/>
<path d="M56.5048 241.171C56.5048 241.171 51.7768 225.285 62.374 225.787C72.9712 226.288 74.6015 236.656 67.7541 233.813C60.9067 231.138 71.3408 220.436 78.0252 226.79C84.8727 233.144 86.9921 242.007 78.8404 241.672C70.5257 241.338 75.0906 235.987 80.9598 239.498C86.8291 243.01 85.3618 250.368 77.047 253.377C68.7323 256.387 66.4498 247.859 71.0148 248.863C75.5797 250.033 79.6556 257.725 70.3626 258.561C61.0697 259.397 56.6678 249.364 62.0479 249.03C67.428 248.863 66.2868 256.22 59.1133 256.889C51.9398 257.558 47.3749 237.157 53.7332 235.485C60.2545 234.147 61.7218 243.512 56.5048 241.171Z" fill="#FFFAF0"/>
<path d="M70.1028 260.301C67.4508 260.301 64.9646 259.456 62.9756 257.934C61.9812 258.273 60.9867 258.611 59.9922 258.78C55.3513 259.287 51.7049 252.188 50.8761 245.427C50.2131 240.187 51.5391 236.637 54.3568 235.961C54.6883 235.792 55.1855 235.792 55.517 235.792C55.3513 232.242 56.0143 229.538 57.506 227.848C58.832 226.327 60.6552 225.819 63.1414 225.819C65.1304 225.988 66.9536 226.327 68.4453 227.003C70.1028 225.65 72.2575 224.805 74.2464 224.805C76.2354 224.805 78.0586 225.481 79.5503 227.003C83.694 230.721 86.1802 235.454 85.8487 238.834C85.8487 240.018 85.3515 241.032 84.6885 241.877C86.0144 243.567 86.5117 245.596 86.0144 247.624C85.3515 250.835 82.368 253.54 78.0586 255.061C77.7271 255.23 77.5614 255.23 77.3956 255.23C77.5614 256.244 77.2299 257.089 76.7326 257.934C75.7381 259.287 73.9149 260.132 71.263 260.301C70.7657 260.301 70.4343 260.301 70.1028 260.301ZM64.1359 257.258C66.1248 258.611 68.4453 259.287 71.0972 259.118C73.4177 258.949 75.0752 258.273 75.7381 257.258C76.0696 256.751 76.2354 256.244 76.2354 255.568C73.2519 256.075 70.6 255.061 69.4398 253.033C68.9425 252.019 68.7768 251.004 69.274 250.159C69.7713 249.314 70.7657 248.976 72.0917 249.314C74.2464 249.821 76.4011 251.85 77.2299 254.047C77.3956 254.047 77.7271 253.878 77.8929 253.878C81.705 252.526 84.357 250.159 85.02 247.286C85.3515 245.596 85.02 243.905 83.8597 242.553C83.031 243.06 81.8708 243.229 80.5448 243.229H80.0476C75.2409 243.06 74.9094 241.201 74.9094 240.694C74.9094 239.511 76.4011 238.496 78.3901 238.496C79.3846 238.496 80.8763 238.665 82.5338 239.68C83.031 240.018 83.5282 240.356 84.0255 240.694C84.5227 240.187 84.8542 239.511 84.8542 238.496C85.02 235.454 82.6995 231.228 78.8873 227.679C77.5614 226.496 76.0696 225.819 74.4122 225.819C72.9205 225.819 71.263 226.327 69.937 227.341C72.7547 229.2 73.9149 231.735 73.5834 233.426C73.2519 235.285 71.263 235.792 68.611 234.778C66.7878 234.102 66.1248 232.75 65.9591 231.904C65.7933 230.552 66.2906 228.862 67.6166 227.51C66.2906 227.003 64.7989 226.665 63.3071 226.665C61.3182 226.496 59.6607 227.172 58.6662 228.186C57.0088 229.876 56.843 232.919 57.0088 235.285C59.8265 235.623 61.3182 238.327 61.3182 240.187C61.3182 241.708 60.3237 242.553 58.9977 242.553C58.5005 242.553 57.8375 242.384 57.1745 242.046C57.0088 242.046 56.843 241.877 56.843 241.708C56.843 241.539 56.18 239.342 55.8485 236.468C55.517 236.468 55.1855 236.468 54.8541 236.637C52.3679 237.313 51.8706 241.201 52.3679 244.75C53.0308 250.835 56.3458 257.427 59.9922 256.92C60.8209 256.92 61.4839 256.751 62.1469 256.413C60.4894 254.554 59.6607 252.357 60.158 250.835C60.3237 250.159 60.9867 248.976 62.9756 248.976H63.3071C65.2961 248.976 66.6221 249.99 67.1193 251.511C67.1193 253.878 66.1248 255.906 64.1359 257.258ZM62.9756 250.666H62.8099C61.8154 250.666 61.3182 251.004 61.1524 251.681C60.8209 252.695 61.4839 254.723 63.1414 256.413C65.1304 255.23 65.7933 253.54 65.6276 252.357C65.2961 251.342 64.4674 250.666 62.9756 250.666ZM70.9315 250.328C70.6 250.328 70.2685 250.497 70.1028 250.666C69.937 251.004 69.937 251.68 70.2685 252.188C70.6 252.695 71.5945 254.216 74.4122 254.216C74.9094 254.216 75.2409 254.216 75.7381 254.047C75.0752 252.357 73.2519 250.835 71.5945 250.328C71.4287 250.497 71.0972 250.328 70.9315 250.328ZM78.0586 239.849C76.5669 239.849 75.9039 240.356 75.9039 240.694C75.9039 241.032 76.8984 241.877 79.8818 241.877H80.2133C81.2078 241.877 82.0365 241.708 82.6995 241.539C82.368 241.37 82.0365 241.032 81.705 240.863C80.0476 240.018 78.8873 239.849 78.0586 239.849ZM57.6718 241.539C58.0032 241.708 58.5005 241.708 58.6662 241.708C59.495 241.708 59.8265 241.032 59.8265 240.525C59.8265 239.173 58.832 237.482 56.843 236.975C57.0088 239.173 57.506 240.863 57.6718 241.539ZM68.611 228.524C67.4508 229.707 66.7878 231.059 66.9536 232.073C67.1193 232.919 67.7823 233.595 68.7768 233.933C70.6 234.609 71.7602 234.44 72.0917 233.426C72.4232 232.073 71.0972 229.876 68.611 228.524Z" fill="#26192A"/>
<path d="M348.308 134.779C349.359 114.736 334.34 97.6524 314.764 96.6214C295.187 95.5903 278.466 111.002 277.416 131.045C276.365 151.088 291.384 168.172 310.96 169.203C330.537 170.234 347.258 154.822 348.308 134.779Z" fill="#ACDBCF"/>
<path d="M313.544 170.717C312.872 170.717 312.2 170.717 311.528 170.717C291.542 169.54 276.09 152.394 277.266 132.39C278.442 112.387 295.405 96.9217 315.559 98.0983C335.546 99.275 350.997 116.421 349.822 136.425C348.814 155.588 332.858 170.717 313.544 170.717ZM313.544 99.2751C294.901 99.2751 279.617 113.9 278.61 132.39C277.602 151.722 292.382 168.363 311.696 169.372C331.179 170.381 347.638 155.588 348.646 136.257C349.654 116.925 334.874 100.284 315.559 99.2751C314.887 99.2751 314.216 99.2751 313.544 99.2751Z" fill="#26192A"/>
<path d="M311.643 170.717C311.326 170.717 311.009 170.381 311.009 170.045L314.812 98.7068C314.812 98.3711 315.129 98.0354 315.446 98.0354C315.763 98.0354 316.08 98.3711 316.08 98.7068L312.276 170.045C312.276 170.381 311.96 170.717 311.643 170.717Z" fill="#26192A"/>
<path d="M349.213 135.221L277.875 131.418C277.539 131.418 277.203 131.101 277.203 130.784C277.203 130.467 277.539 130.15 277.875 130.15L349.213 133.954C349.549 133.954 349.885 134.27 349.885 134.587C349.885 135.063 349.549 135.221 349.213 135.221Z" fill="#26192A"/>
<path d="M294.875 165.646C294.299 165.476 294.106 165.136 294.106 164.796C302.949 133.531 298.143 102.435 298.143 102.096C298.143 101.756 298.335 101.416 298.72 101.416C299.104 101.416 299.489 101.586 299.489 101.926C299.489 102.266 304.486 133.531 295.452 164.966C295.452 165.306 295.26 165.646 294.875 165.646Z" fill="#26192A"/>
<path d="M333.396 165.646C333.073 165.646 332.912 165.475 332.75 165.134C324.521 138.499 335.009 105.546 335.171 105.205C335.332 104.863 335.655 104.693 335.978 104.863C336.3 105.034 336.462 105.376 336.3 105.717C336.139 106.059 325.812 138.499 333.88 164.792C334.041 165.134 333.88 165.475 333.557 165.646C333.557 165.646 333.557 165.646 333.396 165.646Z" fill="#26192A"/>
<path d="M322.553 120.009C298.937 120.009 284.533 114.584 284.366 114.584C284.031 114.404 283.863 114.042 284.031 113.68C284.198 113.319 284.533 113.138 284.868 113.319C285.035 113.319 308.987 122.359 345.835 116.935C346.17 116.935 346.505 117.116 346.505 117.477C346.505 117.839 346.337 118.201 346.002 118.201C337.46 119.647 329.588 120.009 322.553 120.009Z" fill="#26192A"/>
<path d="M344.133 153.814C344.133 153.814 343.962 153.814 344.133 153.814C343.621 153.637 310.562 146.38 282.956 152.221C282.615 152.221 282.274 152.044 282.274 151.69C282.274 151.336 282.445 150.982 282.786 150.982C310.733 145.141 343.962 152.575 344.303 152.575C344.644 152.575 344.814 152.929 344.814 153.283C344.644 153.637 344.473 153.814 344.133 153.814Z" fill="#26192A"/>
<path d="M314.655 179.168C292.095 179.168 272.418 162.616 269.195 139.815C267.499 127.655 270.722 115.663 278.016 106.036C285.479 96.2399 296.166 89.9907 308.209 88.3018C316.181 87.2884 324.154 88.1329 331.617 91.173C331.957 91.3419 332.126 91.6797 331.957 92.0175C331.787 92.3553 331.448 92.5242 331.108 92.3553C323.984 89.484 316.012 88.4707 308.379 89.653C296.505 91.3419 286.158 97.4222 278.864 106.88C271.57 116.339 268.686 127.992 270.213 139.815C273.605 164.136 296.166 181.026 320.422 177.648C332.635 175.959 343.321 169.541 350.446 159.745C350.615 159.407 351.124 159.407 351.294 159.576C351.633 159.745 351.633 160.252 351.464 160.421C344 170.554 333.144 177.141 320.592 178.999C318.726 179.168 316.69 179.168 314.655 179.168Z" fill="#26192A"/>
<path d="M327.232 194.381L294.786 192.423C294.446 192.423 294.106 192.068 294.106 191.712C294.106 191.356 294.446 191 294.786 191L327.232 192.957C327.572 192.957 327.912 193.313 327.912 193.669C327.912 194.203 327.572 194.381 327.232 194.381Z" fill="#26192A"/>
<path d="M309.838 192.69C309.578 192.69 309.318 192.367 309.318 192.043L309.968 178.125C309.968 177.802 310.229 177.478 310.489 177.478C310.749 177.478 311.009 177.802 311.009 178.125L310.359 192.043C310.359 192.528 310.098 192.69 309.838 192.69Z" fill="#26192A"/>
<path d="M359.013 256.184L358.336 250.159L363.576 253.172L368.647 250.829L367.126 256.519L371.859 261.539L364.928 260.368L363.576 267.062L359.858 260.033L353.266 260.368L359.013 256.184Z" fill="#6AB0A0"/>
<path d="M237.21 84.5133C237.042 84.5133 236.707 84.3465 236.707 84.1798C236.54 84.013 236.707 83.6795 236.875 83.5128L271.061 47.4942C271.229 47.3274 271.564 47.3275 271.732 47.3275C271.899 47.4942 272.067 47.6609 272.067 47.9945L270.726 60.5009C270.726 60.6677 270.559 60.8344 270.391 61.0011L242.908 80.3445L271.899 68.8385C272.067 68.6718 272.402 68.8386 272.57 69.0053L283.798 80.5112C283.965 80.678 283.965 81.0115 283.965 81.1782C283.798 81.345 283.63 81.5118 283.462 81.5118L237.21 84.5133ZM272.067 70.1725L239.053 83.1793L281.954 80.3445L272.067 70.1725ZM270.559 49.662L243.075 78.6769L269.386 60.1674L270.559 49.662Z" fill="#26192A"/>
<path d="M273.159 69.3008C272.832 69.3008 272.506 68.9664 272.506 68.632C272.506 68.2976 272.832 67.9632 273.159 67.9632L284.247 67.796L270.713 60.2722C270.386 60.105 270.386 59.7706 270.549 59.4362C270.713 59.1018 271.039 59.1018 271.365 59.269L287.019 67.9632C287.182 68.1304 287.345 68.4648 287.345 68.632C287.345 68.9664 287.019 69.1336 286.693 69.1336L273.159 69.3008Z" fill="#26192A"/>
<path d="M276.115 74.3717C275.938 74.3717 275.583 74.2151 275.583 74.0586C275.406 73.7455 275.583 73.4324 275.937 73.2759L286.39 69.3623C286.745 69.2058 287.099 69.3623 287.276 69.6754C287.453 69.9885 287.276 70.3016 286.922 70.4581L276.469 74.3717C276.292 74.3717 276.115 74.3717 276.115 74.3717Z" fill="#26192A"/>
<path d="M227.507 248.469C227.168 248.469 226.829 248.133 226.829 247.796C226.829 247.46 226.998 247.123 227.507 247.123C230.219 246.955 232.932 246.618 235.814 245.946C236.153 245.946 236.492 246.114 236.492 246.45C236.492 246.787 236.323 247.123 235.984 247.123C233.102 247.796 230.219 248.301 227.507 248.469ZM219.03 248.133C219.03 248.133 218.86 248.133 219.03 248.133C216.148 247.796 213.266 247.123 210.553 246.114C210.214 245.946 210.044 245.609 210.214 245.273C210.384 244.936 210.723 244.768 211.062 244.936C213.605 245.777 216.317 246.45 219.199 246.787C219.539 246.787 219.878 247.123 219.708 247.46C219.539 247.964 219.369 248.133 219.03 248.133ZM243.952 245.104C243.613 245.104 243.443 244.936 243.274 244.6C243.104 244.263 243.274 243.927 243.613 243.758C246.325 242.917 249.038 241.908 251.581 240.898C251.92 240.73 252.259 240.898 252.429 241.235C252.598 241.571 252.429 241.908 252.09 242.076C249.547 243.085 246.834 244.095 244.121 244.936C244.121 245.104 244.121 245.104 243.952 245.104ZM203.093 242.581C202.924 242.581 202.924 242.581 202.754 242.413C200.381 241.067 198.007 239.216 195.803 237.365C195.464 237.197 195.464 236.692 195.803 236.524C195.973 236.188 196.481 236.188 196.651 236.524C198.855 238.375 201.059 240.057 203.433 241.403C203.772 241.571 203.772 241.908 203.602 242.244C203.602 242.581 203.263 242.581 203.093 242.581ZM311.597 239.721H310.919C310.58 239.721 310.241 239.384 310.241 239.048C310.241 238.711 310.58 238.375 310.919 238.375H311.597C314.14 238.375 316.683 238.206 319.226 238.038C319.565 238.038 319.904 238.206 319.904 238.543C319.904 238.879 319.735 239.216 319.396 239.216C316.853 239.721 314.14 239.721 311.597 239.721ZM302.442 239.216C299.56 238.879 296.678 238.375 293.965 237.87C293.626 237.87 293.457 237.534 293.457 237.197C293.457 236.861 293.796 236.692 294.135 236.692C296.847 237.197 299.56 237.702 302.442 238.038C302.781 238.038 303.12 238.375 302.951 238.711C302.951 239.048 302.781 239.216 302.442 239.216ZM259.719 238.711C259.549 238.711 259.21 238.543 259.21 238.375C259.041 238.038 259.21 237.702 259.549 237.534C262.092 236.188 264.635 234.842 266.839 233.327C267.178 233.159 267.518 233.159 267.687 233.496C267.857 233.832 267.857 234.169 267.518 234.337C265.314 235.851 262.771 237.365 260.227 238.711C259.888 238.711 259.719 238.711 259.719 238.711ZM327.703 238.206C327.364 238.206 327.195 238.038 327.025 237.702C327.025 237.365 327.195 237.029 327.534 237.029C330.246 236.524 333.128 235.851 335.671 235.01C336.011 234.842 336.35 235.01 336.519 235.346C336.689 235.683 336.519 236.019 336.18 236.188C333.467 237.029 330.755 237.702 327.703 238.206C327.873 238.206 327.873 238.206 327.703 238.206ZM285.997 235.683H285.828C283.115 234.673 280.402 233.496 278.029 232.318C277.69 232.15 277.52 231.813 277.69 231.477C277.859 231.14 278.198 231.14 278.537 231.14C280.911 232.318 283.454 233.496 286.167 234.505C286.506 234.673 286.675 235.01 286.506 235.346C286.506 235.515 286.167 235.683 285.997 235.683ZM343.979 233.159C343.809 233.159 343.47 232.991 343.47 232.823C343.301 232.486 343.47 232.15 343.809 231.982C346.352 230.804 348.895 229.458 351.269 228.112C351.608 227.944 351.947 227.944 352.117 228.28C352.286 228.617 352.286 228.953 351.947 229.121C349.573 230.636 347.03 231.982 344.318 232.991C344.148 233.159 343.979 233.159 343.979 233.159ZM190.378 231.645C190.209 231.645 190.039 231.645 189.87 231.477C188.174 229.458 186.479 227.103 184.783 224.579C184.614 224.243 184.614 223.906 184.953 223.738C185.292 223.57 185.631 223.57 185.801 223.906C187.326 226.261 189.022 228.617 190.717 230.636C190.887 230.972 190.887 231.309 190.717 231.477C190.717 231.645 190.548 231.645 190.378 231.645ZM273.451 229.121C273.282 229.121 273.112 229.122 272.943 228.953C272.773 228.785 272.773 228.28 272.943 228.112C274.977 226.093 276.673 223.906 277.859 221.551C278.029 221.214 278.368 221.214 278.707 221.214C279.046 221.382 279.046 221.719 279.046 222.055C277.69 224.411 275.994 226.766 273.79 228.953C273.79 228.953 273.621 229.121 273.451 229.121ZM271.078 227.607C270.908 227.607 270.739 227.607 270.739 227.439C268.365 225.42 266.5 223.401 264.974 221.046C264.805 220.709 264.805 220.373 265.144 220.205C265.483 220.037 265.822 220.037 265.992 220.373C267.348 222.56 269.213 224.579 271.586 226.43C271.925 226.598 271.925 227.103 271.586 227.271C271.417 227.439 271.247 227.607 271.078 227.607ZM358.22 224.411C358.05 224.411 357.881 224.411 357.711 224.243C357.542 223.906 357.542 223.57 357.711 223.401C359.915 221.551 361.95 219.7 363.815 217.681C363.984 217.345 364.493 217.345 364.662 217.681C365.001 217.849 365.001 218.354 364.662 218.522C362.797 220.541 360.763 222.56 358.559 224.411C358.559 224.411 358.389 224.411 358.22 224.411ZM181.223 217.513C181.054 217.513 180.715 217.345 180.715 217.176C179.528 214.653 178.341 212.129 177.324 209.437C177.154 209.101 177.324 208.764 177.663 208.596C178.002 208.428 178.341 208.596 178.511 208.933C179.528 211.624 180.715 214.148 181.901 216.503C182.071 216.84 181.901 217.176 181.562 217.345C181.562 217.513 181.393 217.513 181.223 217.513ZM281.08 214.316C280.741 214.316 280.402 213.98 280.402 213.643C280.402 213.139 280.402 212.634 280.402 212.297C280.402 210.11 279.894 207.923 279.046 205.736C278.877 205.4 279.046 205.063 279.385 204.895C279.724 204.727 280.063 204.895 280.233 205.231C281.25 207.419 281.589 209.774 281.589 212.297C281.589 212.802 281.589 213.307 281.589 213.812C281.589 214.148 281.42 214.316 281.08 214.316ZM262.262 213.643C261.923 213.643 261.753 213.475 261.584 213.139C261.414 211.961 261.245 210.783 261.245 209.774V209.101C261.245 207.418 261.414 205.904 261.584 204.558C261.584 204.222 261.923 204.054 262.262 204.054C262.601 204.054 262.771 204.39 262.771 204.727C262.601 206.073 262.431 207.418 262.431 208.933V209.606C262.431 210.615 262.601 211.793 262.771 212.802C262.94 213.307 262.77 213.643 262.262 213.643ZM369.579 211.961C369.409 211.961 369.409 211.961 369.24 211.793C368.901 211.624 368.901 211.288 369.07 210.952C370.596 208.596 371.952 206.241 373.139 203.717C373.309 203.381 373.648 203.212 373.987 203.381C374.326 203.549 374.495 203.885 374.326 204.222C373.139 206.746 371.783 209.269 370.257 211.624C369.918 211.793 369.748 211.961 369.579 211.961ZM175.12 201.867C174.781 201.867 174.611 201.698 174.442 201.362C172.916 196.483 172.407 193.118 172.407 193.118C172.407 192.782 172.577 192.445 172.916 192.445C173.255 192.445 173.594 192.613 173.594 192.95C173.594 192.95 174.272 196.315 175.628 201.025C175.798 201.362 175.459 201.698 175.12 201.867C175.12 201.867 175.12 201.698 175.12 201.867ZM274.469 199.679C274.299 199.679 274.299 199.679 274.129 199.511C271.586 197.829 268.874 197.324 266.839 198.334C266.5 198.502 266.161 198.333 265.992 197.997C265.822 197.661 265.992 197.324 266.331 197.156C268.874 195.978 272.095 196.483 274.977 198.502C275.316 198.67 275.316 199.175 275.147 199.343C274.977 199.511 274.808 199.679 274.469 199.679ZM376.53 196.651H376.36C376.021 196.483 375.852 196.146 376.021 195.81C376.869 193.286 377.547 190.426 378.225 187.734C378.225 187.398 378.564 187.23 378.903 187.23C379.242 187.23 379.412 187.566 379.412 187.903C378.734 190.763 378.056 193.455 377.208 196.146C377.038 196.483 376.699 196.651 376.53 196.651ZM380.26 180.332C379.751 180.332 379.582 179.995 379.582 179.659C379.921 176.967 380.26 174.107 380.429 171.415C380.429 171.079 380.768 170.742 381.107 170.91C381.446 170.91 381.786 171.247 381.616 171.583C381.446 174.443 381.107 177.303 380.768 179.995C380.768 179.995 380.599 180.332 380.26 180.332ZM381.446 163.508C381.107 163.508 380.768 163.171 380.768 162.835C380.768 160.143 380.599 157.283 380.429 154.423C380.429 154.086 380.599 153.75 380.938 153.75C381.277 153.75 381.616 153.918 381.616 154.255C381.786 157.115 381.955 159.975 381.955 162.667C382.125 163.171 381.786 163.508 381.446 163.508ZM380.26 146.684C379.921 146.684 379.751 146.515 379.582 146.179C379.242 143.487 378.734 140.627 378.056 137.935C378.056 137.599 378.225 137.262 378.564 137.262C378.903 137.262 379.242 137.43 379.242 137.767C379.751 140.459 380.26 143.319 380.768 146.011C380.938 146.347 380.599 146.684 380.26 146.684ZM376.699 130.364C376.36 130.364 376.191 130.196 376.021 129.86C375.174 127.168 374.326 124.476 373.309 121.952C373.139 121.616 373.309 121.279 373.648 121.111C373.987 120.943 374.326 121.111 374.495 121.448C375.513 124.139 376.36 126.831 377.208 129.523C377.378 129.86 377.038 130.196 376.699 130.364C376.699 130.364 376.699 130.196 376.699 130.364ZM370.596 114.55C370.427 114.55 370.087 114.382 370.087 114.213C368.901 111.69 367.544 109.166 366.188 106.811C366.019 106.474 366.188 106.138 366.358 105.97C366.697 105.801 367.036 105.97 367.205 106.138C368.562 108.493 369.918 111.017 371.105 113.709C371.274 114.045 371.105 114.382 370.766 114.55C370.935 114.55 370.766 114.55 370.596 114.55ZM362.119 100.081C361.95 100.081 361.78 99.9129 361.611 99.7446C359.915 97.3893 358.22 95.2022 356.355 93.1833C356.185 92.8468 356.185 92.5103 356.355 92.3421C356.694 92.1738 357.033 92.1738 357.203 92.3421C359.068 94.361 360.763 96.7163 362.458 98.9034C362.628 99.2399 362.628 99.5764 362.289 99.7446C362.458 99.9129 362.289 100.081 362.119 100.081ZM350.93 87.4631C350.76 87.4631 350.591 87.4631 350.421 87.2949C348.387 85.4442 346.183 83.5936 343.979 82.0794C343.64 81.9112 343.64 81.4064 343.809 81.2382C343.979 80.9017 344.487 80.9017 344.657 81.0699C346.861 82.7524 349.234 84.4348 351.269 86.4537C351.608 86.6219 351.608 87.1266 351.269 87.2949C351.269 87.2949 351.099 87.4631 350.93 87.4631ZM337.197 77.7051C337.028 77.7051 337.028 77.7051 336.858 77.7051C334.485 76.3592 331.942 75.1816 329.229 74.1721C328.89 74.0039 328.72 73.6674 328.89 73.3309C329.06 72.9945 329.399 72.8262 329.738 72.9944C332.45 74.0039 334.993 75.1816 337.536 76.6957C337.875 76.864 337.875 77.2005 337.706 77.5369C337.706 77.5369 337.536 77.7051 337.197 77.7051ZM321.6 71.312C321.6 71.312 321.43 71.312 321.6 71.312C318.718 70.6391 316.005 69.9661 313.293 69.6296C312.953 69.6296 312.784 69.2932 312.784 68.9567C312.784 68.6202 313.123 68.4519 313.462 68.4519C316.344 68.7884 319.057 69.4614 321.769 70.1343C322.108 70.3026 322.278 70.639 322.278 70.9755C322.108 71.1438 321.939 71.312 321.6 71.312ZM284.302 70.4708C283.963 70.4708 283.793 70.3026 283.624 69.9661C283.624 69.6296 283.793 69.2931 284.132 69.2931C285.319 69.1249 286.675 68.7884 287.862 68.6202C288.201 68.6202 288.54 68.7884 288.54 69.1249C288.54 69.4614 288.371 69.7979 288.032 69.7979C286.845 70.1344 285.658 70.3026 284.302 70.4708ZM296.339 69.1249C296 69.1249 295.661 68.7884 295.661 68.4519C295.661 68.1154 295.83 67.779 296.339 67.779C299.221 67.6107 302.103 67.6107 304.816 67.6107C305.155 67.6107 305.494 67.9472 305.494 68.2837C305.494 68.6202 305.155 68.9567 304.816 68.9567C302.103 68.7884 299.221 68.9567 296.339 69.1249Z" fill="#26192A"/>
<path d="M125.619 255.23C122.097 255.23 118.91 254.046 116.059 251.677C108.847 245.755 107.841 233.912 113.543 217.67C117.736 205.489 124.11 194.83 124.11 194.661C124.277 194.322 124.613 194.322 124.948 194.491L165.369 218.516C165.704 218.685 165.704 219.024 165.537 219.362C164.53 220.716 144.404 255.23 125.619 255.23ZM124.78 195.845C121.929 200.751 101.299 237.973 116.73 250.662C119.413 252.861 122.432 253.876 125.619 253.876C142.391 253.876 161.344 223.592 164.195 219.193L124.78 195.845Z" fill="#26192A"/>
<path d="M105.132 236.637C104.151 236.637 103.497 236.296 103.006 235.954C101.371 234.76 100.881 232.371 101.371 230.835C101.698 229.812 102.352 229.3 103.333 229.129C103.66 229.129 103.987 229.3 103.987 229.812C103.987 230.153 103.824 230.494 103.333 230.494C103.17 230.494 102.679 230.494 102.516 231.177C102.189 232.201 102.679 234.078 103.66 234.931C104.478 235.613 105.622 235.613 106.93 234.76C107.911 234.248 108.402 233.566 108.402 232.712C108.729 230.665 106.603 227.764 104.314 224.693C100.39 219.403 95.6485 212.919 99.4091 206.094C101.535 202.34 104.151 200.292 107.257 199.61C112.816 198.586 117.885 202.852 118.048 203.022C118.375 203.193 118.375 203.705 118.212 203.875C118.048 204.217 117.558 204.217 117.394 204.046C117.394 204.046 112.489 199.951 107.584 200.975C104.805 201.487 102.516 203.534 100.554 206.776C97.12 212.919 101.535 218.721 105.295 224.01C107.748 227.423 110.037 230.324 109.546 233.054C109.383 234.248 108.565 235.101 107.421 235.954C106.603 236.466 105.786 236.637 105.132 236.637Z" fill="#26192A"/>
<path d="M140.693 256.92C140.199 256.92 139.871 256.92 139.378 256.757C138.556 256.431 137.076 255.614 136.912 252.84C136.912 251.207 137.241 250.065 138.063 249.248C139.871 247.453 143.322 247.453 147.267 247.453C153.349 247.453 160.088 247.616 164.032 241.74C165.84 238.965 166.498 236.353 165.676 233.905C164.361 229.661 159.266 227.702 159.266 227.702C158.937 227.539 158.773 227.212 158.937 226.886C159.101 226.56 159.43 226.396 159.759 226.56C159.923 226.723 165.512 228.845 166.991 233.578C167.813 236.353 167.155 239.291 165.183 242.393C160.909 248.759 153.513 248.596 147.431 248.596C143.815 248.596 140.528 248.596 139.213 249.901C138.556 250.554 138.391 251.37 138.391 252.676C138.391 253.656 138.72 254.962 140.035 255.451C141.35 255.941 142.994 255.125 143.651 254.309C143.98 253.819 144.144 253.492 143.815 253.166C143.651 252.839 143.815 252.513 143.98 252.35C144.309 252.187 144.637 252.35 144.802 252.513C145.295 253.329 145.13 254.309 144.473 255.125C143.651 256.104 142.172 256.92 140.693 256.92Z" fill="#26192A"/>
<path d="M110.47 265.372C110.306 265.372 110.306 265.372 110.141 265.208C109.812 265.044 109.812 264.717 109.976 264.39L117.223 252.121C117.388 251.793 117.717 251.793 118.047 251.957C118.376 252.121 118.376 252.448 118.211 252.775L110.965 265.044C110.8 265.372 110.635 265.372 110.47 265.372Z" fill="#26192A"/>
<path d="M119.368 270.442C119.193 270.442 119.193 270.442 119.017 270.442L103.398 263.002C103.047 262.85 103.047 262.546 103.223 262.243C103.398 261.939 103.749 261.939 104.1 262.091L119.719 269.531C120.07 269.683 120.07 269.987 119.895 270.291C119.895 270.291 119.544 270.442 119.368 270.442Z" fill="#26192A"/>
<path d="M155.294 219.734C149.65 219.734 135.283 217.956 125.192 202.112C125.021 201.95 125.021 201.627 125.363 201.303C125.534 201.141 125.877 201.141 126.219 201.141L158.543 218.441C158.714 218.603 158.885 218.764 158.885 219.088C158.885 219.411 158.543 219.573 158.372 219.573C158.03 219.573 157.004 219.734 155.294 219.734ZM127.587 203.405C137.165 216.986 149.992 218.441 155.123 218.441C155.294 218.441 155.465 218.441 155.807 218.441L127.587 203.405Z" fill="#26192A"/>
</svg>
