<svg width="297" height="144" viewBox="0 0 297 144" fill="none" xmlns="http://www.w3.org/2000/svg">
<path d="M35.4801 84C35.4801 84 35.1769 84 35.4801 84C34.8736 84 34.5704 83.3901 34.2671 83.0851L28.8087 48.0106L0.909747 40.9957C0.303249 40.9957 0 40.3857 0 40.0807C0 39.4707 0.303249 39.1657 0.606498 38.8608L25.1697 26.3559L21.2274 1.34629C21.2274 0.736301 21.5307 0.431324 21.8339 0.126329C22.1372 -0.178666 22.7437 0.126348 23.0469 0.431343L41.2419 18.121L72.1733 2.56635C72.4765 2.26135 73.083 2.56627 73.3863 2.87127C73.6895 3.17626 73.6895 3.78633 73.6895 4.09132L58.8303 35.5058L83.6968 59.9054C84 60.2104 84 60.8204 84 61.4304C83.6968 61.7354 83.0902 62.0404 82.787 62.0404L50.3394 53.8055L36.3899 83.3901C36.0866 83.6951 35.7834 84 35.4801 84ZM31.2347 48.6205L36.0866 79.1201L48.2166 53.1955L31.2347 48.6205ZM51.5523 51.3656L79.4513 58.3804L58.2238 37.3358L51.5523 51.3656ZM30.6282 46.1806L49.1264 51.0606L56.1011 36.1158L40.6354 21.171L27.5957 27.8809L30.6282 46.1806ZM4.24549 39.4707L28.2022 45.5706L25.4729 28.7959L4.24549 39.4707ZM43.0614 19.646L57.3141 33.6758L70.3538 5.92122L43.0614 19.646ZM23.9567 4.39624L27.2924 25.136L39.1191 19.0361L23.9567 4.39624Z" fill="#CCCCCC"/>
<path d="M100.288 92.0462C100.288 92.0462 91.8969 63.8514 110.706 64.7417C129.514 65.6321 132.408 84.0329 120.255 78.9875C108.101 74.2389 126.621 55.2444 138.484 66.5224C150.638 77.8004 154.399 93.5302 139.931 92.9366C125.174 92.3431 133.276 82.8458 143.693 89.0783C154.11 95.3109 151.506 108.37 136.748 113.712C121.991 119.054 117.94 103.918 126.042 105.698C134.144 107.776 141.378 121.428 124.884 122.912C108.391 124.396 100.578 106.589 110.127 105.995C119.676 105.699 117.65 118.757 104.918 119.944C92.1863 121.131 84.0841 84.9233 95.3693 81.9554C106.944 79.5811 109.548 96.2012 100.288 92.0462Z" fill="#FE8F08"/>
<path d="M124.423 126C119.716 126 115.304 124.5 111.773 121.8C110.008 122.4 108.243 123 106.478 123.3C98.2412 124.2 91.7693 111.6 90.2984 99.5999C89.1217 90.2999 91.4751 83.9999 96.4762 82.7999C97.0645 82.4999 97.947 82.5 98.5354 82.5C98.2412 76.2 99.4179 71.4 102.066 68.4C104.419 65.7 107.655 64.7999 112.068 64.7999C115.598 65.0999 118.834 65.7 121.481 66.9C124.423 64.5 128.247 63 131.778 63C135.308 63 138.544 64.2 141.191 66.9C148.546 73.5 152.958 81.9 152.37 87.9C152.37 90 151.488 91.7999 150.311 93.2999C152.664 96.2999 153.547 99.9 152.664 103.5C151.488 109.2 146.192 114 138.544 116.7C137.955 117 137.661 117 137.367 117C137.661 118.8 137.073 120.3 136.19 121.8C134.425 124.2 131.189 125.7 126.482 126C125.6 126 125.012 126 124.423 126ZM113.833 120.6C117.363 123 121.481 124.2 126.188 123.9C130.307 123.6 133.249 122.4 134.425 120.6C135.014 119.7 135.308 118.8 135.308 117.6C130.013 118.5 125.306 116.7 123.246 113.1C122.364 111.3 122.07 109.5 122.952 108C123.835 106.5 125.6 105.9 127.953 106.5C131.778 107.4 135.602 111 137.073 114.9C137.367 114.9 137.955 114.6 138.25 114.6C145.016 112.2 149.723 108 150.899 102.9C151.488 99.9 150.899 96.9 148.84 94.5C147.369 95.4 145.31 95.7 142.956 95.7H142.074C133.543 95.4 132.954 92.1 132.954 91.2C132.954 89.1 135.602 87.2999 139.132 87.2999C140.897 87.2999 143.545 87.6 146.487 89.4C147.369 90 148.252 90.6 149.134 91.2C150.017 90.3 150.605 89.0999 150.605 87.2999C150.899 81.8999 146.781 74.3999 140.015 68.0999C137.661 65.9999 135.014 64.7999 132.072 64.7999C129.424 64.7999 126.482 65.7 124.129 67.5C129.13 70.8 131.189 75.2999 130.601 78.2999C130.013 81.5999 126.482 82.5 121.776 80.7C118.54 79.5 117.363 77.0999 117.069 75.5999C116.774 73.1999 117.657 70.1999 120.01 67.7999C117.657 66.8999 115.009 66.2999 112.362 66.2999C108.832 65.9999 105.89 67.2 104.125 69C101.183 72 100.889 77.3999 101.183 81.5999C106.184 82.1999 108.832 86.9999 108.832 90.2999C108.832 92.9999 107.067 94.5 104.713 94.5C103.831 94.5 102.654 94.1999 101.477 93.5999C101.183 93.5999 100.889 93.3 100.889 93C100.889 92.7 99.7121 88.8 99.1238 83.7C98.5354 83.7 97.9471 83.7 97.3587 84C92.946 85.2 92.0635 92.1 92.946 98.4C94.1227 109.2 100.006 120.9 106.478 120C107.949 120 109.126 119.7 110.303 119.1C107.361 115.8 105.89 111.9 106.772 109.2C107.067 108 108.243 105.9 111.773 105.9H112.362C115.892 105.9 118.245 107.7 119.128 110.4C119.128 114.6 117.363 118.2 113.833 120.6ZM111.773 108.9H111.479C109.714 108.9 108.832 109.5 108.537 110.7C107.949 112.5 109.126 116.1 112.068 119.1C115.598 117 116.774 114 116.48 111.9C115.892 110.1 114.421 108.9 111.773 108.9ZM125.894 108.3C125.306 108.3 124.717 108.6 124.423 108.9C124.129 109.5 124.129 110.7 124.717 111.6C125.306 112.5 127.071 115.2 132.072 115.2C132.954 115.2 133.543 115.2 134.425 114.9C133.249 111.9 130.013 109.2 127.071 108.3C126.777 108.6 126.188 108.3 125.894 108.3ZM138.544 89.7C135.896 89.7 134.719 90.6 134.719 91.2C134.719 91.8 136.484 93.2999 141.78 93.2999H142.368C144.133 93.2999 145.604 93 146.781 92.7C146.192 92.4 145.604 91.8 145.016 91.5C142.074 90 140.015 89.7 138.544 89.7ZM102.36 92.7C102.948 93 103.831 93 104.125 93C105.596 93 106.184 91.8 106.184 90.9C106.184 88.5 104.419 85.4999 100.889 84.5999C101.183 88.4999 102.066 91.5 102.36 92.7ZM121.776 69.5999C119.716 71.6999 118.54 74.1 118.834 75.9C119.128 77.4 120.305 78.6 122.07 79.2C125.306 80.4 127.365 80.0999 127.953 78.2999C128.542 75.8999 126.188 71.9999 121.776 69.5999Z" fill="white"/>
<path d="M222.956 114C216.704 114 211.048 111.898 205.988 107.694C193.187 97.184 191.401 76.1639 201.523 47.3365C208.965 25.7159 220.277 6.79783 220.277 6.49754C220.574 5.89697 221.17 5.89695 221.765 6.19724L293.507 48.8379C294.102 49.1382 294.102 49.7388 293.804 50.3393C292.018 52.7416 256.296 114 222.956 114ZM221.467 8.59958C216.407 17.3079 179.792 83.3708 207.179 105.892C211.941 109.796 217.3 111.598 222.956 111.598C252.724 111.598 286.362 57.8465 291.423 50.039L221.467 8.59958Z" fill="#CCCCCC"/>
<path d="M186.594 84C184.852 84 183.692 83.3943 182.821 82.7886C179.919 80.6687 179.049 76.4287 179.919 73.7031C180.5 71.886 181.66 70.9774 183.401 70.6746C183.982 70.6746 184.562 70.9774 184.562 71.8859C184.562 72.4916 184.272 73.0973 183.401 73.0973C183.111 73.0973 182.241 73.0973 181.951 74.3087C181.37 76.1258 182.241 79.4572 183.982 80.9715C185.433 82.1829 187.464 82.1829 189.786 80.6686C191.527 79.7601 192.398 78.5487 192.398 77.0345C192.978 73.4002 189.205 68.2517 185.143 62.8004C178.178 53.412 169.762 41.9037 176.437 29.7896C180.209 23.1269 184.852 19.4926 190.366 18.2812C200.233 16.4641 209.229 24.0354 209.519 24.3383C210.1 24.6411 210.1 25.5497 209.809 25.8525C209.519 26.4582 208.649 26.4582 208.358 26.1554C208.358 26.1554 199.653 18.887 190.947 20.7041C186.013 21.6127 181.951 25.2469 178.468 31.001C172.374 41.9037 180.209 52.2006 186.884 61.589C191.237 67.646 195.3 72.7945 194.429 77.6401C194.139 79.7601 192.688 81.2744 190.656 82.7886C189.205 83.6972 187.754 84 186.594 84Z" fill="#CCCCCC"/>
<path d="M249.71 120C248.835 120 248.251 120 247.376 119.694C245.917 119.083 243.292 117.554 243 112.355C243 109.297 243.583 107.156 245.042 105.627C248.251 102.263 254.377 102.263 261.379 102.263C272.173 102.263 284.133 102.569 291.135 91.5599C294.344 86.3612 295.511 81.4684 294.052 76.8813C291.718 68.9303 282.675 65.2606 282.675 65.2606C282.091 64.9548 281.8 64.3432 282.091 63.7316C282.383 63.12 282.966 62.8142 283.55 63.12C283.842 63.4258 293.76 67.4012 296.386 76.2696C297.844 81.4683 296.678 86.9729 293.177 92.7832C285.592 104.71 272.464 104.404 261.67 104.404C255.252 104.404 249.418 104.404 247.084 106.85C245.917 108.073 245.626 109.603 245.626 112.049C245.626 113.884 246.209 116.33 248.543 117.248C250.877 118.165 253.794 116.636 254.961 115.107C255.544 114.19 255.836 113.578 255.252 112.966C254.961 112.355 255.252 111.743 255.544 111.437C256.128 111.132 256.711 111.437 257.003 111.743C257.878 113.272 257.586 115.107 256.419 116.636C254.961 118.471 252.335 120 249.71 120Z" fill="#CCCCCC"/>
<path d="M196.069 132C195.777 132 195.777 132 195.484 131.71C194.9 131.419 194.9 130.839 195.192 130.258L208.054 108.481C208.346 107.9 208.931 107.9 209.516 108.191C210.1 108.481 210.1 109.062 209.808 109.642L196.946 131.419C196.654 132 196.361 132 196.069 132Z" fill="#CCCCCC"/>
<path d="M211.861 144C211.549 144 211.549 144 211.238 144L183.516 128.153C182.893 127.829 182.893 127.183 183.205 126.536C183.516 125.889 184.139 125.889 184.762 126.212L212.484 142.06C213.107 142.383 213.107 143.03 212.795 143.677C212.795 143.677 212.172 144 211.861 144Z" fill="#CCCCCC"/>
<path d="M275.625 54C265.608 54 240.109 50.5565 222.199 19.8783C221.896 19.5652 221.896 18.9391 222.503 18.3131C222.807 18 223.414 18 224.021 18L281.393 51.4957C281.696 51.8087 282 52.1218 282 52.7478C282 53.3739 281.393 53.687 281.089 53.687C280.482 53.687 278.661 54 275.625 54ZM226.449 22.3827C243.448 48.6783 266.215 51.4957 275.322 51.4957C275.625 51.4957 275.929 51.4957 276.536 51.4957L226.449 22.3827Z" fill="#CCCCCC"/>
</svg>
