<svg width="212" height="169" viewBox="0 0 212 169" fill="none" xmlns="http://www.w3.org/2000/svg">
<path d="M44.6761 169C44.4394 169 44.2027 168.76 43.966 168.521L0.177521 102.635C-0.0591736 102.396 -0.0591736 101.917 0.177521 101.677C0.414216 101.438 24.0837 70.0521 54.6173 70.0521C58.6411 70.0521 62.4282 70.5313 66.452 71.4896C67.8722 65.9792 76.8666 38.1875 112.607 31C112.844 31 113.318 31 113.554 31.4792L159.236 97.125C159.473 97.3646 159.473 97.6042 159.236 97.8438C159.236 98.0834 159 98.3229 158.763 98.3229C158.289 98.5625 107.4 114.135 106.217 133.302C106.217 133.781 105.98 134.021 105.507 134.021C105.033 134.021 50.1201 144.802 45.8596 167.802C45.3862 168.521 45.1495 168.76 44.6761 169C44.9128 169 44.6761 169 44.6761 169ZM2.07108 102.396L44.2027 165.885C50.8302 144.083 97.6957 134.021 104.086 132.823C106.217 114.375 148.822 99.7604 156.633 97.3646L112.134 33.1563C92.4884 37.2292 81.6005 47.7709 75.6831 55.9167C69.2924 64.7813 67.6355 72.9271 67.6355 72.9271C67.6355 73.1667 67.3988 73.4062 67.1621 73.4062C66.9254 73.6458 66.6887 73.6458 66.452 73.4062C62.4282 72.2083 58.4044 71.7292 54.3806 71.7292C27.1607 71.9688 5.14811 98.3229 2.07108 102.396Z" fill="#CCCCCC"/>
<path d="M106.185 133.311C105.943 133.311 105.701 133.074 105.46 132.837L66.7794 72.7918C66.5376 72.3171 66.5377 71.8424 67.0212 71.6051C67.5047 71.3678 67.9882 71.3678 68.2299 71.8425L106.91 131.887C107.152 132.362 107.152 132.837 106.668 133.074C106.668 133.074 106.427 133.311 106.185 133.311Z" fill="#CCCCCC"/>
<path d="M43.664 169C43.425 169 43.1861 169 43.1861 168.764C42.7082 168.527 42.7082 167.816 43.1861 167.579C43.903 166.869 59.4353 149.343 104.36 133.239C106.51 131.344 131.84 109.319 158.125 97.714C158.603 97.4772 159.081 97.714 159.32 98.1876C159.559 98.6613 159.32 99.135 158.842 99.3718C131.84 111.213 105.554 134.423 105.315 134.66L105.076 134.897C60.3911 150.764 44.6198 168.527 44.3809 168.764C44.1419 168.764 43.9029 169 43.664 169Z" fill="#CCCCCC"/>
<path d="M12.7448 107.138C12.5128 107.138 12.5128 107.138 12.2808 106.902C11.8169 106.666 11.8169 106.194 12.0488 105.722C12.2808 105.486 15.7603 99.3508 23.8792 92.9798C31.3021 87.0807 44.2922 79.7658 63.3135 78.5859C63.7774 78.5859 64.2413 78.822 64.2413 79.5299C64.2413 80.0018 64.0094 80.4737 63.3135 80.4737C27.8226 82.5974 13.4407 106.43 13.4407 106.666C13.4407 106.902 12.9767 107.138 12.7448 107.138Z" fill="#CCCCCC"/>
<path d="M17.5035 114.276C17.2716 114.276 17.2716 114.276 17.0396 114.04C16.5757 113.804 16.5757 113.332 16.8076 112.861C17.0396 112.625 20.5191 106.49 28.6379 100.118C36.0609 94.2193 49.051 86.9044 68.0722 85.7246C68.5362 85.7246 69.0001 85.9606 69.0001 86.6685C69.0001 87.1404 68.7681 87.6123 68.0722 87.6123C32.5814 89.736 18.1994 113.568 18.1994 113.804C18.1994 114.04 17.9675 114.276 17.5035 114.276Z" fill="#CCCCCC"/>
<path d="M22.2621 123.794C22.0301 123.794 22.0301 123.794 21.7981 123.558C21.3342 123.322 21.3342 122.85 21.5662 122.378C21.7982 122.142 25.2776 116.007 33.3965 109.636C40.8194 103.737 53.8095 96.422 72.8308 95.2422C73.2947 95.2422 73.7586 95.4781 73.7586 96.186C73.7586 96.658 73.5267 97.1299 72.8308 97.1299C37.5719 99.2536 22.958 123.086 22.958 123.322C22.726 123.794 22.4941 123.794 22.2621 123.794Z" fill="#CCCCCC"/>
<path d="M27.0206 130.931C26.7886 130.931 26.7887 130.931 26.5567 130.695C26.0928 130.459 26.0928 129.987 26.3247 129.515C26.5567 129.279 30.0362 123.144 38.155 116.773C45.5779 110.874 58.5681 103.559 77.5893 102.379C78.0532 102.379 78.5172 102.615 78.5172 103.323C78.5172 103.795 78.2852 104.267 77.5893 104.267C42.0984 106.39 27.7165 130.223 27.7165 130.459C27.4846 130.695 27.2526 130.931 27.0206 130.931Z" fill="#CCCCCC"/>
<path d="M34.1588 142.827C33.9268 142.827 33.9269 142.827 33.6949 142.591C33.231 142.355 33.2309 141.883 33.4629 141.411C33.6949 141.175 37.1744 135.04 45.2932 128.669C52.7161 122.77 65.7063 115.455 84.7275 114.275C85.1915 114.275 85.6554 114.511 85.6554 115.219C85.6554 115.691 85.4234 116.163 84.7275 116.163C49.2366 118.287 34.8547 142.119 34.8547 142.355C34.8547 142.591 34.3908 142.827 34.1588 142.827Z" fill="#CCCCCC"/>
<path d="M41.2965 152.345C41.0645 152.345 41.0646 152.345 40.8326 152.109C40.3687 151.873 40.3686 151.401 40.6006 150.929C40.8326 150.693 44.3121 144.558 52.4309 138.187C59.8538 132.288 72.844 124.973 91.8652 123.793C92.3291 123.793 92.7931 124.029 92.7931 124.737C92.7931 125.209 92.5611 125.681 91.8652 125.681C56.3743 127.804 41.9924 151.637 41.9924 151.873C41.7605 152.345 41.5285 152.345 41.2965 152.345Z" fill="#CCCCCC"/>
<path d="M74.5396 73.8275H74.3094C73.8491 73.5877 73.6189 73.1082 73.8491 72.6286C73.8491 72.3889 83.0561 44.0954 110.907 42.8965C111.367 42.8965 111.828 43.376 111.828 43.8556C111.828 44.3351 111.367 44.8147 110.907 44.8147C84.2069 46.0136 75.4603 73.1082 75.2301 73.348C75.2301 73.5878 74.7698 73.8275 74.5396 73.8275Z" fill="#CCCCCC"/>
<path d="M81.6924 80.9658H81.4578C80.9885 80.7279 80.7539 80.252 80.9885 79.7761C80.9885 79.5382 91.7815 52.4141 119.937 52.4141C120.172 52.4141 120.172 52.4141 120.406 52.4141C120.876 52.4141 121.345 52.8899 121.345 53.3658C121.345 53.8417 120.876 54.3175 120.406 54.3175C93.1893 53.8417 82.8656 80.4899 82.6309 80.7278C82.3963 80.7278 81.9271 80.9658 81.6924 80.9658Z" fill="#CCCCCC"/>
<path d="M84.0718 90.4834H83.8372C83.3679 90.2455 83.1333 89.7697 83.3679 89.294C83.3679 89.0561 94.1609 61.462 122.786 61.9377C123.255 61.9377 123.724 62.4135 123.724 62.8892C123.724 63.365 123.255 63.8407 122.786 63.8407C122.551 63.8407 122.551 63.8407 122.316 63.8407C95.334 63.8407 85.245 90.0076 85.0103 90.2455C84.5411 90.2455 84.3065 90.4834 84.0718 90.4834Z" fill="#CCCCCC"/>
<path d="M91.2095 100.001H90.9749C90.5056 99.763 90.271 99.2871 90.5056 98.8113C90.5056 98.5734 101.299 71.4492 129.454 71.4492C129.689 71.4492 129.689 71.4492 129.923 71.4492C130.393 71.4492 130.862 71.9251 130.862 72.4009C130.862 72.8768 130.393 73.3527 129.923 73.3527C129.689 73.3527 129.689 73.3527 129.454 73.3527C102.472 73.3527 92.3826 99.5251 92.148 99.7631C91.6788 99.7631 91.4441 100.001 91.2095 100.001Z" fill="#CCCCCC"/>
<path d="M98.6004 109.517C98.3616 109.517 98.3616 109.517 98.1229 109.517C97.6454 109.268 97.4067 108.772 97.6454 108.275C97.8842 108.027 110.298 80.9648 138.947 80.9648C139.186 80.9648 139.186 80.9648 139.424 80.9648C139.902 80.9648 140.379 81.4615 140.379 81.958C140.379 82.4546 139.902 82.9511 139.424 82.9511C139.186 82.9511 139.186 82.9511 138.947 82.9511C111.492 82.9511 99.5553 109.02 99.3166 109.268C99.3166 109.268 99.0778 109.517 98.6004 109.517Z" fill="#CCCCCC"/>
<path d="M105.481 116.655C105.247 116.655 105.248 116.655 105.248 116.655C104.781 116.419 104.548 115.947 104.781 115.476C104.781 115.24 115.978 90.4824 143.738 90.4824C143.971 90.4824 144.205 90.4824 144.205 90.4824C144.671 90.4824 145.138 90.9541 145.138 91.4256C145.138 91.8972 144.671 92.3688 144.205 92.3688C143.971 92.3688 143.971 92.3688 143.738 92.3688C116.911 92.3688 106.414 116.183 106.181 116.419C106.181 116.419 105.947 116.655 105.481 116.655Z" fill="#CCCCCC"/>
<path d="M159.288 29.064C159.288 29.064 150.897 0.8854 169.706 1.77525C188.514 2.6651 191.408 21.0554 179.255 16.0129C167.101 10.9704 185.621 -7.71648 197.485 3.55497C209.638 14.8264 213.4 30.5471 198.931 29.9539C184.174 29.3607 192.276 19.8689 202.693 26.0979C213.11 32.3268 210.506 45.378 195.748 50.7171C180.991 56.0562 176.94 40.9287 185.042 42.7084C193.144 44.7848 200.378 58.4292 183.884 59.9122C167.391 61.3953 159.578 43.5983 169.127 43.0051C178.676 42.4118 176.65 55.7596 163.918 56.9461C151.186 58.4292 143.084 21.9452 154.369 18.9791C165.654 16.0129 168.837 33.2167 159.288 29.064Z" fill="#FE8F08"/>
<path d="M183.423 63C178.716 63 174.304 61.5 170.773 58.8C169.008 59.4 167.243 60 165.478 60.3C157.241 61.2 150.769 48.6 149.298 36.6C148.122 27.3 150.475 21 155.476 19.8C156.064 19.5 156.947 19.5 157.535 19.5C157.241 13.2 158.418 8.40001 161.066 5.40001C163.419 2.70001 166.655 1.49997 171.068 1.79997C174.598 2.09997 177.834 2.70001 180.481 3.90001C183.423 1.50001 187.247 0 190.778 0C194.308 0 197.544 1.20001 200.191 3.90001C207.546 10.5 211.958 18.9 211.37 24.9C211.37 27 210.488 28.8 209.311 30.3C211.664 33.3 212.547 36.9 211.664 40.5C210.488 46.2 205.192 51 197.544 53.7C196.955 54 196.661 54 196.367 54C196.661 55.8 196.073 57.3 195.19 58.8C193.425 61.2 190.189 62.7 185.482 63C184.6 62.7 184.011 63 183.423 63ZM172.833 57.3C176.363 59.7 180.481 60.9 185.188 60.6C189.307 60.3 192.249 59.1 193.425 57.3C194.014 56.4 194.308 55.5 194.308 54.3C189.013 55.2 184.306 53.4 182.246 49.8C181.364 48 181.07 46.2 181.952 44.7C182.835 43.2 184.6 42.6 186.953 43.2C190.778 44.1 194.602 47.7 196.073 51.6C196.367 51.6 196.955 51.3 197.25 51.3C204.016 48.9 208.722 44.7 209.899 39.6C210.488 36.6 209.899 33.6 207.84 31.2C206.369 32.1 204.31 32.4 201.956 32.4H201.074C192.543 32.1 191.954 28.8 191.954 27.9C191.954 25.8 194.602 24 198.132 24C199.897 24 202.545 24.3 205.487 26.1C206.369 26.7 207.252 27.3 208.134 27.9C209.017 27 209.605 25.8 209.605 24C209.899 18.6 205.781 11.1 199.015 4.79997C196.661 2.69997 194.014 1.5 191.072 1.5C188.424 1.5 185.482 2.39998 183.129 4.19998C188.13 7.49998 190.189 12 189.601 15C189.013 18.3 185.482 19.2 180.776 17.4C177.54 16.2 176.363 13.8 176.069 12.3C175.774 9.89997 176.657 6.9 179.01 4.5C176.657 3.6 174.009 3 171.362 3C167.832 3 164.89 3.89998 163.125 5.69998C160.183 8.69998 159.889 14.1 160.183 18.3C165.184 18.9 167.832 23.7 167.832 27C167.832 29.7 166.067 31.2 163.713 31.2C162.831 31.2 161.654 30.9 160.477 30.3C160.183 30.3 159.889 30 159.889 29.7C159.889 29.4 158.712 25.5 158.124 20.4C157.535 20.4 156.947 20.4 156.359 20.7C151.946 21.9 151.063 28.8 151.946 35.1C153.123 45.9 159.006 57.6 165.478 56.7C166.949 56.7 168.126 56.4 169.303 55.8C166.361 52.5 164.89 48.6 165.772 45.9C166.067 44.7 167.243 42.6 170.773 42.6H171.362C174.892 42.6 177.245 44.4 178.128 47.1C178.128 51.3 176.363 54.9 172.833 57.3ZM170.773 45.9H170.479C168.714 45.9 167.832 46.5 167.537 47.7C166.949 49.5 168.126 53.1 171.068 56.1C174.598 54 175.774 51 175.48 48.9C174.892 46.8 173.421 45.9 170.773 45.9ZM184.894 45.3C184.306 45.3 183.717 45.6 183.423 45.9C183.129 46.5 183.129 47.7 183.717 48.6C184.306 49.5 186.071 52.2 191.072 52.2C191.954 52.2 192.543 52.2 193.425 51.9C192.249 48.9 189.013 46.2 186.071 45.3C185.777 45.3 185.482 45.3 184.894 45.3ZM197.544 26.4C194.896 26.4 193.719 27.3 193.719 27.9C193.719 28.5 195.484 30 200.78 30H201.368C203.133 30 204.604 29.7 205.487 29.4C204.898 29.1 204.31 28.5 203.721 28.2C201.074 26.7 199.015 26.4 197.544 26.4ZM161.36 29.4C161.948 29.7 162.831 29.7 163.125 29.7C164.596 29.7 165.184 28.5 165.184 27.6C165.184 25.2 163.419 22.2 159.889 21.3C160.183 25.2 161.066 28.2 161.36 29.4ZM180.776 6.29997C178.716 8.39997 177.54 10.8 177.834 12.6C178.128 14.1 179.305 15.3 181.07 15.9C184.306 17.1 186.365 16.8 186.953 15C187.542 12.9 185.188 8.69997 180.776 6.29997Z" fill="white"/>
</svg>
