<svg width="75" height="72" viewBox="0 0 75 72" fill="none" xmlns="http://www.w3.org/2000/svg">
<path fill-rule="evenodd" clip-rule="evenodd" d="M50.7677 70.6178C57.5855 74.0882 65.0852 70.6178 68.835 64.718C76.6756 60.2065 76.6756 48.407 70.8804 41.1191C67.8124 36.9546 64.0625 37.3016 60.6536 39.0368C60.3127 39.0368 59.9718 39.0368 59.6309 39.0368C58.9491 27.2374 64.7443 17.5201 70.5395 7.10884C70.8804 7.45589 71.9031 7.80293 72.244 7.10884C72.9258 5.72067 73.9484 4.3325 74.2893 2.59728C74.2893 2.25024 74.2893 1.55615 73.9484 1.20911C73.9484 0.167976 72.5849 -0.52611 71.5622 0.51502C71.2213 0.862063 71.2213 1.20911 70.8804 1.55615C64.4034 6.41476 58.6082 12.6615 54.1766 19.6024C48.7223 24.461 44.9725 30.7078 43.9498 37.9957C42.2453 41.8132 41.5635 45.9777 41.2226 49.4481C40.1999 58.4713 42.5862 66.4532 50.7677 70.6178ZM70.5395 54.3067C70.5395 54.6538 69.1759 55.3479 68.835 55.6949C68.835 54.3067 67.8124 52.5715 67.1306 51.1833C67.1306 50.4893 68.1533 49.4481 68.1533 48.754C69.1759 50.4893 70.5395 52.2245 70.5395 54.3067C70.5395 53.9597 70.5395 53.9597 70.5395 54.3067ZM68.1533 42.1602C71.5622 44.9366 72.5849 50.8363 72.244 55.0008C72.244 56.042 71.9031 57.0831 71.5622 58.1242C71.5622 57.7772 71.5622 57.7772 71.5622 57.4301C72.5849 54.6538 72.5849 51.8774 71.5622 49.1011C71.5622 48.754 71.5622 48.407 71.5622 48.06C71.5622 47.3659 71.2213 46.6718 70.8804 45.9777C70.5395 44.9366 70.1986 44.2425 69.5168 43.2014C68.835 42.1602 67.1306 41.4661 65.767 41.1191C65.0852 41.4661 64.7443 41.1191 64.4034 41.1191C65.767 40.772 66.7897 41.1191 68.1533 42.1602ZM55.8811 66.8003C57.9264 67.1473 60.3127 67.1473 62.0172 66.4532C62.358 66.4532 63.0398 66.4532 63.3807 66.4532H63.7216C62.0172 67.8414 59.9718 68.8826 57.5855 68.8826C57.9264 68.5355 57.9264 68.1885 57.2446 68.1885C55.8811 68.1885 54.5175 67.8414 53.4948 67.4944C54.8584 67.1473 55.5402 66.8003 55.8811 66.8003ZM52.813 37.3016C52.813 38.3427 52.813 40.078 53.1539 41.4661C53.1539 41.4661 52.813 41.4661 52.813 41.8132C52.813 40.425 52.813 38.6898 52.813 37.3016ZM44.6316 56.389C44.9725 56.736 45.6542 56.389 45.6542 55.6949C44.9725 52.9186 44.9725 50.1422 45.6542 47.3659C45.6542 48.06 45.6542 48.754 45.6542 49.4481C45.6542 49.7952 45.6542 49.7952 45.6542 50.1422C45.3134 51.5304 45.3134 52.5715 45.6542 53.9597C45.9951 57.7772 46.6769 61.9417 48.3814 64.718C45.6542 62.6358 44.6316 59.5124 44.6316 56.389C44.6316 56.042 44.6316 56.389 44.6316 56.389Z" fill="#01D8DC"/>
<path fill-rule="evenodd" clip-rule="evenodd" d="M9.86422 70.6178C16.6549 74.0882 24.1247 70.6178 27.8596 64.718C35.6689 60.2065 35.6689 48.407 29.8968 41.1191C26.841 36.9546 23.1061 37.3016 19.7108 39.0368C19.3712 39.0368 19.0317 39.0368 18.6921 39.0368C18.0131 27.2374 23.7852 17.5201 29.5573 7.10884C29.8968 7.45589 30.9154 7.80293 31.255 7.10884C31.934 5.72067 32.9526 4.3325 33.2922 2.59728C33.2922 2.25024 33.2922 1.55615 32.9526 1.20911C32.9526 0.167976 31.5945 -0.52611 30.5759 0.51502C30.2364 0.862063 30.2364 1.20911 29.8968 1.55615C23.4456 6.41476 17.6735 12.6615 13.2596 19.9494C7.82701 24.8081 4.09212 31.0548 3.07351 38.3427C1.37584 42.1602 0.696766 46.3247 0.35723 49.7952C-1.00091 58.4713 1.37584 66.4532 9.86422 70.6178ZM28.8782 53.9597C28.8782 54.3067 27.8596 55.0008 27.5201 55.3479C27.5201 53.9597 26.5015 52.2245 25.8224 50.8363C25.8224 50.1422 26.5015 49.1011 26.5015 48.407C27.5201 50.1422 28.8782 52.2245 28.8782 53.9597ZM26.841 42.1602C30.2364 44.9366 31.255 50.8363 30.9154 55.0008C30.9154 56.042 30.5759 57.0831 30.2364 58.1242C30.2364 57.7772 30.2364 57.7772 30.2364 57.4301C31.255 54.6538 31.255 51.8774 30.2364 49.1011C30.2364 48.754 30.2364 48.407 30.2364 48.06C30.2364 47.3659 29.8968 46.6718 29.5573 45.9777C29.2177 44.9366 28.8782 44.2425 28.1991 43.2014C27.5201 42.1602 25.8224 41.4661 24.4643 41.1191C24.1247 40.772 23.7852 40.772 23.4456 40.425C24.4642 40.772 25.8224 41.1191 26.841 42.1602ZM14.9573 66.4533C16.9945 66.8003 19.3712 66.8003 21.0689 66.1062C21.4084 66.1062 22.0875 66.1062 22.427 66.1062H22.7666C21.0689 67.4944 19.0317 68.5355 16.6549 68.5355C16.9945 68.1885 16.9945 67.8414 16.3154 67.8414C14.9573 67.8414 13.5991 67.4944 12.5805 67.1473C13.5991 66.8003 14.2782 66.8003 14.9573 66.4533ZM11.9014 37.3016C11.9014 37.3016 11.9014 36.9546 11.9014 37.3016C11.9014 38.3427 11.9014 40.078 12.241 41.4661C12.241 41.4661 11.9014 41.4661 11.9014 41.8132C11.5619 40.078 11.5619 38.6898 11.9014 37.3016ZM3.41305 56.389C3.75259 56.736 4.43166 56.389 4.43166 55.6949C3.75258 52.9186 3.75258 50.1422 4.43166 47.3659C4.43166 48.06 4.43166 48.754 4.43166 49.4481C4.43166 49.7952 4.43166 49.7952 4.43166 50.1422C4.09212 51.5304 4.09212 52.5715 4.43166 53.9597C4.77119 57.7772 5.45026 61.9417 7.14794 64.718C4.43165 62.2887 3.41305 59.1653 3.41305 56.389C3.41305 56.042 3.41305 56.042 3.41305 56.389Z" fill="#01D8DC"/>
</svg>
