<svg width="251" height="281" viewBox="0 0 251 281" fill="none" xmlns="http://www.w3.org/2000/svg">
<path d="M88.1491 61C88.2822 61 88.4154 61 88.4154 60.8668C88.5485 60.7336 88.6816 60.4672 88.5485 60.334L81.7589 45.0171L90.8117 36.8924C90.9448 36.7592 91.078 36.4929 90.9449 36.3597C90.8117 36.2265 90.6786 36.0933 90.4123 36.0933L78.4307 37.4252L73.9043 27.3027C73.7711 27.1695 73.6381 26.9031 73.3718 27.0363C73.1055 27.0363 72.9724 27.1695 72.9724 27.4359L70.3099 38.3575L55.3994 39.9558C55.1331 39.9558 55 40.089 55 40.3554C55 40.6218 54.9999 40.755 55.2662 40.8882L67.9135 48.6133L65.5172 58.4694C65.5172 58.7358 65.5172 58.8689 65.7834 59.0021C65.9166 59.1353 66.1828 59.1353 66.316 59.0021L73.7712 52.2094L87.8828 60.8668C88.016 60.8668 88.016 61 88.1491 61ZM81.0933 45.683L87.0841 59.1353L74.5699 51.4102L81.0933 45.683ZM72.8393 51.6766L66.7153 57.1375L68.7123 49.146L72.8393 51.6766ZM80.5607 44.7507L73.6381 51.0107L68.9786 48.0805L71.1086 39.1567L77.765 38.4907L80.5607 44.7507ZM70.1767 39.2899L68.1797 47.5477L57.13 40.755L70.1767 39.2899ZM89.081 37.1588L81.4926 43.9516L78.9632 38.2243L89.081 37.1588ZM77.3657 37.4252L71.3749 38.0911L73.6381 29.0342L77.3657 37.4252Z" fill="#26192A"/>
<path d="M211.509 203C211.764 203 211.891 202.865 212.019 202.596L215.966 186.709C216.093 186.44 215.839 186.17 215.584 186.036C215.329 185.901 215.075 186.17 214.947 186.44L211 202.327C211 202.596 211.127 202.865 211.509 203Z" fill="#26192A"/>
<path d="M221.429 197C221.697 197 221.831 196.876 221.964 196.627C222.098 196.379 221.831 196.131 221.563 196.007L206.705 192.033C206.437 191.909 206.169 192.157 206.036 192.406C205.902 192.654 206.169 192.902 206.437 193.026L221.295 197C221.429 197 221.429 197 221.429 197Z" fill="#26192A"/>
<path d="M206.505 198C206.643 198 206.644 198 206.782 197.871L219.771 189.86C220.047 189.731 220.047 189.472 219.909 189.214C219.771 188.956 219.495 188.956 219.218 189.085L206.229 197.096C205.953 197.225 205.953 197.483 206.091 197.742C206.091 197.871 206.229 198 206.505 198Z" fill="#26192A"/>
<path d="M216.538 201C216.664 201 216.664 201 216.791 201C217.043 200.869 217.043 200.606 216.917 200.344L209.841 187.217C209.715 186.955 209.462 186.955 209.209 187.086C208.957 187.217 208.957 187.48 209.083 187.743L216.159 200.869C216.159 200.869 216.412 201 216.538 201Z" fill="#26192A"/>
<path d="M9.48384 100C9.87094 99.8627 10 99.5882 10 99.3137L7.03225 86.4117C7.03225 86.1372 6.77418 86 6.38708 86C6.12902 86 6 86.4118 6 86.6863L8.96775 99.5883C9.09678 99.8628 9.22577 100 9.48384 100Z" fill="#26192A"/>
<path d="M2.40623 95C2.40623 95 2.54165 95 2.40623 95L14.5938 92.0769C14.8646 92.0769 15 91.7692 15 91.4615C15 91.1538 14.7292 91 14.4584 91L2.40623 93.9231C2.1354 93.9231 2 94.2307 2 94.5384C2 94.8461 2.1354 95 2.40623 95Z" fill="#26192A"/>
<path d="M4.61761 99C4.75822 99 5.03941 98.8595 5.03941 98.719L10.9448 87.7578C11.0854 87.4767 10.9448 87.1957 10.6636 87.0551C10.3824 86.9146 10.1012 87.0551 9.96059 87.3362L4.05516 98.2974C3.91455 98.5784 4.05517 98.8595 4.33638 99C4.33638 98.8595 4.47701 99 4.61761 99Z" fill="#26192A"/>
<path d="M12.5229 97C12.6534 97 12.7838 96.8588 12.9143 96.7176C13.0448 96.4352 13.0448 96.1528 12.7839 96.0116L2.73803 89.0927C2.4771 88.9515 2.21617 88.9516 2.08571 89.234C1.95524 89.5164 1.95521 89.7988 2.21614 89.94L12.262 96.8588C12.3924 97 12.3924 97 12.5229 97Z" fill="#26192A"/>
<path d="M196.574 213H196.699C196.951 212.868 197.076 212.604 196.951 212.339L192.929 200.316C192.803 200.052 192.552 199.92 192.301 200.052C192.049 200.184 191.924 200.448 192.049 200.712L196.071 212.736C196.197 212.868 196.322 213 196.574 213Z" fill="#26192A"/>
<path d="M189.556 208H189.683L200.697 204.044C200.95 203.903 201.077 203.621 200.95 203.338C200.824 203.055 200.571 202.914 200.317 203.055L189.303 207.011C189.05 207.152 188.923 207.435 189.05 207.717C189.176 207.859 189.43 208 189.556 208Z" fill="#26192A"/>
<path d="M192.526 212C192.645 212 192.885 211.866 192.885 211.732L196.953 200.724C197.073 200.455 196.953 200.187 196.714 200.053C196.474 199.918 196.235 200.053 196.115 200.321L192.047 211.329C191.927 211.597 192.047 211.866 192.286 212C192.406 212 192.406 212 192.526 212Z" fill="#26192A"/>
<path d="M199.547 209C199.68 209 199.948 208.876 199.948 208.752C200.081 208.504 199.948 208.256 199.68 208.132L188.721 203.049C188.453 202.925 188.186 203.049 188.052 203.297C187.919 203.545 188.052 203.793 188.32 203.917L199.279 209C199.413 209 199.547 209 199.547 209Z" fill="#26192A"/>
<path d="M81.3636 86.0784L81.9091 81L77.6819 83.4706L73.5909 81.6863L74.8182 86.3529L71 90.4706L76.5909 89.3725L77.8182 95L80.6818 89.098L86 89.5098L81.3636 86.0784Z" fill="#ACDBCF"/>
<path d="M245.8 60.2L242.16 57L241.77 61.6667L238 63.9333L242.29 65.5333L243.33 71L245.67 65.9333L250.61 68.2L247.75 62.6L251 58.4667L245.8 60.2Z" fill="#F0AFB6"/>
<path d="M173.8 268.2L170.16 265L169.77 269.667L166 271.933L170.29 273.533L171.33 279L173.67 273.933L178.61 276.2L175.75 270.6L179 266.6L173.8 268.2Z" fill="#F0AFB6"/>
<path d="M11.8739 281C12.0069 281 12.007 281 12.14 281L48.7338 259.659C48.8669 259.524 49 259.389 49 259.118C49 258.983 48.8669 258.713 48.7338 258.713L26.1122 250.204L11.4747 224.27C11.4747 224.135 11.3416 224.135 11.2085 224C11.0755 224 10.9424 224 10.8093 224L5.22046 227.242C4.95432 227.377 4.95435 227.647 5.08742 227.917L18.7934 254.526L11.6078 280.325C11.6078 280.46 11.6078 280.73 11.7408 280.865C11.7408 280.865 11.7408 281 11.8739 281ZM47.2701 259.254L12.6723 279.379L19.5919 254.526C19.5919 254.391 19.5919 254.256 19.5919 254.121L6.01891 227.782L10.6763 225.081L25.1807 250.744C25.1807 250.879 25.3138 250.879 25.4469 251.014L47.2701 259.254Z" fill="#26192A"/>
<path d="M2.49689 230C2.63277 230 2.63278 230 2.76866 230L13.7749 223.885C14.0466 223.752 14.0466 223.486 13.9107 223.22C13.7749 222.954 13.5031 222.954 13.2313 223.087L2.22511 229.202C1.95335 229.335 1.95339 229.601 2.08926 229.867C2.08926 229.867 2.36101 230 2.49689 230Z" fill="#26192A"/>
<path d="M28.8666 255L43 259.762L17 275L19.2666 262.211L28.8666 255Z" fill="#DB6362"/>
<path d="M21.499 251C21.6354 251 21.6355 251 21.7719 251L24.7739 249.07C25.0468 248.91 25.0468 248.588 24.9104 248.266C24.7739 247.945 24.501 247.945 24.2281 248.106L21.2261 250.035C20.9532 250.196 20.9532 250.518 21.0896 250.839C21.0896 250.839 21.3625 251 21.499 251Z" fill="#26192A"/>
<path d="M19.499 247C19.6355 247 19.6355 247 19.7719 247L22.7739 245.07C23.0468 244.91 23.0468 244.588 22.9104 244.266C22.7739 243.945 22.501 243.945 22.2281 244.106L19.2261 246.035C18.9532 246.196 18.9532 246.518 19.0896 246.839C19.0896 246.839 19.3625 247 19.499 247Z" fill="#26192A"/>
<path d="M16.499 242C16.6354 242 16.6354 242 16.7719 242L19.7739 240.07C20.0468 239.91 20.0468 239.588 19.9104 239.266C19.7739 238.945 19.501 238.945 19.2281 239.106L16.2261 241.035C15.9532 241.196 15.9532 241.518 16.0896 241.839C16.2261 241.839 16.3625 242 16.499 242Z" fill="#26192A"/>
<path d="M14.499 238C14.6355 238 14.6354 238 14.7719 238L17.7739 236.07C18.0468 235.91 18.0468 235.588 17.9104 235.266C17.7739 234.945 17.501 234.945 17.2281 235.106L14.2261 237.035C13.9532 237.196 13.9532 237.518 14.0896 237.839C14.0896 238 14.2261 238 14.499 238Z" fill="#26192A"/>
<path d="M11.499 234C11.6354 234 11.6354 234 11.7719 234L14.7739 232.07C15.0468 231.91 15.0468 231.588 14.9104 231.266C14.7739 230.945 14.501 230.945 14.2281 231.106L11.2261 233.035C10.9532 233.196 10.9532 233.518 11.0896 233.839C11.0896 233.839 11.2261 234 11.499 234Z" fill="#26192A"/>
<path d="M9.49896 231C9.63542 231 9.63544 231 9.77189 231L12.7739 229.07C13.0468 228.91 13.0468 228.588 12.9104 228.266C12.7739 227.945 12.501 227.945 12.2281 228.106L9.22612 230.035C8.95321 230.196 8.95316 230.518 9.08961 230.839C9.22607 230.839 9.36251 231 9.49896 231Z" fill="#26192A"/>
<path d="M7.00004 220C10.8432 220 14 216.843 14 213C14 209.157 10.8432 206 7.00004 206C3.15691 206 0 209.157 0 213C0 216.843 3.15691 220 7.00004 220ZM7.00004 207.235C10.2942 207.235 12.902 209.843 12.902 213.137C12.902 216.431 10.2942 219.039 7.00004 219.039C3.70593 219.039 1.09802 216.431 1.09802 213.137C1.09802 209.843 3.70593 207.235 7.00004 207.235Z" fill="#26192A"/>
<path d="M3.43337 213C3.69876 213 3.83149 212.866 3.96418 212.599C4.36227 211.264 5.02573 210.33 5.68921 210.063C6.48538 209.796 7.28157 210.196 7.28157 210.196C7.54696 210.33 7.81235 210.196 7.94505 210.063C8.07774 209.796 7.945 209.529 7.8123 209.395C7.8123 209.395 6.61806 208.727 5.4238 209.128C4.36224 209.529 3.56608 210.597 3.0353 212.332C2.9026 212.599 3.16798 212.866 3.43337 213C3.30067 213 3.30067 213 3.43337 213Z" fill="#26192A"/>
<path d="M7.5 202C10.5854 202 13 199.585 13 196.5C13 193.415 10.5854 191 7.5 191C4.41462 191 2 193.415 2 196.5C2 199.585 4.41462 202 7.5 202ZM7.5 192.073C10.0488 192.073 12.061 194.085 12.061 196.634C12.061 199.183 10.0488 201.195 7.5 201.195C4.9512 201.195 2.93896 199.183 2.93896 196.634C2.93896 194.085 4.9512 192.073 7.5 192.073Z" fill="#26192A"/>
<path d="M5.41235 197.847C5.66487 197.847 5.79116 197.694 5.91742 197.387C6.16995 196.162 6.67499 195.396 7.18003 195.09C7.68507 194.784 8.31641 195.243 8.31641 195.243C8.56893 195.396 8.82145 195.243 8.94771 195.09C9.07397 194.784 8.94766 194.477 8.8214 194.324C8.8214 194.324 7.93758 193.711 6.92749 194.171C6.04367 194.63 5.53863 195.549 5.03359 197.234C4.90732 197.541 5.15983 197.847 5.41235 198C5.28609 197.847 5.28609 197.847 5.41235 197.847Z" fill="#26192A"/>
<path d="M166.036 206C166.036 206 202 228.783 202 236.288C202 243.793 178.737 244.999 154.004 219.536C153.87 219.67 157.079 206.536 166.036 206Z" fill="#F58A28"/>
<path d="M102.134 71.277C102.134 71.277 106.844 33.6112 137.795 28.3835C168.612 23.1559 234.014 72.8855 227.554 85.0833C221.095 97.2811 155.155 84.6812 155.155 84.6812C155.155 84.6812 207.234 236.685 131.47 232.932C55.5722 229.312 102.134 71.277 102.134 71.277Z" fill="#F58A28"/>
<path d="M113.728 5L128 43.6667L114.132 55C114.132 55 89.357 22.3333 113.728 5Z" fill="#F58A28"/>
<path d="M131 0L131.275 41.125L148.606 47C148.606 47 160.572 7.74432 131 0Z" fill="#F58A28"/>
<path d="M98.253 211.174C98.253 211.174 62.2682 204.992 61.5943 171.796C60.9205 138.601 82.7539 91.2936 26.9573 71C26.9573 71 36.122 96.535 27.0921 119.248C18.0623 141.96 -5.25372 279.581 112 222.06L98.253 211.174Z" fill="#F58A28"/>
<path d="M228 85.4392C228 85.4392 159.013 63.4597 146.555 77.934C134.098 92.4083 116.55 233.801 151.78 232.997C151.78 232.997 189.689 211.285 170.131 131.006C161.692 96.4289 155.932 85.1712 155.932 85.1712C155.932 85.1712 217.418 101.924 228 85.4392Z" fill="#F3EAC7"/>
<path d="M112.525 43C112.659 43 112.792 43 112.926 42.8649C113.194 42.5946 113.194 42.1892 112.926 41.9189C105.437 34.0811 109.048 20.1622 110.519 15.4324L119.613 36.1081C119.746 36.5135 120.147 36.6487 120.549 36.5135C120.95 36.3784 121.084 35.973 120.95 35.5676L111.188 13.4054C111.054 13.1351 110.92 13 110.519 13C110.251 13 109.984 13.1351 109.85 13.4054C109.583 14.2162 102.361 32.7297 111.99 42.8649C112.124 43 112.391 43 112.525 43Z" fill="#26192A"/>
<path d="M226.423 78C226.423 78 216.297 98.7056 230.879 89.7554C231.014 89.7554 231.824 83.8777 226.423 78Z" fill="#26192A"/>
<path d="M209.62 91C211.439 91 213.649 86.9565 214.949 84.4783C215.079 84.2174 214.949 83.8261 214.689 83.5652C214.429 83.4348 214.039 83.5652 213.779 83.8261C212.219 86.8261 210.27 89.5652 209.62 89.5652C209.62 89.5652 208.84 88.9131 209.62 82.7826C209.62 82.3913 209.36 82.1304 209.1 82C208.71 82 208.45 82.2609 208.32 82.5217C207.54 89.1739 208.32 90.4782 209.23 90.7391C209.36 91 209.49 91 209.62 91Z" fill="#26192A"/>
<path d="M169.029 62C169.157 62 169.157 62 169.285 62C172.744 61.6031 173 51.6805 173 49.6959C173 49.299 172.744 49.0344 172.36 49.0344C171.975 49.0344 171.719 49.299 171.719 49.6959C171.719 54.0619 170.822 60.4124 169.157 60.677C167.748 60.8093 165.955 55.1203 165.314 49.5636C165.314 49.1667 164.93 48.9021 164.546 49.0344C164.161 49.0344 163.905 49.4313 164.033 49.8282C164.418 52.7389 165.827 62 169.029 62Z" fill="#26192A"/>
<path d="M155.029 62C155.157 62 155.157 62 155.285 62C158.744 61.6031 159 51.6805 159 49.6959C159 49.299 158.744 49.0344 158.36 49.0344C157.975 49.0344 157.719 49.299 157.719 49.6959C157.719 54.0619 156.822 60.4124 155.157 60.677C153.62 60.8093 151.955 55.1203 151.314 49.5636C151.314 49.1667 150.93 48.9021 150.546 49.0344C150.161 49.0344 149.905 49.4313 150.033 49.8282C150.29 52.7388 151.699 62 155.029 62Z" fill="#26192A"/>
<path d="M127.33 211.009C127.33 211.009 160.657 237.467 159.99 245.026C159.324 252.586 136.129 251.371 114 223.428C114 223.293 118.399 210.605 127.33 211.009Z" fill="#F58A28"/>
<path d="M183.438 138C183.572 138 183.705 138 183.705 137.865L211.733 116.958C211.867 116.823 211.867 116.688 212 116.553C212 116.419 212 116.284 211.867 116.149C211.6 115.879 206.795 110.484 199.721 110.484C192.914 110.484 186.641 115.474 181.036 125.186C179.301 121.679 172.227 109 160.616 109C155.544 109 150.472 111.428 145.134 116.149C145 116.284 145 116.419 145 116.553C145 116.688 145.133 116.823 145.267 116.958L183.305 137.865C183.305 138 183.438 138 183.438 138ZM210.665 116.419L183.438 136.786L146.201 116.284C151.006 111.967 155.811 109.809 160.482 109.809C173.028 109.809 180.369 126.13 180.369 126.265C180.502 126.4 180.635 126.535 180.769 126.535C180.902 126.535 181.169 126.4 181.169 126.265C186.775 116.284 192.914 111.293 199.454 111.293C205.193 111.563 209.464 115.205 210.665 116.419Z" fill="#26192A"/>
<path d="M180.389 129C180.658 129 180.793 128.867 180.793 128.733C190.365 111.121 206.138 117.525 206.273 117.659C206.543 117.792 206.812 117.659 206.947 117.392C207.082 117.125 206.947 116.858 206.678 116.725C206.543 116.591 190.365 110.053 180.254 127.666C178.097 124.997 169.604 114.99 159.223 114.056C154.1 113.656 149.381 115.39 145.202 119.393C144.933 119.527 144.933 119.927 145.202 120.06C145.337 120.327 145.741 120.327 145.876 120.06C149.921 116.191 154.37 114.456 159.088 114.99C170.412 116.058 179.849 128.733 179.849 128.867C179.984 129 180.254 129 180.389 129Z" fill="#26192A"/>
<path d="M181.298 131C181.298 131 181.432 131 181.298 131C181.566 131 181.7 130.87 181.7 130.74C181.834 130.609 190.68 115.12 203.277 119.936C203.545 120.066 203.813 119.936 203.947 119.676C204.081 119.415 203.947 119.155 203.679 119.025C191.618 114.339 182.907 127.095 181.164 129.698C165.35 118.634 149.536 120.587 149.402 120.717C149.134 120.717 149 120.977 149 121.238C149 121.498 149.268 121.758 149.536 121.628C149.67 121.628 165.484 119.676 181.03 130.87C181.03 131 181.164 131 181.298 131Z" fill="#26192A"/>
<path d="M216.034 111L224 161.051L191.866 173.331L176.88 176L133 164.255L136.645 113.002L174.314 126.75L187.546 124.347L216.034 111Z" fill="#DF9FA1"/>
<path d="M177.485 177L175 127.419L187.815 125L192 174.313L177.485 177Z" fill="#DB6362"/>
<path d="M98.9035 142.075C98.9035 142.075 121.318 166.29 150.309 156.791C179.3 147.293 117.694 137.927 107.896 120C107.762 120 94.4743 125.351 98.9035 142.075Z" fill="#F58A28"/>
<path d="M64.5184 127.983L58.9994 143L50.788 130.397L42.5766 143L37.5959 130.397L28.846 138.978L24 127.983C24 127.983 34.096 94.8659 26.5577 71C26.2885 71.1341 70.0376 76.095 64.5184 127.983Z" fill="#F3EAC7"/>
<path d="M144.727 28C145.008 28 145.29 27.7368 145.431 27.4735C147.12 18.7868 144.727 13.1273 142.475 9.96854C139.941 6.54651 137.126 5.09871 136.985 5.09871C136.704 4.9671 136.563 4.9671 136.282 5.09871C136.141 5.23033 136 5.49357 136 5.62519V27.3419C136 27.7368 136.282 28 136.704 28C137.126 28 137.408 27.7368 137.408 27.3419V6.80973C140.082 8.52075 146.557 14.1803 144.164 27.2103C143.882 27.6052 144.164 27.8684 144.727 28C144.586 28 144.727 28 144.727 28Z" fill="#26192A"/>
<path d="M144.409 159C144.676 159 144.943 159 145.21 159C145.477 159 145.744 158.727 145.744 158.453C145.744 158.18 145.477 158.043 145.21 157.907C141.34 158.043 137.336 156.677 135.735 155.173C135.334 154.763 135.068 154.353 135.068 154.08C136.002 153.26 140.939 153.67 144.142 154.08C144.409 154.08 144.676 153.943 144.676 153.67C144.81 153.397 144.676 153.123 144.409 153.123C142.14 152.03 138.27 149.706 137.87 148.476C137.87 148.34 137.87 148.34 137.87 148.34C138.27 147.656 142.141 148.34 146.277 149.98C146.544 150.116 146.811 149.98 146.945 149.706C147.078 149.433 146.945 149.16 146.811 149.023C143.475 146.836 139.872 144.103 139.338 143.146C140.139 142.873 143.208 142.873 146.411 143.42C146.678 143.42 146.945 143.283 146.945 143.01C146.945 142.736 146.811 142.463 146.544 142.463C144.943 142.19 139.605 141.506 138.537 142.6C138.404 142.736 138.27 143.01 138.27 143.283C138.404 144.24 140.806 146.153 143.075 147.793C140.539 147.11 137.737 146.563 137.069 147.793C136.936 148.066 136.802 148.34 136.936 148.75C137.336 149.98 139.605 151.483 141.473 152.576C138.938 152.303 135.468 152.167 134.4 153.123C134.133 153.397 134 153.67 134 153.943C134 154.627 134.4 155.173 135.068 155.857C136.669 157.497 140.539 159 144.409 159Z" fill="#26192A"/>
<path d="M133.551 138C133.816 138 133.948 137.864 133.948 137.728C134.08 137.456 133.948 137.184 133.683 137.048C133.551 137.048 120.84 131.88 114.881 122.225C114.749 121.953 114.484 121.953 114.219 122.089C113.955 122.225 113.955 122.497 114.087 122.769C120.178 132.696 132.756 137.728 133.286 138C133.418 138 133.418 138 133.551 138Z" fill="#26192A"/>
<path d="M130.465 159C130.732 159 130.866 158.866 131 158.599C131 158.332 130.866 158.065 130.599 158.065C130.331 158.065 105.318 153.387 96.8905 139.221C96.7567 138.954 96.4892 138.954 96.2217 139.088C95.9541 139.221 95.9541 139.489 96.0878 139.756C104.649 154.189 129.395 158.733 130.465 159Z" fill="#26192A"/>
<path d="M105.417 73C105.673 73 105.8 72.8663 105.928 72.5989C106.056 71.2617 106.95 68.7211 106.95 68.7211C107.078 68.4536 106.95 68.1862 106.694 68.0525C106.439 67.9187 106.184 68.0524 106.056 68.3199C106.056 68.4536 105.162 70.9942 105.034 72.4651C104.906 72.7326 105.162 73 105.417 73Z" fill="#26192A"/>
<path d="M108.417 77C108.673 77 108.8 76.8663 108.928 76.5988C109.056 75.2617 109.95 72.721 109.95 72.721C110.078 72.4536 109.95 72.1862 109.694 72.0525C109.439 71.9187 109.184 72.0525 109.056 72.3199C109.056 72.4536 108.162 74.9943 108.034 76.4651C107.906 76.7326 108.162 77 108.417 77Z" fill="#26192A"/>
<path d="M103.417 81C103.673 81 103.8 80.8663 103.928 80.5988C104.056 79.2617 104.95 76.721 104.95 76.721C105.078 76.4536 104.95 76.1862 104.694 76.0525C104.439 75.9187 104.184 76.0525 104.056 76.3199C104.056 76.4536 103.162 78.9943 103.034 80.4651C102.906 80.5989 103.162 80.8663 103.417 81Z" fill="#26192A"/>
<path d="M107.417 86C107.673 86 107.8 85.8663 107.928 85.5989C108.056 84.2617 108.95 81.721 108.95 81.721C109.078 81.4536 108.95 81.1862 108.694 81.0525C108.439 80.9187 108.184 81.0525 108.056 81.3199C108.056 81.4536 107.162 83.9943 107.034 85.4651C106.906 85.7326 107.162 86 107.417 86Z" fill="#26192A"/>
<path d="M103.428 88C103.682 88 103.809 87.8663 103.935 87.5989C104.062 86.2617 104.95 83.721 104.95 83.721C105.077 83.4536 104.95 83.1862 104.697 83.0525C104.443 82.9187 104.189 83.0525 104.062 83.3199C104.062 83.4536 103.174 85.9943 103.048 87.4651C102.921 87.7326 103.048 88 103.428 88C103.301 88 103.301 88 103.428 88Z" fill="#26192A"/>
<path d="M106.428 96C106.682 96 106.809 95.8663 106.935 95.5988C107.062 94.2617 107.95 91.721 107.95 91.721C108.077 91.4536 107.95 91.1862 107.697 91.0525C107.443 90.9187 107.189 91.0525 107.062 91.3199C107.062 91.4536 106.174 93.9942 106.048 95.4651C105.921 95.5988 106.048 95.8663 106.428 96Z" fill="#26192A"/>
<path d="M100.428 97C100.682 97 100.809 96.8663 100.935 96.5988C101.062 95.2617 101.95 92.721 101.95 92.721C102.077 92.4536 101.95 92.1862 101.697 92.0525C101.443 91.9187 101.189 92.0525 101.062 92.3199C101.062 92.4536 100.174 94.9942 100.048 96.4651C99.9207 96.7325 100.048 97 100.428 97C100.301 97 100.428 97 100.428 97Z" fill="#26192A"/>
<path d="M104.417 104C104.673 104 104.8 103.866 104.928 103.599C105.056 102.262 105.95 99.721 105.95 99.721C106.078 99.4536 105.95 99.1862 105.694 99.0525C105.439 98.9187 105.184 99.0525 105.056 99.3199C105.056 99.4536 104.162 101.994 104.034 103.465C103.906 103.733 104.162 104 104.417 104Z" fill="#26192A"/>
<path d="M99.4171 105C99.6726 105 99.8004 104.866 99.9281 104.599C100.056 103.262 100.95 100.721 100.95 100.721C101.078 100.454 100.95 100.186 100.694 100.052C100.439 99.9187 100.184 100.052 100.056 100.32C100.056 100.454 99.1617 102.994 99.034 104.465C98.9062 104.733 99.1617 105 99.4171 105Z" fill="#26192A"/>
<path d="M110.417 67C110.673 67 110.8 66.8663 110.928 66.5989C111.056 65.2617 111.95 62.7211 111.95 62.7211C112.078 62.4536 111.95 62.1862 111.694 62.0525C111.439 61.9187 111.184 62.0524 111.056 62.3199C111.056 62.4536 110.162 64.9942 110.034 66.4651C109.906 66.7326 110.162 67 110.417 67Z" fill="#26192A"/>
<path d="M108.428 63C108.682 63 108.809 62.8663 108.935 62.5989C109.062 61.2617 109.95 58.7211 109.95 58.7211C110.077 58.4536 109.95 58.1862 109.697 58.0525C109.443 57.9187 109.189 58.0524 109.062 58.3199C109.062 58.4536 108.174 60.9942 108.048 62.4651C107.921 62.5989 108.048 62.8663 108.428 63C108.301 63 108.428 63 108.428 63Z" fill="#26192A"/>
<path d="M91.6 175C91.6 175 91.7 175 91.6 175C91.9 175 92 174.744 92 174.359C91.8 173.077 91.8 170.513 91.8 170.513C91.8 170.256 91.6 170 91.4 170C91.2 170 91 170.256 91 170.513C91 170.641 91 173.333 91.2 174.615C91.3 174.872 91.4 175 91.6 175Z" fill="#26192A"/>
<path d="M98.6 177C98.9 177 99 176.737 99 176.474C98.8 175.158 98.8 172.526 98.8 172.526C98.8 172.263 98.6 172 98.4 172C98.2 172 98 172.263 98 172.526C98 172.658 98 175.289 98.2 176.737C98.3 176.868 98.4 177 98.6 177Z" fill="#26192A"/>
<path d="M93.6 183C93.6 183 93.7 183 93.6 183C93.9 183 94 182.737 94 182.474C93.8 181.158 93.8 178.526 93.8 178.526C93.8 178.263 93.6 178 93.4 178C93.2 178 93 178.263 93 178.526C93 178.658 93 181.289 93.2 182.737C93.3 182.868 93.4 183 93.6 183Z" fill="#26192A"/>
<path d="M98.6 187C98.9 187 99 186.737 99 186.474C98.8 185.158 98.8 182.526 98.8 182.526C98.8 182.263 98.6 182 98.4 182C98.2 182 98 182.263 98 182.526C98 182.658 98 185.289 98.2 186.737C98.3 186.737 98.4 187 98.6 187Z" fill="#26192A"/>
<path d="M93.6 191C93.6 191 93.7 191 93.6 191C93.9 191 94 190.737 94 190.474C93.8 189.158 93.8 186.526 93.8 186.526C93.8 186.263 93.6 186 93.4 186C93.2 186 93 186.263 93 186.526C93 186.658 93 189.289 93.2 190.737C93.3 190.868 93.4 191 93.6 191Z" fill="#26192A"/>
<path d="M100.6 195C100.7 195 100.7 195 100.6 195C100.9 195 101 194.744 101 194.359C100.8 193.077 100.8 190.513 100.8 190.513C100.8 190.256 100.6 190 100.4 190C100.2 190 100 190.256 100 190.513C100 190.641 100 193.333 100.2 194.615C100.3 194.872 100.5 195 100.6 195Z" fill="#26192A"/>
<path d="M96.6 199C96.9 199 97 198.744 97 198.359C96.8 197.077 96.8 194.513 96.8 194.513C96.8 194.256 96.6 194 96.4 194C96.2 194 96 194.256 96 194.513C96 194.641 96 197.205 96.2 198.615C96.3 198.872 96.4 199 96.6 199Z" fill="#26192A"/>
<path d="M103.6 204C103.6 204 103.7 204 103.6 204C103.9 204 104 203.744 104 203.359C103.8 202.077 103.8 199.513 103.8 199.513C103.8 199.256 103.6 199 103.4 199C103.2 199 103 199.256 103 199.513C103 199.641 103 202.333 103.2 203.615C103.3 203.744 103.4 204 103.6 204Z" fill="#26192A"/>
<path d="M99.5285 207H99.6675C99.9455 206.868 100.084 206.605 99.9455 206.342C99.3896 205.158 98.9727 202.526 98.9727 202.395C98.9727 202.132 98.6948 202 98.4169 202C98.1389 202 98 202.263 98 202.526C98 202.658 98.5559 205.289 98.9727 206.605C99.1117 207 99.3896 207 99.5285 207Z" fill="#26192A"/>
<path d="M96.6 167C96.9 167 97 166.744 97 166.359C96.8 165.077 96.8 162.513 96.8 162.513C96.8 162.256 96.6 162 96.4 162C96.2 162 96 162.256 96 162.513C96 162.641 96 165.333 96.2 166.615C96.3 166.872 96.4 167 96.6 167Z" fill="#26192A"/>
<path d="M91.6 164C91.6 164 91.7 164 91.6 164C91.9 164 92 163.744 92 163.359C91.8 162.077 91.8 159.513 91.8 159.513C91.8 159.256 91.6 159 91.4 159C91.2 159 91 159.256 91 159.513C91 159.641 91 162.333 91.2 163.615C91.3 163.744 91.4 164 91.6 164Z" fill="#26192A"/>
<path d="M159.638 218C159.783 218 160.073 217.862 160.073 217.724C160.073 217.586 161.526 215.105 161.961 213.726C162.107 213.45 161.816 213.175 161.526 213.037C161.235 212.899 160.945 213.175 160.8 213.45C160.364 214.691 159.057 217.311 159.057 217.311C158.912 217.586 159.057 217.862 159.347 218C159.347 217.862 159.493 218 159.638 218Z" fill="#26192A"/>
<path d="M157.638 212C157.783 212 158.074 211.862 158.074 211.724C158.074 211.586 159.526 209.105 159.961 207.726C160.107 207.45 159.816 207.175 159.526 207.037C159.235 206.899 158.945 207.175 158.8 207.45C158.364 208.691 157.057 211.311 157.057 211.311C156.912 211.586 157.057 211.862 157.347 212C157.493 212 157.493 212 157.638 212Z" fill="#26192A"/>
<path d="M163.638 210C163.783 210 164.074 209.862 164.074 209.724C164.074 209.586 165.526 207.105 165.961 205.726C166.107 205.45 165.816 205.175 165.526 205.037C165.235 204.899 164.945 205.175 164.8 205.45C164.364 206.691 163.057 209.311 163.057 209.311C162.912 209.586 163.057 209.862 163.347 210C163.493 209.862 163.638 210 163.638 210Z" fill="#26192A"/>
<path d="M162.638 204C162.783 204 163.074 203.862 163.074 203.724C163.074 203.586 164.526 201.105 164.961 199.726C165.107 199.45 164.816 199.175 164.526 199.037C164.235 198.899 163.945 199.175 163.8 199.45C163.364 200.691 162.057 203.311 162.057 203.311C161.912 203.586 162.057 203.862 162.347 204C162.493 204 162.493 204 162.638 204Z" fill="#26192A"/>
<path d="M158.638 203C158.783 203 159.074 202.862 159.074 202.724C159.074 202.586 160.526 200.105 160.961 198.726C161.107 198.45 160.816 198.175 160.526 198.037C160.235 197.899 159.945 198.175 159.8 198.45C159.364 199.691 158.057 202.311 158.057 202.311C157.912 202.586 158.057 202.862 158.347 203C158.493 203 158.638 203 158.638 203Z" fill="#26192A"/>
<path d="M160.615 191C160.923 191 161.077 190.872 161.231 190.615C161.231 190.487 162 187.923 162 186.513C162 186.256 161.692 186 161.385 186C161.077 186 160.769 186.256 160.769 186.513C160.769 187.795 160 190.359 160 190.359C160 190.744 160.308 191 160.615 191Z" fill="#26192A"/>
<path d="M151.638 227C151.783 227 152.074 226.862 152.074 226.724C152.074 226.586 153.526 224.105 153.961 222.726C154.107 222.45 153.816 222.175 153.526 222.037C153.235 221.899 152.945 222.175 152.8 222.45C152.364 223.691 151.057 226.311 151.057 226.311C150.912 226.586 151.057 226.862 151.347 227C151.493 227 151.638 227 151.638 227Z" fill="#26192A"/>
<path d="M166.68 203C166.834 203 167.144 202.866 167.144 202.732C167.144 202.598 168.536 200.182 169 198.707C169 198.438 168.845 198.17 168.536 198.036C168.226 197.902 167.917 198.17 167.762 198.438C167.453 199.78 166.061 202.195 166.061 202.195C165.906 202.463 166.061 202.732 166.37 202.866C166.37 203 166.525 203 166.68 203Z" fill="#26192A"/>
<path d="M164.615 195C164.923 195 165.077 194.872 165.231 194.615C165.231 194.487 166 191.923 166 190.513C166 190.256 165.692 190 165.385 190C165.077 190 164.769 190.256 164.769 190.513C164.769 191.795 164 194.359 164 194.359C164 194.615 164.154 194.872 164.615 195Z" fill="#26192A"/>
<path d="M169.441 193C169.701 193 169.831 192.868 169.961 192.605C169.961 192.474 170.87 189.974 171 188.526C171 188.263 170.87 188 170.61 188C170.35 188 170.09 188.132 170.09 188.395C169.961 189.711 169.051 192.211 169.051 192.211C168.921 192.474 169.051 192.737 169.311 192.868C169.311 193 169.311 193 169.441 193Z" fill="#26192A"/>
<path d="M166.358 184C166.538 184 166.627 183.872 166.717 183.615C166.717 183.487 167.075 180.923 166.986 179.513C166.986 179.256 166.806 179.128 166.627 179C166.448 179 166.269 179.256 166.269 179.513C166.269 180.795 166 183.359 166 183.359C166 183.744 166.09 184 166.358 184Z" fill="#26192A"/>
<path d="M170.556 183C170.778 183 171 182.744 171 182.487C171 182.359 171 179.795 170.778 178.385C170.778 178.128 170.556 178 170.333 178C170.111 178 170 178.256 170 178.513C170.222 179.795 170.222 182.359 170.222 182.359C170.111 182.872 170.333 183 170.556 183Z" fill="#26192A"/>
<path d="M154.638 220C154.783 220 155.074 219.862 155.074 219.724C155.074 219.586 156.526 217.105 156.961 215.726C157.107 215.45 156.816 215.175 156.526 215.037C156.235 214.899 155.945 215.175 155.8 215.45C155.364 216.691 154.057 219.311 154.057 219.311C153.912 219.586 154.057 219.862 154.347 220C154.493 220 154.638 220 154.638 220Z" fill="#26192A"/>
<path d="M155.48 225C155.617 225 155.755 225 155.892 224.87C156.029 224.739 158.087 222.912 158.91 221.738C159.047 221.477 159.047 221.216 158.773 221.086C158.498 220.955 158.224 220.955 158.087 221.216C157.264 222.26 155.343 224.087 155.206 224.087C154.931 224.217 154.931 224.609 155.206 224.739C155.206 225 155.343 225 155.48 225Z" fill="#26192A"/>
<path d="M43.3372 228C43.4845 228 43.6318 228 43.7791 227.874C44.0736 227.747 44.0736 227.368 43.7791 227.242C43.7791 227.242 41.717 225.22 40.9805 224.209C40.8332 223.957 40.5387 223.957 40.2441 224.083C39.9495 224.209 39.9494 224.462 40.0967 224.715C40.8332 225.852 42.8953 227.874 43.0426 227.874C43.0426 228 43.1899 228 43.3372 228Z" fill="#26192A"/>
<path d="M44.3372 221C44.4845 221 44.6318 221 44.7791 220.874C45.0736 220.747 45.0736 220.368 44.7791 220.242C44.7791 220.242 42.7169 218.22 41.9805 217.209C41.8332 216.957 41.5386 216.957 41.244 217.083C40.9494 217.209 40.9495 217.462 41.0968 217.715C41.8332 218.852 43.8953 220.874 44.0426 220.874C44.0426 220.874 44.1899 221 44.3372 221Z" fill="#26192A"/>
<path d="M36.3372 221C36.4845 221 36.6318 221 36.7791 220.874C37.0736 220.747 37.0736 220.368 36.7791 220.242C36.7791 220.242 34.7169 218.22 33.9805 217.209C33.8332 216.957 33.5386 216.957 33.244 217.083C32.9494 217.209 32.9495 217.462 33.0968 217.715C33.8332 218.852 35.8953 220.874 36.0426 220.874C36.0426 220.874 36.1899 221 36.3372 221Z" fill="#26192A"/>
<path d="M38.3372 213C38.4845 213 38.6318 213 38.7791 212.874C39.0736 212.747 39.0736 212.368 38.7791 212.242C38.7791 212.242 36.717 210.22 35.9805 209.209C35.8332 208.957 35.5387 208.957 35.2441 209.083C34.9495 209.209 34.9494 209.462 35.0967 209.715C35.8332 210.852 37.8953 212.874 38.0426 212.874C38.0426 212.874 38.1899 213 38.3372 213Z" fill="#26192A"/>
<path d="M41.3372 211C41.4845 211 41.6318 211 41.7791 210.874C42.0736 210.747 42.0736 210.368 41.7791 210.242C41.7791 210.242 39.717 208.22 38.9805 207.209C38.8332 206.957 38.5387 206.957 38.2441 207.083C37.9495 207.209 37.9494 207.462 38.0967 207.715C38.8332 208.852 40.8953 210.874 41.0426 210.874C41.0426 211 41.1899 211 41.3372 211Z" fill="#26192A"/>
<path d="M48.3371 218C48.4844 218 48.6318 218 48.7791 217.874C49.0736 217.747 49.0736 217.368 48.7791 217.242C48.7791 217.242 46.7169 215.22 45.9805 214.209C45.8332 213.957 45.5386 213.957 45.244 214.083C44.9494 214.209 44.9495 214.462 45.0968 214.715C45.8332 215.852 47.8953 217.874 48.0426 217.874C48.0426 218 48.1898 218 48.3371 218Z" fill="#26192A"/>
<path d="M56.5452 227C56.6695 227 56.7939 226.855 56.9183 226.709C57.0427 226.418 57.0427 226.127 56.7939 225.982C56.7939 225.982 54.6793 224.236 53.8085 223.218C53.6841 222.927 53.311 222.927 53.1866 223.218C52.9378 223.364 52.9378 223.8 53.1866 223.945C54.0573 225.109 56.172 226.855 56.2964 226.855C56.2964 227 56.4208 227 56.5452 227Z" fill="#26192A"/>
<path d="M36.3539 200C36.501 200 36.501 200 36.6481 200C36.9423 199.861 37.0894 199.583 36.9423 199.306C36.9423 199.306 35.4712 196.667 35.177 195.417C35.0299 195.139 34.7356 195 34.4414 195C34.1472 195.139 34 195.417 34 195.694C34.4413 197.083 35.9125 199.722 35.9125 199.722C35.9125 199.861 36.2068 200 36.3539 200Z" fill="#26192A"/>
<path d="M58.4791 231C58.7396 231 58.8698 230.87 59 230.61C59 230.35 58.8698 230.09 58.6093 230.09C58.6093 230.09 56.0046 229.571 54.7023 229.051C54.4418 228.921 54.1813 229.051 54.0511 229.311C53.9209 229.571 54.0511 229.831 54.3116 229.961C55.6139 230.48 58.2186 231 58.4791 231C58.3489 231 58.3489 231 58.4791 231Z" fill="#26192A"/>
<path d="M67.4651 233C67.7325 233 67.8663 232.87 68 232.61C68 232.35 67.8663 232.09 67.5989 232.09C67.5989 232.09 64.9245 231.441 63.721 231.051C63.4536 230.921 63.1862 231.051 63.0525 231.311C62.9187 231.571 63.0525 231.831 63.3199 231.96C64.6571 232.35 67.3314 232.87 67.4651 233Z" fill="#26192A"/>
<path d="M32.4794 213C32.6281 213 32.7769 213 32.7769 212.88C33.0744 212.76 33.0744 212.401 32.7769 212.281C32.7769 212.281 30.8433 210.365 30.0996 209.287C29.9508 209.047 29.6533 208.927 29.3558 209.047C29.0584 209.167 28.9096 209.406 29.0583 209.646C29.8021 210.724 31.7357 212.641 31.8845 212.76C32.182 213 32.3306 213 32.4794 213Z" fill="#26192A"/>
<path d="M34.3539 205C34.501 205 34.501 205 34.6481 205C34.9423 204.861 35.0894 204.583 34.9423 204.306C34.9423 204.306 33.4712 201.667 33.177 200.417C33.0299 200.139 32.7356 200 32.4414 200C32.1472 200.139 32 200.417 32 200.694C32.4413 202.083 33.9125 204.722 33.9125 204.722C34.0597 205 34.2068 205 34.3539 205Z" fill="#26192A"/>
<path d="M29.524 204C29.6542 204 29.6542 204 29.7844 203.859C30.0447 203.717 30.0447 203.435 29.9145 203.152C29.9145 203.152 28.4828 200.751 27.9622 199.338C27.832 199.055 27.5717 198.914 27.3114 199.055C27.0511 199.197 26.9209 199.479 27.0511 199.762C27.5717 201.175 29.0034 203.576 29.1336 203.717C29.2637 204 29.3939 204 29.524 204Z" fill="#26192A"/>
<path d="M30.3205 195C30.4752 195 30.4752 195 30.6299 195C30.9393 194.865 31.094 194.595 30.9393 194.324C30.9393 194.324 29.5471 191.757 29.2377 190.405C29.2377 190.135 28.7736 190 28.4642 190C28.1548 190 28 190.405 28 190.676C28.4641 192.027 29.7017 194.595 29.8564 194.73C30.0111 194.865 30.1658 195 30.3205 195Z" fill="#26192A"/>
<path d="M27.3205 188C27.4752 188 27.4752 188 27.6299 188C27.9393 187.865 28.094 187.595 27.9393 187.324C27.9393 187.324 26.547 184.757 26.2376 183.405C26.2376 183.135 25.7735 183 25.4641 183C25.1547 183 25 183.405 25 183.676C25.4641 185.027 26.7017 187.595 26.8564 187.73C26.8564 187.865 27.1658 188 27.3205 188Z" fill="#26192A"/>
<path d="M23.5169 169C23.7585 169 24 168.744 24 168.487C24 168.487 23.7585 165.795 23.8793 164.513C23.8793 164.256 23.7585 164 23.5169 164C23.2754 164 23.0338 164.128 23.0338 164.385C22.913 165.795 23.1546 168.359 23.1546 168.487C23.1546 168.744 23.2754 169 23.5169 169Z" fill="#26192A"/>
<path d="M25.4285 195C25.5714 195 25.5714 195 25.4285 195C25.8571 194.872 26 194.615 26 194.359C26 194.359 25.2857 191.795 25.1428 190.513C25.1428 190.256 24.8572 190 24.5715 190C24.2857 190 24 190.256 24 190.513C24.1429 191.923 24.8571 194.487 24.8571 194.615C24.9999 194.872 25.2857 195 25.4285 195Z" fill="#26192A"/>
<path d="M23.4286 186C23.8572 185.872 24 185.615 24 185.359C24 185.359 23.2857 182.795 23.1429 181.513C23.1429 181.256 22.8571 181 22.5714 181C22.2857 181 22 181.256 22 181.513C22.1429 182.923 22.8571 185.487 22.8571 185.615C22.8571 185.872 23.1429 186 23.4286 186Z" fill="#26192A"/>
<path d="M23.4286 178C23.8572 177.872 24 177.615 24 177.359C24 177.359 23.2857 174.795 23.1429 173.513C23.1429 173.256 22.8571 173 22.5714 173C22.2857 173 22 173.256 22 173.513C22.1429 174.923 22.8571 177.487 22.8571 177.615C22.8571 177.872 23.1429 178 23.4286 178Z" fill="#26192A"/>
<path d="M50.3372 226C50.4845 226 50.6318 226 50.7791 225.874C51.0736 225.747 51.0736 225.368 50.7791 225.242C50.7791 225.242 48.717 223.22 47.9805 222.209C47.8332 221.957 47.5387 221.957 47.2441 222.083C46.9495 222.209 46.9494 222.462 47.0967 222.715C47.8332 223.852 49.8953 225.874 50.0426 225.874C50.0426 226 50.1899 226 50.3372 226Z" fill="#26192A"/>
<path d="M50.5882 232C50.7088 232 50.95 231.874 50.95 231.747C51.0706 231.495 50.9501 231.242 50.8295 231.116C50.8295 231.116 48.6584 229.853 47.6935 229.095C47.4523 228.968 47.2111 228.968 47.0905 229.095C46.9698 229.347 46.9698 229.6 47.0905 229.726C48.0554 230.611 50.2264 231.874 50.347 231.874C50.4676 232 50.4676 232 50.5882 232Z" fill="#26192A"/>
<path d="M188.366 240.736C188.63 240.736 188.763 240.604 188.895 240.472C189.027 240.209 188.895 239.945 188.63 239.813C188.63 239.813 184.926 238.362 184.926 235.592C184.926 235.328 185.058 235.328 185.058 235.196C185.852 234.801 188.763 236.12 191.409 237.571C192.599 238.362 193.525 238.758 193.525 238.89C193.79 239.021 194.054 238.89 194.187 238.758C194.319 238.494 194.187 238.23 194.055 238.098C193.658 237.834 192.864 237.307 191.938 236.779C190.086 235.592 187.572 233.613 187.175 231.767C187.043 231.107 187.175 230.58 187.44 230.184C188.101 229.92 192.07 232.558 195.907 235.988C196.171 236.12 196.436 236.12 196.568 235.988C196.7 235.856 196.7 235.46 196.568 235.328C194.716 233.482 191.805 229.92 191.938 228.469C191.938 228.205 192.07 228.205 192.202 228.074C193.658 227.282 197.626 230.448 200.14 233.086C200.272 233.35 200.669 233.35 200.802 233.086C201.066 232.954 201.066 232.558 200.802 232.426C199.743 231.239 194.319 225.699 191.673 227.282C191.276 227.546 191.012 227.942 190.879 228.469C190.747 229.393 191.409 230.712 192.335 232.031C190.35 230.58 188.233 229.261 187.175 229.393C186.778 229.393 186.514 229.656 186.514 229.788C185.984 230.58 185.852 231.371 186.117 232.163C186.381 233.086 187.043 234.141 187.969 235.064C186.646 234.537 185.323 234.273 184.661 234.669C184.397 234.801 184 235.196 184 235.856C184 239.285 188.233 240.868 188.366 241C188.233 240.736 188.233 240.736 188.366 240.736Z" fill="#26192A"/>
<path d="M145.233 247.736C145.498 247.736 145.63 247.604 145.763 247.472C145.895 247.209 145.763 246.945 145.498 246.813C145.498 246.813 141.794 245.362 141.794 242.592C141.794 242.328 141.926 242.328 141.926 242.196C142.72 241.801 145.63 243.12 148.276 244.571C149.467 245.362 150.393 245.758 150.393 245.89C150.658 246.021 150.922 245.89 151.054 245.758C151.187 245.494 151.054 245.23 150.922 245.098C150.525 244.834 149.731 244.307 148.805 243.779C146.953 242.592 144.44 240.613 144.043 238.767C143.91 238.107 144.043 237.58 144.307 237.184C144.969 236.92 148.938 239.558 152.907 242.988C153.039 243.12 153.436 243.12 153.568 242.988C153.7 242.856 153.7 242.46 153.568 242.328C151.716 240.482 148.805 236.92 148.938 235.469C148.938 235.205 149.07 235.205 149.202 235.074C150.658 234.282 154.626 237.448 157.14 240.086C157.272 240.35 157.669 240.35 157.802 240.086C158.066 239.954 158.066 239.558 157.802 239.426C156.743 238.239 151.319 232.699 148.673 234.282C148.276 234.546 148.012 234.942 147.879 235.469C147.747 236.393 148.409 237.712 149.335 239.031C147.35 237.58 145.233 236.261 144.175 236.393C143.778 236.393 143.514 236.656 143.514 236.788C142.984 237.58 142.852 238.371 143.117 239.163C143.381 240.086 144.043 241.141 144.969 242.064C143.646 241.537 142.323 241.273 141.661 241.669C141.397 241.801 141 242.196 141 242.856C141 246.285 145.233 247.868 145.366 248C145.233 247.736 145.233 247.736 145.233 247.736Z" fill="#26192A"/>
</svg>
