<svg width="138" height="26" viewBox="0 0 138 26" fill="none" xmlns="http://www.w3.org/2000/svg">
<g clip-path="url(#clip0_649:2891)">
<path d="M15 5L18.09 11.2534L25 12.2624L20 17.1272L21.18 24L15 20.7534L8.82 24L10 17.1272L5 12.2624L11.91 11.2534L15 5Z" fill="#FFD53F" stroke="#FFD53F" stroke-width="2" stroke-linecap="round" stroke-linejoin="round"/>
<path d="M42 5L45.09 11.2534L52 12.2624L47 17.1272L48.18 24L42 20.7534L35.82 24L37 17.1272L32 12.2624L38.91 11.2534L42 5Z" fill="#FFD53F" stroke="#FFD53F" stroke-width="2" stroke-linecap="round" stroke-linejoin="round"/>
<path d="M69 5L72.09 11.2534L79 12.2624L74 17.1272L75.18 24L69 20.7534L62.82 24L64 17.1272L59 12.2624L65.91 11.2534L69 5Z" fill="#FFD53F" stroke="#FFD53F" stroke-width="2" stroke-linecap="round" stroke-linejoin="round"/>
<path d="M96 5L99.09 11.2534L106 12.2624L101 17.1272L102.18 24L96 20.7534L89.82 24L91 17.1272L86 12.2624L92.91 11.2534L96 5Z" fill="#FFD53F" stroke="#FFD53F" stroke-width="2" stroke-linecap="round" stroke-linejoin="round"/>
<path d="M123 5L126.09 11.2534L133 12.2624L128 17.1272L129.18 24L123 20.7534L116.82 24L118 17.1272L113 12.2624L119.91 11.2534L123 5Z" fill="#FFD53F" stroke="#FFD53F" stroke-width="2" stroke-linecap="round" stroke-linejoin="round"/>
</g>
<defs>
<clipPath id="clip0_649:2891">
<rect width="138" height="26" fill="white"/>
</clipPath>
</defs>
</svg>
